<?xml version="1.0" encoding="UTF-8"?>
<svg xmlns="http://www.w3.org/2000/svg" xmlns:xlink="http://www.w3.org/1999/xlink" viewBox="0 0 1078.52 608">
  <defs>
    <style>
      .cls-1 {
        letter-spacing: 0em;
      }

      .cls-2 {
        stroke: #f7cd00;
        stroke-width: 3px;
      }

      .cls-2, .cls-3, .cls-4, .cls-5 {
        fill: none;
        stroke-miterlimit: 10;
      }

      .cls-6 {
        opacity: .5;
      }

      .cls-6, .cls-3, .cls-7 {
        mix-blend-mode: overlay;
      }

      .cls-8 {
        letter-spacing: 0em;
      }

      .cls-9 {
        font-family: SourceHanSansTC-Bold-B5pc-H, 'Source Han Sans TC';
        font-size: 32.18px;
        font-weight: 700;
      }

      .cls-9, .cls-10 {
        fill: #fff;
      }

      .cls-11, .cls-12 {
        fill: #f7cd00;
      }

      .cls-13 {
        fill: #3a63b3;
      }

      .cls-14 {
        fill: url(#_未命名漸層_5);
      }

      .cls-15 {
        letter-spacing: .02em;
      }

      .cls-16 {
        fill: url(#_未命名漸層_5-2);
      }

      .cls-17 {
        fill: url(#_未命名漸層_5-5);
      }

      .cls-18 {
        fill: url(#_未命名漸層_5-3);
      }

      .cls-19 {
        fill: url(#_未命名漸層_5-4);
      }

      .cls-12 {
        font-family: AcuminConcept-MediumItalic, 'Acumin Variable Concept';
        font-size: 21.53px;
        font-style: italic;
        font-variation-settings: 'wght' 500, 'wdth' 100, 'slnt' 12;
        font-weight: 500;
      }

      .cls-3 {
        stroke-dasharray: 0 4;
      }

      .cls-3, .cls-4, .cls-5 {
        stroke: #fff;
      }

      .cls-4 {
        stroke-dasharray: 0 0 4.07 4.07;
      }

      .cls-20 {
        letter-spacing: .02em;
      }

      .cls-21 {
        letter-spacing: 0em;
      }

      .cls-22 {
        letter-spacing: .02em;
      }

      .cls-23 {
        isolation: isolate;
      }

      .cls-24 {
        letter-spacing: -.25em;
      }

      .cls-25 {
        letter-spacing: 0em;
      }

      .cls-26 {
        letter-spacing: .01em;
      }

      .cls-27 {
        letter-spacing: 0em;
      }
    </style>
    <linearGradient id="_未命名漸層_5" data-name="未命名漸層 5" x1="417.74" y1="1669.28" x2="1391.99" y2="1669.28" gradientTransform="translate(-340.48 -1477.21)" gradientUnits="userSpaceOnUse">
      <stop offset="0" stop-color="#3a63b3"/>
      <stop offset=".71" stop-color="#000"/>
    </linearGradient>
    <linearGradient id="_未命名漸層_5-2" data-name="未命名漸層 5" y1="1781.21" y2="1781.21" gradientTransform="translate(-340.48 -1701.08)" xlink:href="#_未命名漸層_5"/>
    <linearGradient id="_未命名漸層_5-3" data-name="未命名漸層 5" y1="1333.49" y2="1333.49" gradientTransform="translate(-340.48 -805.62)" xlink:href="#_未命名漸層_5"/>
    <linearGradient id="_未命名漸層_5-4" data-name="未命名漸層 5" y1="1444.61" y2="1444.61" gradientTransform="translate(-340.48 -1027.88)" xlink:href="#_未命名漸層_5"/>
    <linearGradient id="_未命名漸層_5-5" data-name="未命名漸層 5" y1="1557.35" y2="1557.35" gradientTransform="translate(-340.48 -1253.35)" xlink:href="#_未命名漸層_5"/>
  </defs>
  <g class="cls-23">
    <g id="_圖層_1" data-name="圖層 1">
      <path class="cls-14" d="m84.25,143.24h963.74c1.94,0,3.52,1.58,3.52,3.52v90.62c0,1.94-1.58,3.52-3.52,3.52H84.25c-3.86,0-7-3.14-7-7v-83.66c0-3.86,3.14-7,7-7Z" transform="translate(1128.76 384.14) rotate(180)"/>
      <line class="cls-2" x1="680.63" y1="208.66" x2="680.63" y2="576.69"/>
      <line class="cls-2" x1="993.19" y1="208.66" x2="993.19" y2="464.76"/>
      <path class="cls-16" d="m84.25,31.31h963.74c1.94,0,3.52,1.58,3.52,3.52v90.62c0,1.94-1.58,3.52-3.52,3.52H84.25c-3.86,0-7-3.14-7-7V38.31c0-3.86,3.14-7,7-7Z" transform="translate(1128.76 160.27) rotate(180)"/>
      <path class="cls-18" d="m84.25,479.03h963.74c1.94,0,3.52,1.58,3.52,3.52v90.62c0,1.94-1.58,3.52-3.52,3.52H84.25c-3.86,0-7-3.14-7-7v-83.66c0-3.86,3.14-7,7-7Z" transform="translate(1128.76 1055.73) rotate(180)"/>
      <path class="cls-19" d="m84.25,367.91h963.74c1.94,0,3.52,1.58,3.52,3.52v90.62c0,1.94-1.58,3.52-3.52,3.52H84.25c-3.86,0-7-3.14-7-7v-83.66c0-3.86,3.14-7,7-7Z" transform="translate(1128.76 833.47) rotate(180)"/>
      <path class="cls-13" d="m73.62,31.31h14.31v97.66h-14.31c-3.86,0-7-3.14-7-7V38.31c0-3.86,3.14-7,7-7Z"/>
      <path class="cls-13" d="m73.62,479.03h14.31v97.66h-14.31c-3.86,0-7-3.14-7-7v-83.66c0-3.86,3.14-7,7-7Z"/>
      <path class="cls-13" d="m73.62,367.91h14.31v97.66h-14.31c-3.86,0-7-3.14-7-7v-83.66c0-3.86,3.14-7,7-7Z"/>
      <path class="cls-13" d="m73.62,143.24h14.31v97.66h-14.31c-3.86,0-7-3.14-7-7v-83.66c0-3.86,3.14-7,7-7Z"/>
      <text class="cls-9" transform="translate(103.79 72.29)"><tspan x="0" y="0">以會員資產為核心的商業目標的共識凝聚</tspan></text>
      <g>
        <rect class="cls-10" x="24.31" y="116.59" width="21.43" height="36.52" rx="2.44" ry="2.44"/>
        <text class="cls-12" transform="translate(27.78 120.12) rotate(90)"><tspan class="cls-22" x="0" y="0">C</tspan><tspan class="cls-26" x="14.64" y="0">X</tspan></text>
      </g>
      <g>
        <rect class="cls-10" x="24.31" y="228.12" width="21.43" height="36.52" rx="2.44" ry="2.44"/>
        <text class="cls-12" transform="translate(27.78 231.64) rotate(90)"><tspan class="cls-27" x="0" y="0">U</tspan><tspan class="cls-26" x="14.66" y="0">X</tspan></text>
      </g>
      <g>
        <rect class="cls-10" x="24.31" y="440.6" width="21.43" height="56.2" rx="2.44" ry="2.44"/>
        <text class="cls-12" transform="translate(27.78 444.13) rotate(90)"><tspan class="cls-20" x="0" y="0">A</tspan><tspan x="13.67" y="0">I/</tspan><tspan class="cls-8" x="28.37" y="0">B</tspan><tspan x="41.98" y="0">I</tspan></text>
      </g>
      <g>
        <rect class="cls-10" x="24.31" y="315.78" width="21.43" height="86.54" rx="2.44" ry="2.44"/>
        <text class="cls-12" transform="translate(27.78 319.97) rotate(90)"><tspan class="cls-1" x="0" y="0">M</tspan><tspan x="17.93" y="0">a</tspan><tspan class="cls-15" x="29.38" y="0">r</tspan><tspan class="cls-25" x="37.37" y="0">t</tspan><tspan class="cls-21" x="43.96" y="0">e</tspan><tspan x="55.28" y="0">ch</tspan></text>
      </g>
      <text class="cls-9" transform="translate(103.79 184.65)"><tspan x="0" y="0">設計會員制度的誘因</tspan><tspan class="cls-24" x="289.62" y="0" xml:space="preserve"> ，</tspan><tspan x="313.01" y="0" xml:space="preserve"> 搭建快速有效的會員價值路徑</tspan></text>
      <text class="cls-9" transform="translate(103.79 409.59)"><tspan x="0" y="0">強化數據搜集</tspan><tspan class="cls-24" x="193.08" y="0" xml:space="preserve"> 、</tspan><tspan x="216.47" y="0" xml:space="preserve"> 分析</tspan><tspan class="cls-24" x="288.14" y="0" xml:space="preserve"> 、</tspan><tspan x="311.53" y="0" xml:space="preserve"> 管理</tspan><tspan class="cls-24" x="383.19" y="0" xml:space="preserve"> ，</tspan><tspan x="0" y="42.62">從數據挖掘商機</tspan></text>
      <text class="cls-9" transform="translate(103.79 520.3)"><tspan x="0" y="0">從數據決策驅動會員資產變現</tspan></text>
      <rect class="cls-3" x="574.66" y="372.65" width="102.08" height="87.3" rx="6.81" ry="6.81"/>
      <rect class="cls-3" x="684.51" y="372.65" width="356.52" height="40.8" rx="5.76" ry="5.76"/>
      <rect class="cls-3" x="684.51" y="419.15" width="228.48" height="40.8" rx="5.76" ry="5.76"/>
      <rect class="cls-3" x="574.66" y="484.21" width="416.54" height="40.8" rx="5.76" ry="5.76"/>
      <rect class="cls-3" x="574.66" y="530.71" width="466.37" height="40.8" rx="5.76" ry="5.76"/>
      <path class="cls-11" d="m74.18,91.91c-.16-.55-.73-.87-1.28-.71-.25.07-6.08,1.8-11.95,8.06-5.36,5.72-11.76,16.49-11.76,35.31,0,26.6,12.34,37.72,19.45,41.91l-8.08,1.98.5,2.02,12.12-2.98-3.85-11.88-1.98.64,2.82,8.69c-6.63-3.74-18.9-14.2-18.9-40.39,0-18.07,6.04-28.35,11.11-33.8,5.48-5.89,11.04-7.56,11.1-7.57.55-.16.87-.74.71-1.29Z"/>
      <g>
        <path class="cls-11" d="m71.1,511.52c-.15,0-.31-.03-.46-.11-6.45-3.16-21.46-13.67-21.46-42.99,0-18.82,6.39-29.59,11.76-35.31,5.87-6.26,11.7-7.99,11.95-8.06.55-.16,1.12.16,1.28.71.16.55-.16,1.13-.71,1.29-.06.02-5.62,1.69-11.1,7.57-5.07,5.45-11.11,15.73-11.11,33.8,0,28.16,14.19,38.14,20.3,41.13.52.25.73.88.48,1.39-.18.37-.55.58-.93.58Z"/>
        <polygon class="cls-11" points="61.05 514.33 60.56 512.31 70.51 509.87 67.35 500.12 69.33 499.48 73.18 511.36 61.05 514.33"/>
      </g>
      <rect class="cls-13" x="78.8" y="203.72" width="972.71" height="9.88" rx="4.75" ry="4.75"/>
      <rect class="cls-11" x="673.54" y="201.57" width="14.19" height="14.19" rx="6.82" ry="6.82"/>
      <rect class="cls-11" x="751.68" y="201.57" width="14.19" height="14.19" rx="6.82" ry="6.82"/>
      <rect class="cls-11" x="829.81" y="201.57" width="14.19" height="14.19" rx="6.82" ry="6.82"/>
      <rect class="cls-11" x="907.95" y="201.57" width="14.19" height="14.19" rx="6.82" ry="6.82"/>
      <rect class="cls-11" x="986.09" y="201.57" width="14.19" height="14.19" rx="6.82" ry="6.82"/>
      <line class="cls-2" x1="758.77" y1="208.66" x2="758.77" y2="352.83"/>
      <line class="cls-2" x1="836.91" y1="208.66" x2="836.91" y2="352.83"/>
      <line class="cls-2" x1="915.05" y1="208.66" x2="915.05" y2="352.83"/>
      <g class="cls-7">
        <path class="cls-10" d="m830.67,62.42h15.18c8.39,0,11.58,4.38,11.58,8.89,0,3.92-2.08,6.46-4.42,7.53,2.34.88,5.42,3.35,5.42,7.92,0,5.94-4.67,10.4-12.06,10.4h-15.69v-34.74Zm14.31,13.7c3.57,0,5.04-1.6,5.04-4.04s-1.93-3.86-4.83-3.86h-7.16v7.9h6.94Zm-6.94,15.23h6.78c4.06,0,5.9-1.7,5.9-4.85,0-2.8-1.81-4.59-5.94-4.59h-6.73v9.43Z"/>
        <path class="cls-10" d="m886.35,89.58c0,2.51,0,5.25.05,7.58h-7.08c-.1-.7-.15-2.1-.2-3.01-1.55,2.62-3.85,3.61-7.18,3.61-5.31,0-8.71-3.23-8.71-9.7v-16.99h7.21v15.54c0,2.88.89,5.26,4.02,5.26,3.29,0,4.65-1.75,4.65-6.92v-13.88h7.22v18.5Z"/>
        <path class="cls-10" d="m897.78,89.31c.55,2.08,2.24,3.24,4.94,3.24s3.64-.96,3.64-2.54c0-1.67-1.12-2.33-4.86-3.25-8.5-2.09-9.89-4.72-9.89-8.4s2.71-7.9,10.58-7.9,10.59,4.32,10.81,7.85h-6.87c-.23-.96-.87-2.78-4.27-2.78-2.39,0-3.16,1.06-3.16,2.23,0,1.3.81,1.92,5.04,2.91,8.7,2.02,9.93,5.01,9.93,8.83,0,4.32-3.29,8.25-11.24,8.25s-11.19-3.82-11.76-8.44h7.09Z"/>
        <path class="cls-10" d="m918.45,60.38h7.22v6.44h-7.22v-6.44Zm0,10.7h7.22v26.08h-7.22v-26.08Z"/>
        <path class="cls-10" d="m932.2,77.64c0-2.22,0-4.64-.05-6.57h6.99c.15.67.24,2.48.28,3.32.89-1.64,3-3.93,7.57-3.93,5.24,0,8.64,3.54,8.64,10.09v16.59h-7.22v-15.79c0-2.93-.98-5.06-4.16-5.06s-4.82,1.71-4.82,6.31v14.53h-7.22v-19.51Z"/>
        <path class="cls-10" d="m967.77,85.66c0,3.26,1.64,6.45,5.23,6.45,3.01,0,3.87-1.21,4.55-2.78h7.23c-.93,3.19-3.77,8.43-11.97,8.43s-12.32-6.42-12.32-13.27c0-8.18,4.2-14.02,12.58-14.02,8.96,0,12,6.48,12,12.99,0,.88,0,1.46-.09,2.2h-17.21Zm10.07-4.43c-.05-3.04-1.26-5.59-4.78-5.59s-4.85,2.39-5.14,5.59h9.92Z"/>
        <path class="cls-10" d="m995.36,89.31c.55,2.08,2.24,3.24,4.94,3.24s3.64-.96,3.64-2.54c0-1.67-1.12-2.33-4.86-3.25-8.5-2.09-9.89-4.72-9.89-8.4s2.71-7.9,10.58-7.9,10.59,4.32,10.81,7.85h-6.87c-.23-.96-.87-2.78-4.27-2.78-2.39,0-3.16,1.06-3.16,2.23,0,1.3.81,1.92,5.04,2.91,8.7,2.02,9.93,5.01,9.93,8.83,0,4.32-3.29,8.25-11.24,8.25s-11.19-3.82-11.76-8.44h7.09Z"/>
        <path class="cls-10" d="m1021.41,89.31c.55,2.08,2.24,3.24,4.94,3.24s3.64-.96,3.64-2.54c0-1.67-1.12-2.33-4.86-3.25-8.5-2.09-9.89-4.72-9.89-8.4s2.71-7.9,10.58-7.9,10.59,4.32,10.81,7.85h-6.87c-.23-.96-.87-2.78-4.27-2.78-2.39,0-3.16,1.06-3.16,2.23,0,1.3.81,1.92,5.04,2.91,8.7,2.02,9.93,5.01,9.93,8.83,0,4.32-3.29,8.25-11.24,8.25s-11.19-3.82-11.76-8.44h7.09Z"/>
      </g>
      <g class="cls-7">
        <path class="cls-10" d="m843.88,201.28c-1.4,6.48-6.28,11.2-14.98,11.2-11.01,0-16.22-7.8-16.22-17.68s5.37-18.06,16.58-18.06c9.25,0,13.73,5.43,14.58,11.24h-7.51c-.73-2.68-2.59-5.35-7.31-5.35-6.19,0-8.59,5.57-8.59,11.89,0,5.87,2.08,12.06,8.79,12.06,4.9,0,6.45-3.28,7.1-5.31h7.55Z"/>
        <path class="cls-10" d="m871.44,204.41c0,2.51,0,5.25.05,7.58h-7.08c-.1-.7-.15-2.1-.2-3.01-1.55,2.62-3.85,3.61-7.18,3.61-5.31,0-8.71-3.23-8.71-9.7v-16.99h7.21v15.54c0,2.88.89,5.26,4.02,5.26,3.29,0,4.65-1.75,4.65-6.92v-13.88h7.22v18.5Z"/>
        <path class="cls-10" d="m882.86,204.15c.55,2.08,2.24,3.24,4.94,3.24s3.64-.96,3.64-2.54c0-1.67-1.12-2.33-4.86-3.25-8.5-2.09-9.89-4.72-9.89-8.4s2.71-7.9,10.58-7.9,10.59,4.32,10.81,7.85h-6.87c-.23-.96-.87-2.78-4.27-2.78-2.39,0-3.16,1.06-3.16,2.23,0,1.3.81,1.92,5.04,2.91,8.7,2.02,9.93,5.01,9.93,8.83,0,4.32-3.29,8.25-11.24,8.25s-11.19-3.82-11.76-8.44h7.09Z"/>
        <path class="cls-10" d="m900.7,185.91h4.02v-7.06h7.22v7.06h5.11v5.43h-5.11v12.87c0,1.98.6,2.75,2.76,2.75.4,0,1.1,0,1.64-.08v4.97c-1.43.49-3.4.5-4.85.5-5.09,0-6.77-2.72-6.77-7.28v-13.72h-4.02v-5.43Z"/>
        <path class="cls-10" d="m945.28,198.9c0,7.89-4.72,13.69-12.98,13.69s-12.81-5.77-12.81-13.56,4.87-13.73,13.15-13.73c7.68,0,12.64,5.42,12.64,13.59Zm-18.46.05c0,5.02,2.16,7.99,5.64,7.99s5.5-2.98,5.5-7.95c0-5.46-2-8.04-5.6-8.04-3.35,0-5.54,2.48-5.54,7.99Z"/>
        <path class="cls-10" d="m950.24,192.63c0-2.26,0-4.49-.05-6.72h6.9c.09.63.24,2.09.28,3.11,1.32-1.94,3.42-3.71,7.25-3.71s5.81,1.94,6.73,3.97c1.53-2.13,3.78-3.97,8.04-3.97,4.54,0,8.27,2.79,8.27,9.58v17.11h-7.04v-16.23c0-2.36-.85-4.66-3.81-4.66s-4.27,1.98-4.27,5.98v14.91h-7.08v-15.96c0-2.7-.67-4.89-3.75-4.89s-4.33,1.8-4.33,6.28v14.57h-7.13v-19.36Z"/>
        <path class="cls-10" d="m999.87,200.49c0,3.26,1.64,6.45,5.23,6.45,3.01,0,3.87-1.21,4.55-2.78h7.23c-.93,3.19-3.77,8.43-11.97,8.43s-12.32-6.42-12.32-13.27c0-8.18,4.2-14.02,12.58-14.02,8.96,0,12,6.48,12,12.99,0,.88,0,1.46-.09,2.2h-17.21Zm10.07-4.43c-.05-3.04-1.26-5.59-4.78-5.59s-4.85,2.39-5.14,5.59h9.92Z"/>
        <path class="cls-10" d="m1022.24,192.98c0-2.59,0-4.89-.05-7.07h7.08c.09.58.19,3.17.19,4.58,1.15-2.98,3.93-5.16,8.37-5.18v6.89c-5.24-.14-8.37,1.27-8.37,8.42v11.37h-7.22v-19.01Z"/>
      </g>
      <g class="cls-7">
        <path class="cls-10" d="m587.63,508.9h13.77c10.12,0,16.73,6.66,16.73,16.93s-6.42,17.8-17.05,17.8h-13.46v-34.74Zm7.51,28.67h5.63c6.66,0,9.6-4.95,9.6-11.72,0-5.67-2.76-10.88-9.56-10.88h-5.68v22.6Z"/>
        <path class="cls-10" d="m629.26,532.14c0,3.26,1.64,6.45,5.23,6.45,3.01,0,3.87-1.21,4.55-2.78h7.23c-.93,3.19-3.77,8.43-11.97,8.43s-12.32-6.42-12.32-13.27c0-8.18,4.2-14.02,12.58-14.02,8.96,0,12,6.48,12,12.99,0,.88,0,1.46-.09,2.2h-17.21Zm10.07-4.43c-.05-3.04-1.26-5.59-4.78-5.59s-4.85,2.39-5.14,5.59h9.92Z"/>
        <path class="cls-10" d="m674.51,535.21c-.9,4.34-3.95,9.03-11.73,9.03s-12.29-5.62-12.29-13.46,4.7-13.83,12.64-13.83c8.79,0,11.24,6.31,11.38,9.26h-7.05c-.45-2.12-1.65-3.61-4.47-3.61-3.3,0-5.17,2.89-5.17,7.95,0,5.55,1.98,8.08,5.14,8.08,2.48,0,3.81-1.47,4.46-3.43h7.09Z"/>
        <path class="cls-10" d="m679.19,506.86h7.22v6.44h-7.22v-6.44Zm0,10.7h7.22v26.08h-7.22v-26.08Z"/>
        <path class="cls-10" d="m697.96,535.8c.55,2.08,2.24,3.24,4.94,3.24s3.64-.96,3.64-2.54c0-1.67-1.12-2.33-4.86-3.25-8.5-2.09-9.89-4.72-9.89-8.4s2.71-7.9,10.58-7.9,10.59,4.32,10.81,7.85h-6.87c-.23-.96-.87-2.78-4.27-2.78-2.39,0-3.16,1.06-3.16,2.23,0,1.3.81,1.92,5.04,2.91,8.7,2.02,9.93,5.01,9.93,8.83,0,4.32-3.29,8.25-11.24,8.25s-11.19-3.82-11.76-8.44h7.09Z"/>
        <path class="cls-10" d="m718.64,506.86h7.22v6.44h-7.22v-6.44Zm0,10.7h7.22v26.08h-7.22v-26.08Z"/>
        <path class="cls-10" d="m756.6,530.55c0,7.89-4.72,13.69-12.98,13.69s-12.81-5.77-12.81-13.56,4.87-13.73,13.15-13.73c7.68,0,12.64,5.42,12.64,13.59Zm-18.46.05c0,5.02,2.16,7.99,5.64,7.99s5.5-2.98,5.5-7.95c0-5.46-2-8.04-5.6-8.04-3.35,0-5.54,2.48-5.54,7.99Z"/>
        <path class="cls-10" d="m761.61,524.13c0-2.22,0-4.64-.05-6.57h6.99c.15.67.24,2.48.28,3.32.89-1.64,3-3.93,7.57-3.93,5.24,0,8.64,3.54,8.64,10.09v16.59h-7.22v-15.79c0-2.93-.98-5.06-4.16-5.06s-4.82,1.71-4.82,6.31v14.53h-7.22v-19.51Z"/>
        <path class="cls-10" d="m833.64,530.61c0-5.93.09-12.57.25-16.5h-.24c-1.63,7.09-5.11,18.66-8.44,29.53h-6.4c-2.53-9.5-6.12-22.69-7.65-29.62h-.23c.3,4.08.44,11.22.44,17.18v12.44h-6.85v-34.74h11.18c2.71,9.08,5.74,20.46,6.79,25.64h.06c.85-4.57,4.67-16.74,7.56-25.64h10.77v34.74h-7.25v-13.03Z"/>
        <path class="cls-10" d="m868.94,536.9c0,2.48.2,6.11.35,6.74h-6.9c-.2-.52-.35-1.89-.36-2.55-.95,1.46-2.72,3.15-7.33,3.15-6.29,0-8.94-4.13-8.94-8.18,0-5.94,4.77-8.68,12.42-8.68h3.72v-1.59c0-1.85-.67-3.68-4.02-3.68-3.05,0-3.71,1.29-4.05,3.18h-6.87c.39-4.63,3.26-8.38,11.19-8.34,6.99.04,10.79,2.77,10.79,8.98v10.96Zm-7.04-5.13h-2.94c-4.35,0-5.96,1.33-5.96,3.84,0,1.89,1.16,3.48,3.75,3.48,4.59,0,5.15-3.19,5.15-6.64v-.68Z"/>
        <path class="cls-10" d="m875.47,524.63c0-2.59,0-4.89-.05-7.07h7.08c.09.58.19,3.17.19,4.58,1.15-2.98,3.93-5.16,8.37-5.18v6.89c-5.24-.13-8.37,1.27-8.37,8.42v11.37h-7.22v-19Z"/>
        <path class="cls-10" d="m902.34,528.56c1.92-2.6,5.38-6.65,8.98-11h8.28l-9.09,9.85,9.95,16.23h-8.18l-6.6-11.6-3.34,3.23v8.37h-7.22v-36.78h7.22v21.7Z"/>
        <path class="cls-10" d="m928.28,532.14c0,3.26,1.64,6.45,5.23,6.45,3.01,0,3.87-1.21,4.55-2.78h7.23c-.93,3.19-3.77,8.43-11.97,8.43s-12.32-6.42-12.32-13.27c0-8.18,4.2-14.02,12.58-14.02,8.96,0,12,6.48,12,12.99,0,.88,0,1.46-.09,2.2h-17.21Zm10.07-4.43c-.05-3.04-1.26-5.59-4.78-5.59s-4.85,2.39-5.14,5.59h9.92Z"/>
        <path class="cls-10" d="m948.01,517.56h4.02v-7.06h7.22v7.06h5.11v5.43h-5.11v12.87c0,1.98.6,2.75,2.76,2.75.4,0,1.1,0,1.64-.08v4.97c-1.43.49-3.4.5-4.85.5-5.09,0-6.77-2.72-6.77-7.28v-13.72h-4.02v-5.43Z"/>
        <path class="cls-10" d="m968.38,506.86h7.22v6.44h-7.22v-6.44Zm0,10.7h7.22v26.08h-7.22v-26.08Z"/>
        <path class="cls-10" d="m982.13,524.13c0-2.22,0-4.64-.05-6.57h6.99c.15.67.24,2.48.28,3.32.89-1.64,3-3.93,7.57-3.93,5.24,0,8.64,3.54,8.64,10.09v16.59h-7.22v-15.79c0-2.93-.98-5.06-4.16-5.06s-4.82,1.71-4.82,6.31v14.53h-7.22v-19.51Z"/>
        <path class="cls-10" d="m1035.68,540.46c0,8.37-3.09,13.67-12.97,13.67s-11.4-5.32-11.65-8.26h7.36c.51,1.79,1.83,3.01,4.61,3.01,4.69,0,5.57-2.86,5.57-7.97v-1.25c-1.36,2.25-3.52,3.66-7.35,3.66-6.87,0-10.78-5.63-10.78-12.64,0-8.15,4.88-13.73,11.4-13.73,4.47,0,6.34,2.11,6.73,3.32.05-.71.23-2.29.28-2.72h6.85c-.04,2.33-.06,4.98-.06,7.48v15.42Zm-17.79-10.1c0,4.49,2.24,7.13,5.44,7.13,4.35,0,5.51-2.98,5.51-7.36s-.77-7.4-5.36-7.4c-3.13,0-5.59,2.42-5.59,7.63Z"/>
      </g>
      <path class="cls-17" d="m84.25,255.17h963.74c1.94,0,3.52,1.58,3.52,3.52v90.62c0,1.94-1.58,3.52-3.52,3.52H84.25c-3.86,0-7-3.14-7-7v-83.66c0-3.86,3.14-7,7-7Z" transform="translate(1128.76 608) rotate(180)"/>
      <rect class="cls-3" x="684.7" y="261.08" width="306.69" height="26.18" rx="12.59" ry="12.59"/>
      <rect class="cls-3" x="760.98" y="290.4" width="230.41" height="26.18" rx="12.59" ry="12.59"/>
      <rect class="cls-3" x="760.98" y="319.71" width="152.2" height="26.18" rx="12.59" ry="12.59"/>
      <text class="cls-9" transform="translate(103.79 295.11)"><tspan x="0" y="0">落實會員制</tspan><tspan class="cls-24" x="160.9" y="0" xml:space="preserve"> ，</tspan><tspan x="184.29" y="0" xml:space="preserve"> 創造會員等級</tspan><tspan class="cls-24" x="384.68" y="0" xml:space="preserve"> ，</tspan><tspan x="0" y="42.62">持續優化溝通策略</tspan></text>
      <g class="cls-7">
        <path class="cls-10" d="m712.38,273.73c-.53.39-1.15.58-1.77.58s-1.24-.19-1.77-.58l-11.58-8.49c-.07.16-.1.33-.1.51v17.08c0,.73.59,1.32,1.32,1.32h24.25c.73,0,1.32-.59,1.32-1.32v-17.08c0-.18-.04-.36-.1-.51l-11.58,8.49Z"/>
        <path class="cls-10" d="m709.54,272.78c.64.47,1.5.47,2.14,0l11.31-8.29c-.08-.02-.16-.05-.25-.05h-24.25c-.09,0-.17.03-.25.05l11.31,8.29Z"/>
      </g>
      <g class="cls-7">
        <polygon class="cls-10" points="780.5 338.52 776.63 342.09 784.37 342.09 780.5 338.52"/>
        <path class="cls-10" d="m793.3,323.51h-24.81c-.55,0-1,.45-1,1v14.63c0,.55.45,1,1,1h24.81c.55,0,1-.45,1-1v-14.63c0-.55-.45-1-1-1Zm-.19,15h-24.44v-13.61c0-.32.26-.58.58-.58h23.21c.36,0,.65.29.65.65v13.54Z"/>
        <rect class="cls-10" x="768.67" y="338.52" width="24.44" height=".79"/>
      </g>
      <g class="cls-7">
        <circle class="cls-10" cx="592.01" cy="285.48" r="5.24"/>
        <path class="cls-10" d="m582.92,293.1l6.03-1.48s.82.87,3.06.87,3.23-.87,3.23-.87l5.73,1.48v13.17l-2.11,1.65-.26-8.82h-.59l-2.11,25.09h-7.7l-1.91-25.22h-.53l-.46,9.29-2.37-1.58v-13.57Z"/>
      </g>
      <g class="cls-7">
        <path class="cls-10" d="m635.48,312.68v-17.79c0-.46-.24-.89-.64-1.12l-8.8-5.29c-.62-.37-1.4.07-1.4.79v17.02c0,.75.4,1.45,1.05,1.84l8.7,5.18c.48.29,1.09-.06,1.09-.62Z"/>
        <path class="cls-10" d="m633.16,313.95l-8.37-5.31c-.61-.39-.99-1.07-.99-1.79v-15.23c0-.28-.12-.54-.33-.72l-.85-.71c-.5-.42-1.27-.07-1.27.59v17.29c0,.94.59,1.77,1.46,2.1l10.34,3.79Z"/>
        <path class="cls-10" d="m631.09,314.11l-8.35-2.84c-1.29-.44-2.16-1.65-2.16-3.01v-14.49c0-.34-.12-.66-.33-.93l-.62-.76c-.46-.56-1.37-.24-1.37.49v16.97c0,1.5,1.09,2.77,2.57,3l10.26,1.57Z"/>
        <path class="cls-10" d="m637.35,312.68v-17.79c0-.46.24-.89.64-1.12l8.8-5.29c.62-.37,1.4.07,1.4.79v17.02c0,.75-.4,1.45-1.05,1.84l-8.7,5.18c-.48.29-1.09-.06-1.09-.62Z"/>
        <path class="cls-10" d="m639.67,313.95l8.37-5.31c.61-.39.99-1.07.99-1.79v-15.23c0-.28.12-.54.33-.72l.85-.71c.5-.42,1.27-.07,1.27.59v17.29c0,.94-.59,1.77-1.46,2.1l-10.34,3.79Z"/>
        <path class="cls-10" d="m641.74,314.11l8.35-2.84c1.29-.44,2.16-1.65,2.16-3.01v-14.49c0-.34.12-.66.33-.93l.62-.76c.46-.56,1.37-.24,1.37.49v16.97c0,1.5-1.09,2.77-2.57,3l-10.26,1.57Z"/>
      </g>
      <g class="cls-7">
        <g>
          <line class="cls-5" x1="758.77" y1="255.17" x2="758.77" y2="257.17"/>
          <line class="cls-4" x1="758.77" y1="261.24" x2="758.77" y2="348.79"/>
          <line class="cls-5" x1="758.77" y1="350.83" x2="758.77" y2="352.83"/>
        </g>
      </g>
      <g class="cls-7">
        <g>
          <line class="cls-5" x1="680.75" y1="255.17" x2="680.75" y2="257.17"/>
          <line class="cls-4" x1="680.75" y1="261.24" x2="680.75" y2="348.79"/>
          <line class="cls-5" x1="680.75" y1="350.83" x2="680.75" y2="352.83"/>
        </g>
      </g>
      <g class="cls-7">
        <g>
          <line class="cls-5" x1="680.63" y1="367.91" x2="680.63" y2="369.91"/>
          <line class="cls-4" x1="680.63" y1="373.98" x2="680.63" y2="461.53"/>
          <line class="cls-5" x1="680.63" y1="463.57" x2="680.63" y2="465.57"/>
        </g>
      </g>
      <g class="cls-7">
        <g>
          <line class="cls-5" x1="993.19" y1="367.91" x2="993.19" y2="369.91"/>
          <line class="cls-4" x1="993.19" y1="373.98" x2="993.19" y2="461.53"/>
          <line class="cls-5" x1="993.19" y1="463.57" x2="993.19" y2="465.57"/>
        </g>
      </g>
      <g class="cls-7">
        <g>
          <line class="cls-5" x1="836.91" y1="255.17" x2="836.91" y2="257.17"/>
          <line class="cls-4" x1="836.91" y1="261.24" x2="836.91" y2="348.79"/>
          <line class="cls-5" x1="836.91" y1="350.83" x2="836.91" y2="352.83"/>
        </g>
      </g>
      <g class="cls-7">
        <g>
          <line class="cls-5" x1="915.05" y1="255.17" x2="915.05" y2="257.17"/>
          <line class="cls-4" x1="915.05" y1="261.24" x2="915.05" y2="348.79"/>
          <line class="cls-5" x1="915.05" y1="350.83" x2="915.05" y2="352.83"/>
        </g>
      </g>
      <g class="cls-7">
        <g>
          <line class="cls-5" x1="993.19" y1="255.17" x2="993.19" y2="257.17"/>
          <line class="cls-4" x1="993.19" y1="261.24" x2="993.19" y2="348.79"/>
          <line class="cls-5" x1="993.19" y1="350.83" x2="993.19" y2="352.83"/>
        </g>
      </g>
      <g class="cls-7">
        <polygon class="cls-10" points="958.39 349.87 944.08 349.87 944.08 368.58 936.74 368.58 951.41 375.24 966.08 368.58 958.39 368.58 958.39 349.87"/>
        <polygon class="cls-10" points="702.73 387.32 658.53 387.32 658.53 379.99 651.87 394.65 658.53 409.32 658.53 401.64 702.73 401.64 702.73 409.32 709.38 394.65 702.73 379.99 702.73 387.32"/>
        <polygon class="cls-10" points="702.73 432.22 658.53 432.22 658.53 424.89 651.87 439.55 658.53 454.22 658.53 446.54 702.73 446.54 702.73 454.22 709.38 439.55 702.73 424.89 702.73 432.22"/>
        <polygon class="cls-10" points="738.66 394.46 723.99 401.12 731.68 401.12 731.68 412.67 745.99 412.67 745.99 401.12 753.33 401.12 738.66 394.46"/>
        <polygon class="cls-10" points="872.07 420.08 857.75 420.08 857.75 431.63 850.41 431.63 865.08 438.29 879.75 431.63 872.07 431.63 872.07 420.08"/>
        <polygon class="cls-10" points="966.08 407.4 951.41 400.74 936.74 407.4 944.43 407.4 944.43 488.33 936.74 488.33 951.41 494.99 966.08 488.33 958.74 488.33 958.74 407.4 966.08 407.4"/>
        <polygon class="cls-10" points="1022.38 407.4 1029.72 407.4 1015.05 400.74 1000.38 407.4 1008.06 407.4 1008.06 547.47 1000.38 547.47 1015.05 554.13 1029.72 547.47 1022.38 547.47 1022.38 407.4"/>
      </g>
      <g class="cls-7">
        <path class="cls-10" d="m700.58,428.62c.79,3.49,3.29,5.02,7.32,5.02s5.72-1.58,5.72-4.13c0-2.83-1.67-4.05-7.62-5.44-9.45-2.22-11.79-5.66-11.79-10.35,0-6.05,4.53-10.17,12.75-10.17,9.22,0,12.9,4.96,13.4,10.04h-7.57c-.36-2.14-1.54-4.46-6.02-4.46-3.05,0-4.89,1.26-4.89,3.73s1.48,3.4,7.09,4.7c10.1,2.38,12.32,6.14,12.32,11.04,0,6.34-4.8,10.69-13.98,10.69s-13.46-4.34-14.29-10.67h7.57Z"/>
        <path class="cls-10" d="m731.05,412.73c2.69,9,5.04,17.03,5.46,19.44h.05c.56-2.63,2.09-8.47,5.21-19.44h7.19l-8.76,26.83c-2.49,7.5-4.57,9.74-10.84,9.74-.64,0-2.13-.05-3.38-.2v-5.8c.49.06,1.28.11,1.87.11,2.65,0,3.99-.92,4.96-3.8l-9.49-26.88h7.74Z"/>
        <path class="cls-10" d="m757.71,430.97c.55,2.08,2.24,3.24,4.94,3.24s3.64-.96,3.64-2.54c0-1.67-1.12-2.33-4.86-3.25-8.5-2.09-9.89-4.72-9.89-8.4s2.71-7.9,10.58-7.9,10.59,4.32,10.81,7.85h-6.87c-.23-.96-.87-2.78-4.27-2.78-2.39,0-3.16,1.06-3.16,2.23,0,1.3.81,1.92,5.04,2.91,8.7,2.02,9.93,5.01,9.93,8.83,0,4.32-3.29,8.25-11.24,8.25s-11.19-3.82-11.76-8.44h7.09Z"/>
        <path class="cls-10" d="m775.55,412.73h4.02v-7.06h7.22v7.06h5.11v5.43h-5.11v12.87c0,1.98.6,2.75,2.76,2.75.4,0,1.1,0,1.64-.08v4.97c-1.43.49-3.4.5-4.85.5-5.09,0-6.77-2.72-6.77-7.28v-13.72h-4.02v-5.43Z"/>
        <path class="cls-10" d="m801.61,427.31c0,3.26,1.64,6.45,5.23,6.45,3.01,0,3.87-1.21,4.55-2.78h7.23c-.93,3.19-3.77,8.43-11.97,8.43s-12.32-6.42-12.32-13.27c0-8.18,4.2-14.02,12.58-14.02,8.96,0,12,6.48,12,12.99,0,.88,0,1.46-.09,2.2h-17.21Zm10.07-4.43c-.05-3.04-1.26-5.59-4.78-5.59s-4.85,2.39-5.14,5.59h9.92Z"/>
        <path class="cls-10" d="m823.98,419.45c0-2.25,0-4.49-.05-6.72h6.9c.09.63.24,2.09.28,3.11,1.32-1.94,3.42-3.71,7.25-3.71s5.81,1.94,6.73,3.97c1.53-2.13,3.78-3.97,8.04-3.97,4.54,0,8.27,2.79,8.27,9.58v17.11h-7.04v-16.23c0-2.36-.85-4.66-3.81-4.66s-4.27,1.98-4.27,5.98v14.91h-7.08v-15.96c0-2.7-.67-4.89-3.75-4.89s-4.33,1.8-4.33,6.28v14.57h-7.13v-19.36Z"/>
        <path class="cls-10" d="m914.01,417.24l-9.25,12.5c-4.02,5.45-6.82,9.57-14.46,9.57s-11.25-4.94-11.25-9.68c0-5.04,3.38-7.96,9.6-10.92,3.54-1.24,7.01-3.23,7.01-6.54,0-1.88-1.01-3.62-3.28-3.62-2.02,0-3.31,1.48-3.31,3.74,0,2.09,1.74,3.76,3.74,5.66l21.39,20.87h-9.28l-18.38-18.04c-2.12-2.1-4.08-4.73-4.08-7.96,0-5.27,3.87-9.25,9.88-9.25s9.65,4.05,9.65,8.47-3.46,7.28-9.79,10.23c-4.49,1.81-5.79,4.28-5.79,6.5s1.48,4.48,4.71,4.48c3.68,0,5.16-1.9,9.38-7.65l6.13-8.36h7.36Z"/>
        <path class="cls-10" d="m932.54,404.07h13.77c10.12,0,16.73,6.66,16.73,16.93s-6.42,17.8-17.05,17.8h-13.46v-34.74Zm7.51,28.67h5.63c6.66,0,9.6-4.95,9.6-11.72,0-5.67-2.76-10.88-9.56-10.88h-5.68v22.6Z"/>
        <path class="cls-10" d="m989.91,432.07c0,2.48.2,6.11.35,6.74h-6.9c-.2-.52-.35-1.89-.36-2.55-.95,1.46-2.72,3.15-7.33,3.15-6.29,0-8.94-4.13-8.94-8.18,0-5.94,4.77-8.68,12.42-8.68h3.72v-1.59c0-1.85-.67-3.68-4.02-3.68-3.05,0-3.71,1.29-4.05,3.18h-6.87c.39-4.63,3.26-8.38,11.19-8.34,6.99.04,10.79,2.77,10.79,8.98v10.96Zm-7.04-5.13h-2.94c-4.35,0-5.96,1.33-5.96,3.84,0,1.89,1.16,3.48,3.75,3.48,4.59,0,5.15-3.19,5.15-6.64v-.68Z"/>
        <path class="cls-10" d="m993.4,412.73h4.02v-7.06h7.22v7.06h5.11v5.43h-5.11v12.87c0,1.98.6,2.75,2.76,2.75.4,0,1.1,0,1.64-.08v4.97c-1.43.49-3.4.5-4.85.5-5.09,0-6.77-2.72-6.77-7.28v-13.72h-4.02v-5.43Z"/>
        <path class="cls-10" d="m1035.55,432.07c0,2.48.2,6.11.35,6.74h-6.9c-.2-.52-.35-1.89-.36-2.55-.95,1.46-2.72,3.15-7.33,3.15-6.29,0-8.94-4.13-8.94-8.18,0-5.94,4.77-8.68,12.42-8.68h3.72v-1.59c0-1.85-.67-3.68-4.02-3.68-3.05,0-3.71,1.29-4.05,3.18h-6.87c.39-4.63,3.26-8.38,11.19-8.34,6.99.04,10.79,2.77,10.79,8.98v10.96Zm-7.04-5.13h-2.94c-4.35,0-5.96,1.33-5.96,3.84,0,1.89,1.16,3.48,3.75,3.48,4.59,0,5.15-3.19,5.15-6.64v-.68Z"/>
      </g>
      <g class="cls-7">
        <path class="cls-10" d="m770.13,307.66h-16.61v8.83h18.33l-.89,6.16h-24.72v-34.74h24.63v6.16h-17.34v7.44h16.61v6.16Z"/>
        <path class="cls-10" d="m776.32,303.13c0-2.22,0-4.64-.05-6.57h6.99c.15.67.24,2.48.28,3.32.89-1.64,3-3.93,7.57-3.93,5.24,0,8.64,3.54,8.64,10.09v16.59h-7.22v-15.79c0-2.93-.98-5.06-4.16-5.06s-4.82,1.71-4.82,6.31v14.53h-7.22v-19.51Z"/>
        <path class="cls-10" d="m829.87,319.46c0,8.37-3.09,13.67-12.97,13.67s-11.4-5.32-11.65-8.26h7.36c.51,1.79,1.83,3.01,4.61,3.01,4.69,0,5.57-2.86,5.57-7.97v-1.25c-1.36,2.25-3.52,3.66-7.35,3.66-6.87,0-10.78-5.63-10.78-12.64,0-8.15,4.88-13.73,11.4-13.73,4.47,0,6.34,2.11,6.73,3.32.05-.71.23-2.29.28-2.72h6.85c-.04,2.33-.06,4.98-.06,7.48v15.42Zm-17.79-10.1c0,4.49,2.24,7.13,5.44,7.13,4.35,0,5.51-2.98,5.51-7.36s-.77-7.4-5.36-7.4c-3.13,0-5.59,2.42-5.59,7.63Z"/>
        <path class="cls-10" d="m857.45,315.9c0,2.48.2,6.11.35,6.74h-6.9c-.2-.52-.35-1.89-.36-2.55-.95,1.46-2.72,3.15-7.33,3.15-6.29,0-8.94-4.13-8.94-8.18,0-5.94,4.77-8.68,12.42-8.68h3.72v-1.59c0-1.85-.67-3.68-4.02-3.68-3.05,0-3.71,1.29-4.05,3.18h-6.87c.39-4.63,3.26-8.38,11.19-8.34,6.99.04,10.79,2.77,10.79,8.98v10.97Zm-7.04-5.13h-2.94c-4.35,0-5.96,1.33-5.96,3.84,0,1.89,1.16,3.48,3.75,3.48,4.59,0,5.15-3.19,5.15-6.64v-.68Z"/>
        <path class="cls-10" d="m887.71,319.46c0,8.37-3.09,13.67-12.97,13.67s-11.4-5.32-11.65-8.26h7.36c.51,1.79,1.83,3.01,4.61,3.01,4.69,0,5.57-2.86,5.57-7.97v-1.25c-1.36,2.25-3.52,3.66-7.35,3.66-6.87,0-10.78-5.63-10.78-12.64,0-8.15,4.88-13.73,11.4-13.73,4.47,0,6.34,2.11,6.73,3.32.05-.71.23-2.29.28-2.72h6.85c-.04,2.33-.06,4.98-.06,7.48v15.42Zm-17.79-10.1c0,4.49,2.24,7.13,5.44,7.13,4.35,0,5.51-2.98,5.51-7.36s-.77-7.4-5.36-7.4c-3.13,0-5.59,2.42-5.59,7.63Z"/>
        <path class="cls-10" d="m900.06,311.14c0,3.26,1.64,6.45,5.23,6.45,3.01,0,3.87-1.21,4.55-2.78h7.23c-.93,3.19-3.77,8.43-11.97,8.43s-12.32-6.42-12.32-13.27c0-8.18,4.2-14.02,12.58-14.02,8.96,0,12,6.48,12,12.99,0,.88,0,1.46-.09,2.2h-17.21Zm10.07-4.43c-.05-3.04-1.26-5.59-4.78-5.59s-4.85,2.39-5.14,5.59h9.92Z"/>
        <path class="cls-10" d="m922.43,303.28c0-2.25,0-4.49-.05-6.72h6.9c.09.63.24,2.09.28,3.11,1.32-1.94,3.42-3.71,7.25-3.71s5.81,1.94,6.73,3.97c1.53-2.13,3.78-3.97,8.04-3.97,4.54,0,8.27,2.79,8.27,9.58v17.11h-7.04v-16.23c0-2.36-.85-4.66-3.81-4.66s-4.27,1.98-4.27,5.98v14.91h-7.08v-15.96c0-2.7-.67-4.89-3.75-4.89s-4.33,1.8-4.33,6.28v14.57h-7.13v-19.36Z"/>
        <path class="cls-10" d="m972.06,311.14c0,3.26,1.64,6.45,5.23,6.45,3.01,0,3.87-1.21,4.55-2.78h7.23c-.93,3.19-3.77,8.43-11.97,8.43s-12.32-6.42-12.32-13.27c0-8.18,4.2-14.02,12.58-14.02,8.96,0,12,6.48,12,12.99,0,.88,0,1.46-.09,2.2h-17.21Zm10.07-4.43c-.05-3.04-1.26-5.59-4.78-5.59s-4.85,2.39-5.14,5.59h9.92Z"/>
        <path class="cls-10" d="m994.47,303.13c0-2.22,0-4.64-.05-6.57h6.99c.15.67.24,2.48.28,3.32.89-1.64,3-3.93,7.57-3.93,5.24,0,8.64,3.54,8.64,10.09v16.59h-7.22v-15.79c0-2.93-.98-5.06-4.16-5.06s-4.82,1.71-4.82,6.31v14.53h-7.22v-19.51Z"/>
        <path class="cls-10" d="m1021.26,296.56h4.02v-7.06h7.22v7.06h5.11v5.43h-5.11v12.87c0,1.98.6,2.75,2.76,2.75.4,0,1.1,0,1.64-.08v4.97c-1.43.49-3.4.5-4.85.5-5.09,0-6.77-2.72-6.77-7.28v-13.72h-4.02v-5.43Z"/>
      </g>
      <g class="cls-6">
        <path class="cls-10" d="m830.67,62.42h15.18c8.39,0,11.58,4.38,11.58,8.89,0,3.92-2.08,6.46-4.42,7.53,2.34.88,5.42,3.35,5.42,7.92,0,5.94-4.67,10.4-12.06,10.4h-15.69v-34.74Zm14.31,13.7c3.57,0,5.04-1.6,5.04-4.04s-1.93-3.86-4.83-3.86h-7.16v7.9h6.94Zm-6.94,15.23h6.78c4.06,0,5.9-1.7,5.9-4.85,0-2.8-1.81-4.59-5.94-4.59h-6.73v9.43Z"/>
        <path class="cls-10" d="m886.35,89.58c0,2.51,0,5.25.05,7.58h-7.08c-.1-.7-.15-2.1-.2-3.01-1.55,2.62-3.85,3.61-7.18,3.61-5.31,0-8.71-3.23-8.71-9.7v-16.99h7.21v15.54c0,2.88.89,5.26,4.02,5.26,3.29,0,4.65-1.75,4.65-6.92v-13.88h7.22v18.5Z"/>
        <path class="cls-10" d="m897.78,89.31c.55,2.08,2.24,3.24,4.94,3.24s3.64-.96,3.64-2.54c0-1.67-1.12-2.33-4.86-3.25-8.5-2.09-9.89-4.72-9.89-8.4s2.71-7.9,10.58-7.9,10.59,4.32,10.81,7.85h-6.87c-.23-.96-.87-2.78-4.27-2.78-2.39,0-3.16,1.06-3.16,2.23,0,1.3.81,1.92,5.04,2.91,8.7,2.02,9.93,5.01,9.93,8.83,0,4.32-3.29,8.25-11.24,8.25s-11.19-3.82-11.76-8.44h7.09Z"/>
        <path class="cls-10" d="m918.45,60.38h7.22v6.44h-7.22v-6.44Zm0,10.7h7.22v26.08h-7.22v-26.08Z"/>
        <path class="cls-10" d="m932.2,77.64c0-2.22,0-4.64-.05-6.57h6.99c.15.67.24,2.48.28,3.32.89-1.64,3-3.93,7.57-3.93,5.24,0,8.64,3.54,8.64,10.09v16.59h-7.22v-15.79c0-2.93-.98-5.06-4.16-5.06s-4.82,1.71-4.82,6.31v14.53h-7.22v-19.51Z"/>
        <path class="cls-10" d="m967.77,85.66c0,3.26,1.64,6.45,5.23,6.45,3.01,0,3.87-1.21,4.55-2.78h7.23c-.93,3.19-3.77,8.43-11.97,8.43s-12.32-6.42-12.32-13.27c0-8.18,4.2-14.02,12.58-14.02,8.96,0,12,6.48,12,12.99,0,.88,0,1.46-.09,2.2h-17.21Zm10.07-4.43c-.05-3.04-1.26-5.59-4.78-5.59s-4.85,2.39-5.14,5.59h9.92Z"/>
        <path class="cls-10" d="m995.36,89.31c.55,2.08,2.24,3.24,4.94,3.24s3.64-.96,3.64-2.54c0-1.67-1.12-2.33-4.86-3.25-8.5-2.09-9.89-4.72-9.89-8.4s2.71-7.9,10.58-7.9,10.59,4.32,10.81,7.85h-6.87c-.23-.96-.87-2.78-4.27-2.78-2.39,0-3.16,1.06-3.16,2.23,0,1.3.81,1.92,5.04,2.91,8.7,2.02,9.93,5.01,9.93,8.83,0,4.32-3.29,8.25-11.24,8.25s-11.19-3.82-11.76-8.44h7.09Z"/>
        <path class="cls-10" d="m1021.41,89.31c.55,2.08,2.24,3.24,4.94,3.24s3.64-.96,3.64-2.54c0-1.67-1.12-2.33-4.86-3.25-8.5-2.09-9.89-4.72-9.89-8.4s2.71-7.9,10.58-7.9,10.59,4.32,10.81,7.85h-6.87c-.23-.96-.87-2.78-4.27-2.78-2.39,0-3.16,1.06-3.16,2.23,0,1.3.81,1.92,5.04,2.91,8.7,2.02,9.93,5.01,9.93,8.83,0,4.32-3.29,8.25-11.24,8.25s-11.19-3.82-11.76-8.44h7.09Z"/>
      </g>
      <g class="cls-6">
        <path class="cls-10" d="m843.88,201.28c-1.4,6.48-6.28,11.2-14.98,11.2-11.01,0-16.22-7.8-16.22-17.68s5.37-18.06,16.58-18.06c9.25,0,13.73,5.43,14.58,11.24h-7.51c-.73-2.68-2.59-5.35-7.31-5.35-6.19,0-8.59,5.57-8.59,11.89,0,5.87,2.08,12.06,8.79,12.06,4.9,0,6.45-3.28,7.1-5.31h7.55Z"/>
        <path class="cls-10" d="m871.44,204.41c0,2.51,0,5.25.05,7.58h-7.08c-.1-.7-.15-2.1-.2-3.01-1.55,2.62-3.85,3.61-7.18,3.61-5.31,0-8.71-3.23-8.71-9.7v-16.99h7.21v15.54c0,2.88.89,5.26,4.02,5.26,3.29,0,4.65-1.75,4.65-6.92v-13.88h7.22v18.5Z"/>
        <path class="cls-10" d="m882.86,204.15c.55,2.08,2.24,3.24,4.94,3.24s3.64-.96,3.64-2.54c0-1.67-1.12-2.33-4.86-3.25-8.5-2.09-9.89-4.72-9.89-8.4s2.71-7.9,10.58-7.9,10.59,4.32,10.81,7.85h-6.87c-.23-.96-.87-2.78-4.27-2.78-2.39,0-3.16,1.06-3.16,2.23,0,1.3.81,1.92,5.04,2.91,8.7,2.02,9.93,5.01,9.93,8.83,0,4.32-3.29,8.25-11.24,8.25s-11.19-3.82-11.76-8.44h7.09Z"/>
        <path class="cls-10" d="m900.7,185.91h4.02v-7.06h7.22v7.06h5.11v5.43h-5.11v12.87c0,1.98.6,2.75,2.76,2.75.4,0,1.1,0,1.64-.08v4.97c-1.43.49-3.4.5-4.85.5-5.09,0-6.77-2.72-6.77-7.28v-13.72h-4.02v-5.43Z"/>
        <path class="cls-10" d="m945.28,198.9c0,7.89-4.72,13.69-12.98,13.69s-12.81-5.77-12.81-13.56,4.87-13.73,13.15-13.73c7.68,0,12.64,5.42,12.64,13.59Zm-18.46.05c0,5.02,2.16,7.99,5.64,7.99s5.5-2.98,5.5-7.95c0-5.46-2-8.04-5.6-8.04-3.35,0-5.54,2.48-5.54,7.99Z"/>
        <path class="cls-10" d="m950.24,192.63c0-2.26,0-4.49-.05-6.72h6.9c.09.63.24,2.09.28,3.11,1.32-1.94,3.42-3.71,7.25-3.71s5.81,1.94,6.73,3.97c1.53-2.13,3.78-3.97,8.04-3.97,4.54,0,8.27,2.79,8.27,9.58v17.11h-7.04v-16.23c0-2.36-.85-4.66-3.81-4.66s-4.27,1.98-4.27,5.98v14.91h-7.08v-15.96c0-2.7-.67-4.89-3.75-4.89s-4.33,1.8-4.33,6.28v14.57h-7.13v-19.36Z"/>
        <path class="cls-10" d="m999.87,200.49c0,3.26,1.64,6.45,5.23,6.45,3.01,0,3.87-1.21,4.55-2.78h7.23c-.93,3.19-3.77,8.43-11.97,8.43s-12.32-6.42-12.32-13.27c0-8.18,4.2-14.02,12.58-14.02,8.96,0,12,6.48,12,12.99,0,.88,0,1.46-.09,2.2h-17.21Zm10.07-4.43c-.05-3.04-1.26-5.59-4.78-5.59s-4.85,2.39-5.14,5.59h9.92Z"/>
        <path class="cls-10" d="m1022.24,192.98c0-2.59,0-4.89-.05-7.07h7.08c.09.58.19,3.17.19,4.58,1.15-2.98,3.93-5.16,8.37-5.18v6.89c-5.24-.14-8.37,1.27-8.37,8.42v11.37h-7.22v-19.01Z"/>
      </g>
      <g class="cls-6">
        <path class="cls-10" d="m587.63,508.9h13.77c10.12,0,16.73,6.66,16.73,16.93s-6.42,17.8-17.05,17.8h-13.46v-34.74Zm7.51,28.67h5.63c6.66,0,9.6-4.95,9.6-11.72,0-5.67-2.76-10.88-9.56-10.88h-5.68v22.6Z"/>
        <path class="cls-10" d="m629.26,532.14c0,3.26,1.64,6.45,5.23,6.45,3.01,0,3.87-1.21,4.55-2.78h7.23c-.93,3.19-3.77,8.43-11.97,8.43s-12.32-6.42-12.32-13.27c0-8.18,4.2-14.02,12.58-14.02,8.96,0,12,6.48,12,12.99,0,.88,0,1.46-.09,2.2h-17.21Zm10.07-4.43c-.05-3.04-1.26-5.59-4.78-5.59s-4.85,2.39-5.14,5.59h9.92Z"/>
        <path class="cls-10" d="m674.51,535.21c-.9,4.34-3.95,9.03-11.73,9.03s-12.29-5.62-12.29-13.46,4.7-13.83,12.64-13.83c8.79,0,11.24,6.31,11.38,9.26h-7.05c-.45-2.12-1.65-3.61-4.47-3.61-3.3,0-5.17,2.89-5.17,7.95,0,5.55,1.98,8.08,5.14,8.08,2.48,0,3.81-1.47,4.46-3.43h7.09Z"/>
        <path class="cls-10" d="m679.19,506.86h7.22v6.44h-7.22v-6.44Zm0,10.7h7.22v26.08h-7.22v-26.08Z"/>
        <path class="cls-10" d="m697.96,535.8c.55,2.08,2.24,3.24,4.94,3.24s3.64-.96,3.64-2.54c0-1.67-1.12-2.33-4.86-3.25-8.5-2.09-9.89-4.72-9.89-8.4s2.71-7.9,10.58-7.9,10.59,4.32,10.81,7.85h-6.87c-.23-.96-.87-2.78-4.27-2.78-2.39,0-3.16,1.06-3.16,2.23,0,1.3.81,1.92,5.04,2.91,8.7,2.02,9.93,5.01,9.93,8.83,0,4.32-3.29,8.25-11.24,8.25s-11.19-3.82-11.76-8.44h7.09Z"/>
        <path class="cls-10" d="m718.64,506.86h7.22v6.44h-7.22v-6.44Zm0,10.7h7.22v26.08h-7.22v-26.08Z"/>
        <path class="cls-10" d="m756.6,530.55c0,7.89-4.72,13.69-12.98,13.69s-12.81-5.77-12.81-13.56,4.87-13.73,13.15-13.73c7.68,0,12.64,5.42,12.64,13.59Zm-18.46.05c0,5.02,2.16,7.99,5.64,7.99s5.5-2.98,5.5-7.95c0-5.46-2-8.04-5.6-8.04-3.35,0-5.54,2.48-5.54,7.99Z"/>
        <path class="cls-10" d="m761.61,524.13c0-2.22,0-4.64-.05-6.57h6.99c.15.67.24,2.48.28,3.32.89-1.64,3-3.93,7.57-3.93,5.24,0,8.64,3.54,8.64,10.09v16.59h-7.22v-15.79c0-2.93-.98-5.06-4.16-5.06s-4.82,1.71-4.82,6.31v14.53h-7.22v-19.51Z"/>
        <path class="cls-10" d="m833.64,530.61c0-5.93.09-12.57.25-16.5h-.24c-1.63,7.09-5.11,18.66-8.44,29.53h-6.4c-2.53-9.5-6.12-22.69-7.65-29.62h-.23c.3,4.08.44,11.22.44,17.18v12.44h-6.85v-34.74h11.18c2.71,9.08,5.74,20.46,6.79,25.64h.06c.85-4.57,4.67-16.74,7.56-25.64h10.77v34.74h-7.25v-13.03Z"/>
        <path class="cls-10" d="m868.94,536.9c0,2.48.2,6.11.35,6.74h-6.9c-.2-.52-.35-1.89-.36-2.55-.95,1.46-2.72,3.15-7.33,3.15-6.29,0-8.94-4.13-8.94-8.18,0-5.94,4.77-8.68,12.42-8.68h3.72v-1.59c0-1.85-.67-3.68-4.02-3.68-3.05,0-3.71,1.29-4.05,3.18h-6.87c.39-4.63,3.26-8.38,11.19-8.34,6.99.04,10.79,2.77,10.79,8.98v10.96Zm-7.04-5.13h-2.94c-4.35,0-5.96,1.33-5.96,3.84,0,1.89,1.16,3.48,3.75,3.48,4.59,0,5.15-3.19,5.15-6.64v-.68Z"/>
        <path class="cls-10" d="m875.47,524.63c0-2.59,0-4.89-.05-7.07h7.08c.09.58.19,3.17.19,4.58,1.15-2.98,3.93-5.16,8.37-5.18v6.89c-5.24-.13-8.37,1.27-8.37,8.42v11.37h-7.22v-19Z"/>
        <path class="cls-10" d="m902.34,528.56c1.92-2.6,5.38-6.65,8.98-11h8.28l-9.09,9.85,9.95,16.23h-8.18l-6.6-11.6-3.34,3.23v8.37h-7.22v-36.78h7.22v21.7Z"/>
        <path class="cls-10" d="m928.28,532.14c0,3.26,1.64,6.45,5.23,6.45,3.01,0,3.87-1.21,4.55-2.78h7.23c-.93,3.19-3.77,8.43-11.97,8.43s-12.32-6.42-12.32-13.27c0-8.18,4.2-14.02,12.58-14.02,8.96,0,12,6.48,12,12.99,0,.88,0,1.46-.09,2.2h-17.21Zm10.07-4.43c-.05-3.04-1.26-5.59-4.78-5.59s-4.85,2.39-5.14,5.59h9.92Z"/>
        <path class="cls-10" d="m948.01,517.56h4.02v-7.06h7.22v7.06h5.11v5.43h-5.11v12.87c0,1.98.6,2.75,2.76,2.75.4,0,1.1,0,1.64-.08v4.97c-1.43.49-3.4.5-4.85.5-5.09,0-6.77-2.72-6.77-7.28v-13.72h-4.02v-5.43Z"/>
        <path class="cls-10" d="m968.38,506.86h7.22v6.44h-7.22v-6.44Zm0,10.7h7.22v26.08h-7.22v-26.08Z"/>
        <path class="cls-10" d="m982.13,524.13c0-2.22,0-4.64-.05-6.57h6.99c.15.67.24,2.48.28,3.32.89-1.64,3-3.93,7.57-3.93,5.24,0,8.64,3.54,8.64,10.09v16.59h-7.22v-15.79c0-2.93-.98-5.06-4.16-5.06s-4.82,1.71-4.82,6.31v14.53h-7.22v-19.51Z"/>
        <path class="cls-10" d="m1035.68,540.46c0,8.37-3.09,13.67-12.97,13.67s-11.4-5.32-11.65-8.26h7.36c.51,1.79,1.83,3.01,4.61,3.01,4.69,0,5.57-2.86,5.57-7.97v-1.25c-1.36,2.25-3.52,3.66-7.35,3.66-6.87,0-10.78-5.63-10.78-12.64,0-8.15,4.88-13.73,11.4-13.73,4.47,0,6.34,2.11,6.73,3.32.05-.71.23-2.29.28-2.72h6.85c-.04,2.33-.06,4.98-.06,7.48v15.42Zm-17.79-10.1c0,4.49,2.24,7.13,5.44,7.13,4.35,0,5.51-2.98,5.51-7.36s-.77-7.4-5.36-7.4c-3.13,0-5.59,2.42-5.59,7.63Z"/>
      </g>
      <g class="cls-6">
        <path class="cls-10" d="m700.58,428.62c.79,3.49,3.29,5.02,7.32,5.02s5.72-1.58,5.72-4.13c0-2.83-1.67-4.05-7.62-5.44-9.45-2.22-11.79-5.66-11.79-10.35,0-6.05,4.53-10.17,12.75-10.17,9.22,0,12.9,4.96,13.4,10.04h-7.57c-.36-2.14-1.54-4.46-6.02-4.46-3.05,0-4.89,1.26-4.89,3.73s1.48,3.4,7.09,4.7c10.1,2.38,12.32,6.14,12.32,11.04,0,6.34-4.8,10.69-13.98,10.69s-13.46-4.34-14.29-10.67h7.57Z"/>
        <path class="cls-10" d="m731.05,412.73c2.69,9,5.04,17.03,5.46,19.44h.05c.56-2.63,2.09-8.47,5.21-19.44h7.19l-8.76,26.83c-2.49,7.5-4.57,9.74-10.84,9.74-.64,0-2.13-.05-3.38-.2v-5.8c.49.06,1.28.11,1.87.11,2.65,0,3.99-.92,4.96-3.8l-9.49-26.88h7.74Z"/>
        <path class="cls-10" d="m757.71,430.97c.55,2.08,2.24,3.24,4.94,3.24s3.64-.96,3.64-2.54c0-1.67-1.12-2.33-4.86-3.25-8.5-2.09-9.89-4.72-9.89-8.4s2.71-7.9,10.58-7.9,10.59,4.32,10.81,7.85h-6.87c-.23-.96-.87-2.78-4.27-2.78-2.39,0-3.16,1.06-3.16,2.23,0,1.3.81,1.92,5.04,2.91,8.7,2.02,9.93,5.01,9.93,8.83,0,4.32-3.29,8.25-11.24,8.25s-11.19-3.82-11.76-8.44h7.09Z"/>
        <path class="cls-10" d="m775.55,412.73h4.02v-7.06h7.22v7.06h5.11v5.43h-5.11v12.87c0,1.98.6,2.75,2.76,2.75.4,0,1.1,0,1.64-.08v4.97c-1.43.49-3.4.5-4.85.5-5.09,0-6.77-2.72-6.77-7.28v-13.72h-4.02v-5.43Z"/>
        <path class="cls-10" d="m801.61,427.31c0,3.26,1.64,6.45,5.23,6.45,3.01,0,3.87-1.21,4.55-2.78h7.23c-.93,3.19-3.77,8.43-11.97,8.43s-12.32-6.42-12.32-13.27c0-8.18,4.2-14.02,12.58-14.02,8.96,0,12,6.48,12,12.99,0,.88,0,1.46-.09,2.2h-17.21Zm10.07-4.43c-.05-3.04-1.26-5.59-4.78-5.59s-4.85,2.39-5.14,5.59h9.92Z"/>
        <path class="cls-10" d="m823.98,419.45c0-2.25,0-4.49-.05-6.72h6.9c.09.63.24,2.09.28,3.11,1.32-1.94,3.42-3.71,7.25-3.71s5.81,1.94,6.73,3.97c1.53-2.13,3.78-3.97,8.04-3.97,4.54,0,8.27,2.79,8.27,9.58v17.11h-7.04v-16.23c0-2.36-.85-4.66-3.81-4.66s-4.27,1.98-4.27,5.98v14.91h-7.08v-15.96c0-2.7-.67-4.89-3.75-4.89s-4.33,1.8-4.33,6.28v14.57h-7.13v-19.36Z"/>
        <path class="cls-10" d="m914.01,417.24l-9.25,12.5c-4.02,5.45-6.82,9.57-14.46,9.57s-11.25-4.94-11.25-9.68c0-5.04,3.38-7.96,9.6-10.92,3.54-1.24,7.01-3.23,7.01-6.54,0-1.88-1.01-3.62-3.28-3.62-2.02,0-3.31,1.48-3.31,3.74,0,2.09,1.74,3.76,3.74,5.66l21.39,20.87h-9.28l-18.38-18.04c-2.12-2.1-4.08-4.73-4.08-7.96,0-5.27,3.87-9.25,9.88-9.25s9.65,4.05,9.65,8.47-3.46,7.28-9.79,10.23c-4.49,1.81-5.79,4.28-5.79,6.5s1.48,4.48,4.71,4.48c3.68,0,5.16-1.9,9.38-7.65l6.13-8.36h7.36Z"/>
        <path class="cls-10" d="m932.54,404.07h13.77c10.12,0,16.73,6.66,16.73,16.93s-6.42,17.8-17.05,17.8h-13.46v-34.74Zm7.51,28.67h5.63c6.66,0,9.6-4.95,9.6-11.72,0-5.67-2.76-10.88-9.56-10.88h-5.68v22.6Z"/>
        <path class="cls-10" d="m989.91,432.07c0,2.48.2,6.11.35,6.74h-6.9c-.2-.52-.35-1.89-.36-2.55-.95,1.46-2.72,3.15-7.33,3.15-6.29,0-8.94-4.13-8.94-8.18,0-5.94,4.77-8.68,12.42-8.68h3.72v-1.59c0-1.85-.67-3.68-4.02-3.68-3.05,0-3.71,1.29-4.05,3.18h-6.87c.39-4.63,3.26-8.38,11.19-8.34,6.99.04,10.79,2.77,10.79,8.98v10.96Zm-7.04-5.13h-2.94c-4.35,0-5.96,1.33-5.96,3.84,0,1.89,1.16,3.48,3.75,3.48,4.59,0,5.15-3.19,5.15-6.64v-.68Z"/>
        <path class="cls-10" d="m993.4,412.73h4.02v-7.06h7.22v7.06h5.11v5.43h-5.11v12.87c0,1.98.6,2.75,2.76,2.75.4,0,1.1,0,1.64-.08v4.97c-1.43.49-3.4.5-4.85.5-5.09,0-6.77-2.72-6.77-7.28v-13.72h-4.02v-5.43Z"/>
        <path class="cls-10" d="m1035.55,432.07c0,2.48.2,6.11.35,6.74h-6.9c-.2-.52-.35-1.89-.36-2.55-.95,1.46-2.72,3.15-7.33,3.15-6.29,0-8.94-4.13-8.94-8.18,0-5.94,4.77-8.68,12.42-8.68h3.72v-1.59c0-1.85-.67-3.68-4.02-3.68-3.05,0-3.71,1.29-4.05,3.18h-6.87c.39-4.63,3.26-8.38,11.19-8.34,6.99.04,10.79,2.77,10.79,8.98v10.96Zm-7.04-5.13h-2.94c-4.35,0-5.96,1.33-5.96,3.84,0,1.89,1.16,3.48,3.75,3.48,4.59,0,5.15-3.19,5.15-6.64v-.68Z"/>
      </g>
      <g class="cls-6">
        <path class="cls-10" d="m770.13,307.66h-16.61v8.83h18.33l-.89,6.16h-24.72v-34.74h24.63v6.16h-17.34v7.44h16.61v6.16Z"/>
        <path class="cls-10" d="m776.32,303.13c0-2.22,0-4.64-.05-6.57h6.99c.15.67.24,2.48.28,3.32.89-1.64,3-3.93,7.57-3.93,5.24,0,8.64,3.54,8.64,10.09v16.59h-7.22v-15.79c0-2.93-.98-5.06-4.16-5.06s-4.82,1.71-4.82,6.31v14.53h-7.22v-19.51Z"/>
        <path class="cls-10" d="m829.87,319.46c0,8.37-3.09,13.67-12.97,13.67s-11.4-5.32-11.65-8.26h7.36c.51,1.79,1.83,3.01,4.61,3.01,4.69,0,5.57-2.86,5.57-7.97v-1.25c-1.36,2.25-3.52,3.66-7.35,3.66-6.87,0-10.78-5.63-10.78-12.64,0-8.15,4.88-13.73,11.4-13.73,4.47,0,6.34,2.11,6.73,3.32.05-.71.23-2.29.28-2.72h6.85c-.04,2.33-.06,4.98-.06,7.48v15.42Zm-17.79-10.1c0,4.49,2.24,7.13,5.44,7.13,4.35,0,5.51-2.98,5.51-7.36s-.77-7.4-5.36-7.4c-3.13,0-5.59,2.42-5.59,7.63Z"/>
        <path class="cls-10" d="m857.45,315.9c0,2.48.2,6.11.35,6.74h-6.9c-.2-.52-.35-1.89-.36-2.55-.95,1.46-2.72,3.15-7.33,3.15-6.29,0-8.94-4.13-8.94-8.18,0-5.94,4.77-8.68,12.42-8.68h3.72v-1.59c0-1.85-.67-3.68-4.02-3.68-3.05,0-3.71,1.29-4.05,3.18h-6.87c.39-4.63,3.26-8.38,11.19-8.34,6.99.04,10.79,2.77,10.79,8.98v10.97Zm-7.04-5.13h-2.94c-4.35,0-5.96,1.33-5.96,3.84,0,1.89,1.16,3.48,3.75,3.48,4.59,0,5.15-3.19,5.15-6.64v-.68Z"/>
        <path class="cls-10" d="m887.71,319.46c0,8.37-3.09,13.67-12.97,13.67s-11.4-5.32-11.65-8.26h7.36c.51,1.79,1.83,3.01,4.61,3.01,4.69,0,5.57-2.86,5.57-7.97v-1.25c-1.36,2.25-3.52,3.66-7.35,3.66-6.87,0-10.78-5.63-10.78-12.64,0-8.15,4.88-13.73,11.4-13.73,4.47,0,6.34,2.11,6.73,3.32.05-.71.23-2.29.28-2.72h6.85c-.04,2.33-.06,4.98-.06,7.48v15.42Zm-17.79-10.1c0,4.49,2.24,7.13,5.44,7.13,4.35,0,5.51-2.98,5.51-7.36s-.77-7.4-5.36-7.4c-3.13,0-5.59,2.42-5.59,7.63Z"/>
        <path class="cls-10" d="m900.06,311.14c0,3.26,1.64,6.45,5.23,6.45,3.01,0,3.87-1.21,4.55-2.78h7.23c-.93,3.19-3.77,8.43-11.97,8.43s-12.32-6.42-12.32-13.27c0-8.18,4.2-14.02,12.58-14.02,8.96,0,12,6.48,12,12.99,0,.88,0,1.46-.09,2.2h-17.21Zm10.07-4.43c-.05-3.04-1.26-5.59-4.78-5.59s-4.85,2.39-5.14,5.59h9.92Z"/>
        <path class="cls-10" d="m922.43,303.28c0-2.25,0-4.49-.05-6.72h6.9c.09.63.24,2.09.28,3.11,1.32-1.94,3.42-3.71,7.25-3.71s5.81,1.94,6.73,3.97c1.53-2.13,3.78-3.97,8.04-3.97,4.54,0,8.27,2.79,8.27,9.58v17.11h-7.04v-16.23c0-2.36-.85-4.66-3.81-4.66s-4.27,1.98-4.27,5.98v14.91h-7.08v-15.96c0-2.7-.67-4.89-3.75-4.89s-4.33,1.8-4.33,6.28v14.57h-7.13v-19.36Z"/>
        <path class="cls-10" d="m972.06,311.14c0,3.26,1.64,6.45,5.23,6.45,3.01,0,3.87-1.21,4.55-2.78h7.23c-.93,3.19-3.77,8.43-11.97,8.43s-12.32-6.42-12.32-13.27c0-8.18,4.2-14.02,12.58-14.02,8.96,0,12,6.48,12,12.99,0,.88,0,1.46-.09,2.2h-17.21Zm10.07-4.43c-.05-3.04-1.26-5.59-4.78-5.59s-4.85,2.39-5.14,5.59h9.92Z"/>
        <path class="cls-10" d="m994.47,303.13c0-2.22,0-4.64-.05-6.57h6.99c.15.67.24,2.48.28,3.32.89-1.64,3-3.93,7.57-3.93,5.24,0,8.64,3.54,8.64,10.09v16.59h-7.22v-15.79c0-2.93-.98-5.06-4.16-5.06s-4.82,1.71-4.82,6.31v14.53h-7.22v-19.51Z"/>
        <path class="cls-10" d="m1021.26,296.56h4.02v-7.06h7.22v7.06h5.11v5.43h-5.11v12.87c0,1.98.6,2.75,2.76,2.75.4,0,1.1,0,1.64-.08v4.97c-1.43.49-3.4.5-4.85.5-5.09,0-6.77-2.72-6.77-7.28v-13.72h-4.02v-5.43Z"/>
      </g>
      <path class="cls-13" d="m73.62,255.17h14.31v97.66h-14.31c-3.86,0-7-3.14-7-7v-83.66c0-3.86,3.14-7,7-7Z"/>
      <g>
        <path class="cls-11" d="m71.1,288.95c-.15,0-.31-.03-.46-.11-6.45-3.16-21.46-13.67-21.46-42.99,0-18.82,6.39-29.59,11.76-35.31,5.87-6.26,11.7-7.99,11.95-8.06.55-.16,1.12.16,1.28.71s-.16,1.13-.71,1.29c-.06.02-5.62,1.69-11.1,7.57-5.07,5.45-11.11,15.73-11.11,33.8,0,28.16,14.19,38.14,20.3,41.13.52.25.73.88.48,1.39-.18.37-.55.58-.93.58Z"/>
        <polygon class="cls-11" points="61.05 291.77 60.56 289.75 70.51 287.31 67.35 277.55 69.33 276.91 73.18 288.79 61.05 291.77"/>
      </g>
      <g>
        <path class="cls-11" d="m71.1,400.24c-.15,0-.31-.03-.46-.11-6.45-3.16-21.46-13.67-21.46-42.99,0-18.82,6.39-29.59,11.76-35.31,5.87-6.26,11.7-7.99,11.95-8.06.55-.16,1.12.16,1.28.71s-.16,1.13-.71,1.29c-.06.02-5.62,1.69-11.1,7.57-5.07,5.45-11.11,15.73-11.11,33.8,0,28.16,14.19,38.14,20.3,41.13.52.25.73.88.48,1.39-.18.37-.55.58-.93.58Z"/>
        <polygon class="cls-11" points="61.05 403.05 60.56 401.03 70.51 398.59 67.35 388.84 69.33 388.2 73.18 400.08 61.05 403.05"/>
      </g>
    </g>
  </g>
</svg>