<?xml version="1.0" encoding="UTF-8"?>
<svg xmlns="http://www.w3.org/2000/svg" xmlns:xlink="http://www.w3.org/1999/xlink" viewBox="0 0 687.5 1136.89">
  <defs>
    <style>
      .cls-1 {
        font-family: AcuminConcept-MediumItalic, 'Acumin Variable Concept';
        font-size: 20.71px;
        font-style: italic;
        font-variation-settings: 'wght' 500, 'wdth' 100, 'slnt' 12;
        font-weight: 500;
      }

      .cls-1, .cls-2 {
        fill: #f7cd00;
      }

      .cls-3 {
        letter-spacing: 0em;
      }

      .cls-4, .cls-5 {
        letter-spacing: .05em;
      }

      .cls-6 {
        letter-spacing: .05em;
      }

      .cls-7, .cls-5, .cls-8 {
        fill: #fff;
      }

      .cls-9 {
        fill: #3a63b3;
      }

      .cls-10 {
        letter-spacing: 0em;
      }

      .cls-11 {
        fill: url(#_未命名漸層_5);
      }

      .cls-12 {
        letter-spacing: -.2em;
      }

      .cls-13 {
        fill: url(#_未命名漸層_5-2);
      }

      .cls-14 {
        fill: url(#_未命名漸層_5-5);
      }

      .cls-15 {
        fill: url(#_未命名漸層_5-3);
      }

      .cls-16 {
        fill: url(#_未命名漸層_5-4);
      }

      .cls-17 {
        letter-spacing: .02em;
      }

      .cls-18 {
        mix-blend-mode: overlay;
      }

      .cls-19 {
        fill: none;
        stroke: #f7cd00;
        stroke-miterlimit: 10;
        stroke-width: 2px;
      }

      .cls-20 {
        letter-spacing: 0em;
      }

      .cls-21 {
        letter-spacing: .01em;
      }

      .cls-22 {
        letter-spacing: .02em;
      }

      .cls-5, .cls-8 {
        font-family: SourceHanSansTC-Bold-B5pc-H, 'Source Han Sans TC';
        font-size: 46.72px;
        font-weight: 700;
      }

      .cls-23 {
        isolation: isolate;
      }

      .cls-24 {
        letter-spacing: 0em;
      }

      .cls-25 {
        letter-spacing: .01em;
      }

      .cls-26 {
        letter-spacing: 0em;
      }

      .cls-27 {
        letter-spacing: 0em;
      }
    </style>
    <linearGradient id="_未命名漸層_5" data-name="未命名漸層 5" x1="72.24" y1="-559" x2="1131.79" y2="-559" gradientTransform="translate(-522.21 1148.53)" gradientUnits="userSpaceOnUse">
      <stop offset="0" stop-color="#3a63b3"/>
      <stop offset=".71" stop-color="#000"/>
    </linearGradient>
    <linearGradient id="_未命名漸層_5-2" data-name="未命名漸層 5" x1="72.24" y1="-428.11" y2="-428.11" gradientTransform="translate(-391.32 1017.65)" xlink:href="#_未命名漸層_5"/>
    <linearGradient id="_未命名漸層_5-3" data-name="未命名漸層 5" x1="72.24" y1="-297.23" y2="-297.23" gradientTransform="translate(-260.44 886.76)" xlink:href="#_未命名漸層_5"/>
    <linearGradient id="_未命名漸層_5-4" data-name="未命名漸層 5" x1="72.24" y1="-166.34" y2="-166.34" gradientTransform="translate(-129.55 755.88)" xlink:href="#_未命名漸層_5"/>
    <linearGradient id="_未命名漸層_5-5" data-name="未命名漸層 5" x1="72.24" y1="-35.46" y2="-35.46" gradientTransform="translate(1.33 624.99)" xlink:href="#_未命名漸層_5"/>
  </defs>
  <g class="cls-23">
    <g id="_圖層_1" data-name="圖層 1">
      <rect class="cls-9" x="-237.71" y="609.38" width="1010.35" height="9.51" rx="4.75" ry="4.75" transform="translate(881.6 346.67) rotate(90)"/>
      <g>
        <line class="cls-19" x1="268.86" y1="818.9" x2="650.33" y2="818.9"/>
        <rect class="cls-2" x="260.47" y="812.02" width="13.75" height="13.75" rx="6.87" ry="6.87" transform="translate(-551.55 1086.24) rotate(-90)"/>
      </g>
      <g>
        <line class="cls-19" x1="268.86" y1="886.17" x2="388.56" y2="886.17"/>
        <rect class="cls-2" x="260.47" y="879.3" width="13.75" height="13.75" rx="6.87" ry="6.87" transform="translate(-618.83 1153.51) rotate(-90)"/>
      </g>
      <g>
        <line class="cls-19" x1="268.86" y1="953.45" x2="388.56" y2="953.45"/>
        <rect class="cls-2" x="260.47" y="946.57" width="13.75" height="13.75" rx="6.87" ry="6.87" transform="translate(-686.11 1220.79) rotate(-90)"/>
      </g>
      <g>
        <line class="cls-19" x1="268.86" y1="1020.72" x2="388.56" y2="1020.72"/>
        <rect class="cls-2" x="260.47" y="1013.85" width="13.75" height="13.75" rx="6.87" ry="6.87" transform="translate(-753.38 1288.06) rotate(-90)"/>
      </g>
      <g>
        <line class="cls-19" x1="268.86" y1="1088" x2="519.44" y2="1088"/>
        <rect class="cls-2" x="260.47" y="1081.12" width="13.75" height="13.75" rx="6.87" ry="6.87" transform="translate(-820.66 1355.34) rotate(-90)"/>
      </g>
      <g>
        <line class="cls-19" x1="267.65" y1="485.02" x2="267.65" y2="793.42"/>
        <polygon class="cls-2" points="259.47 786.8 260.94 785.43 267.65 792.66 274.36 785.43 275.83 786.8 267.65 795.59 259.47 786.8"/>
      </g>
      <path class="cls-11" d="m-439.97,542.56H606.07c1.94,0,3.52,1.58,3.52,3.52v86.91c0,1.94-1.58,3.52-3.52,3.52H-439.97c-5.52,0-10-4.48-10-10v-73.95c0-5.52,4.48-10,10-10Z" transform="translate(-509.73 669.35) rotate(-90)"/>
      <path class="cls-9" d="m42.83,26.88h73.95c5.52,0,10,4.48,10,10v27.33H32.83v-27.33c0-5.52,4.48-10,10-10Z"/>
      <path class="cls-13" d="m-309.08,542.56H736.95c1.94,0,3.52,1.58,3.52,3.52v86.91c0,1.94-1.58,3.52-3.52,3.52H-309.08c-5.52,0-10-4.48-10-10v-73.95c0-5.52,4.48-10,10-10Z" transform="translate(-378.84 800.23) rotate(-90)"/>
      <path class="cls-9" d="m173.72,26.88h73.95c5.52,0,10,4.48,10,10v27.33h-93.95v-27.33c0-5.52,4.48-10,10-10Z"/>
      <path class="cls-15" d="m-178.2,542.56H867.84c1.94,0,3.52,1.58,3.52,3.52v86.91c0,1.94-1.58,3.52-3.52,3.52H-178.2c-5.52,0-10-4.48-10-10v-73.95c0-5.52,4.48-10,10-10Z" transform="translate(-247.96 931.12) rotate(-90)"/>
      <path class="cls-9" d="m304.6,26.88h73.95c5.52,0,10,4.48,10,10v27.33h-93.95v-27.33c0-5.52,4.48-10,10-10Z"/>
      <path class="cls-16" d="m-47.31,542.56H998.72c1.94,0,3.52,1.58,3.52,3.52v86.91c0,1.94-1.58,3.52-3.52,3.52H-47.31c-5.52,0-10-4.48-10-10v-73.95c0-5.52,4.48-10,10-10Z" transform="translate(-117.07 1062) rotate(-90)"/>
      <path class="cls-9" d="m435.49,26.88h73.95c5.52,0,10,4.48,10,10v27.33h-93.95v-27.33c0-5.52,4.48-10,10-10Z"/>
      <path class="cls-14" d="m83.57,542.56h1046.03c1.94,0,3.52,1.58,3.52,3.52v86.91c0,1.94-1.58,3.52-3.52,3.52H83.57c-5.52,0-10-4.48-10-10v-73.95c0-5.52,4.48-10,10-10Z" transform="translate(13.81 1192.89) rotate(-90)"/>
      <path class="cls-9" d="m566.37,26.88h73.95c5.52,0,10,4.48,10,10v27.33h-93.95v-27.33c0-5.52,4.48-10,10-10Z"/>
      <g>
        <rect class="cls-7" x="527.6" y="67.33" width="20.62" height="54.07" rx="2.44" ry="2.44"/>
        <text class="cls-1" transform="translate(530.94 70.72) rotate(90)"><tspan class="cls-21" x="0" y="0">A</tspan><tspan x="13.15" y="0">I/</tspan><tspan class="cls-10" x="27.29" y="0">B</tspan><tspan x="40.38" y="0">I</tspan></text>
      </g>
      <g>
        <path class="cls-2" d="m189.89,42.19c0-.17-.04-.33-.11-.49-3.4-6.96-14.73-23.14-46.35-23.14-20.29,0-31.9,6.89-38.07,12.68-6.74,6.32-8.61,12.62-8.68,12.88-.17.59.17,1.21.77,1.38.59.17,1.21-.17,1.39-.76.02-.06,1.82-6.05,8.17-11.96,5.87-5.46,16.96-11.97,36.43-11.97,30.35,0,41.12,15.3,44.33,21.88.27.56.94.79,1.5.51.4-.19.63-.59.63-1.01Z"/>
        <polygon class="cls-2" points="192.92 31.36 190.74 30.82 188.11 41.55 177.6 38.15 176.91 40.28 189.71 44.43 192.92 31.36"/>
      </g>
      <g>
        <path class="cls-2" d="m321.25,42.19c0-.17-.04-.33-.11-.49-3.4-6.96-14.73-23.14-46.35-23.14-20.29,0-31.9,6.89-38.07,12.68-6.74,6.32-8.61,12.62-8.68,12.88-.17.59.17,1.21.77,1.38.59.17,1.21-.17,1.39-.76.02-.06,1.82-6.05,8.17-11.96,5.87-5.46,16.96-11.97,36.43-11.97,30.35,0,41.12,15.3,44.33,21.88.27.56.94.79,1.5.51.4-.19.63-.59.63-1.01Z"/>
        <polygon class="cls-2" points="324.28 31.36 322.1 30.82 319.47 41.55 308.96 38.15 308.27 40.28 321.07 44.43 324.28 31.36"/>
      </g>
      <g>
        <path class="cls-2" d="m452.61,42.19c0-.17-.04-.33-.11-.49-3.4-6.96-14.73-23.14-46.35-23.14-20.29,0-31.9,6.89-38.07,12.68-6.74,6.32-8.61,12.62-8.68,12.88-.17.59.17,1.21.77,1.38.59.17,1.21-.17,1.39-.76.02-.06,1.82-6.05,8.17-11.96,5.87-5.46,16.96-11.97,36.43-11.97,30.35,0,41.12,15.3,44.33,21.88.27.56.94.79,1.5.51.4-.19.63-.59.63-1.01Z"/>
        <polygon class="cls-2" points="455.64 31.36 453.46 30.82 450.83 41.55 440.32 38.15 439.63 40.28 452.43 44.43 455.64 31.36"/>
      </g>
      <g>
        <path class="cls-2" d="m583.97,42.19c0-.17-.04-.33-.11-.49-3.4-6.96-14.73-23.14-46.35-23.14-20.29,0-31.9,6.89-38.07,12.68-6.74,6.32-8.61,12.62-8.68,12.88-.17.59.17,1.21.77,1.38.59.17,1.21-.17,1.39-.76.02-.06,1.82-6.05,8.17-11.96,5.87-5.46,16.96-11.97,36.43-11.97,30.35,0,41.12,15.3,44.33,21.88.27.56.94.79,1.5.51.4-.19.63-.59.63-1.01Z"/>
        <polygon class="cls-2" points="587 31.36 584.82 30.82 582.19 41.55 571.68 38.15 570.99 40.28 583.79 44.43 587 31.36"/>
      </g>
      <g>
        <rect class="cls-7" x="134.94" y="67.33" width="20.62" height="35.13" rx="2.44" ry="2.44"/>
        <text class="cls-1" transform="translate(138.28 70.72) rotate(90)"><tspan class="cls-22" x="0" y="0">C</tspan><tspan class="cls-25" x="14.08" y="0">X</tspan></text>
      </g>
      <g>
        <rect class="cls-7" x="264.31" y="67.33" width="20.62" height="35.13" rx="2.44" ry="2.44"/>
        <text class="cls-1" transform="translate(267.65 70.72) rotate(90)"><tspan class="cls-26" x="0" y="0">U</tspan><tspan class="cls-25" x="14.1" y="0">X</tspan></text>
      </g>
      <g>
        <rect class="cls-7" x="396.71" y="67.33" width="20.62" height="83.25" rx="2.44" ry="2.44"/>
        <text class="cls-1" transform="translate(400.05 71.36) rotate(90)"><tspan class="cls-3" x="0" y="0">M</tspan><tspan x="17.25" y="0">a</tspan><tspan class="cls-17" x="28.27" y="0">r</tspan><tspan class="cls-24" x="35.95" y="0">t</tspan><tspan class="cls-27" x="42.29" y="0">e</tspan><tspan class="cls-20" x="53.18" y="0">ch</tspan></text>
      </g>
      <g class="cls-18">
        <g>
          <path class="cls-7" d="m77.88,893.4v15.18c0,8.39-4.38,11.58-8.89,11.58-3.92,0-6.46-2.08-7.53-4.42-.88,2.34-3.35,5.42-7.92,5.42-5.94,0-10.4-4.67-10.4-12.06v-15.69h34.74Zm-28.94,7.37v6.78c0,4.06,1.7,5.9,4.85,5.9,2.8,0,4.59-1.81,4.59-5.94v-6.73h-9.43Zm15.23,6.94c0,3.57,1.6,5.04,4.04,5.04s3.86-1.93,3.86-4.83v-7.16h-7.9v6.94Z"/>
          <path class="cls-7" d="m50.72,949.07c-2.51,0-5.25,0-7.58.05v-7.08c.7-.1,2.1-.15,3.01-.2-2.62-1.55-3.61-3.85-3.61-7.18,0-5.31,3.23-8.71,9.7-8.71h16.99v7.21h-15.54c-2.88,0-5.26.89-5.26,4.02,0,3.29,1.75,4.65,6.92,4.65h13.88v7.22h-18.5Z"/>
          <path class="cls-7" d="m50.98,960.5c-2.08.55-3.24,2.24-3.24,4.94s.96,3.64,2.54,3.64c1.67,0,2.33-1.12,3.25-4.86,2.09-8.5,4.72-9.89,8.4-9.89s7.9,2.71,7.9,10.58-4.32,10.59-7.85,10.81v-6.87c.96-.23,2.78-.87,2.78-4.27,0-2.39-1.06-3.16-2.23-3.16-1.3,0-1.92.81-2.91,5.04-2.02,8.7-5.01,9.93-8.83,9.93-4.32,0-8.25-3.29-8.25-11.24s3.82-11.19,8.44-11.76v7.09Z"/>
          <path class="cls-7" d="m69.22,981.17v7.22h-26.08v-7.22h26.08Zm10.7,0v7.22h-6.44v-7.22h6.44Z"/>
          <path class="cls-7" d="m62.65,994.92c2.22,0,4.64,0,6.57-.05v6.99c-.67.15-2.48.24-3.32.28,1.64.89,3.93,3,3.93,7.57,0,5.24-3.54,8.64-10.09,8.64h-16.59v-7.22h15.79c2.93,0,5.06-.98,5.06-4.16s-1.71-4.82-6.31-4.82h-14.53v-7.22h19.51Z"/>
          <path class="cls-7" d="m54.63,1030.5c-3.26,0-6.45,1.64-6.45,5.23,0,3.01,1.21,3.87,2.78,4.55v7.23c-3.19-.93-8.43-3.77-8.43-11.97s6.42-12.32,13.27-12.32c8.18,0,14.02,4.2,14.02,12.58,0,8.96-6.48,12-12.99,12-.88,0-1.46,0-2.2-.09v-17.21Zm4.43,10.07c3.04-.05,5.59-1.26,5.59-4.78s-2.39-4.85-5.59-5.14v9.92Z"/>
          <path class="cls-7" d="m50.98,1058.09c-2.08.55-3.24,2.24-3.24,4.94s.96,3.64,2.54,3.64c1.67,0,2.33-1.12,3.25-4.86,2.09-8.5,4.72-9.89,8.4-9.89s7.9,2.71,7.9,10.58-4.32,10.59-7.85,10.81v-6.87c.96-.23,2.78-.87,2.78-4.27,0-2.39-1.06-3.16-2.23-3.16-1.3,0-1.92.81-2.91,5.04-2.02,8.7-5.01,9.93-8.83,9.93-4.32,0-8.25-3.29-8.25-11.24s3.82-11.19,8.44-11.76v7.09Z"/>
          <path class="cls-7" d="m50.98,1084.13c-2.08.55-3.24,2.24-3.24,4.94s.96,3.64,2.54,3.64c1.67,0,2.33-1.12,3.25-4.86,2.09-8.5,4.72-9.89,8.4-9.89s7.9,2.71,7.9,10.58-4.32,10.59-7.85,10.81v-6.87c.96-.23,2.78-.87,2.78-4.27,0-2.39-1.06-3.16-2.23-3.16-1.3,0-1.92.81-2.91,5.04-2.02,8.7-5.01,9.93-8.83,9.93-4.32,0-8.25-3.29-8.25-11.24s3.82-11.19,8.44-11.76v7.09Z"/>
        </g>
      </g>
      <g class="cls-18">
        <g>
          <path class="cls-7" d="m186.85,906.61c-6.48-1.4-11.2-6.28-11.2-14.98,0-11.01,7.8-16.22,17.68-16.22s18.06,5.37,18.06,16.58c0,9.25-5.43,13.73-11.24,14.58v-7.51c2.68-.73,5.35-2.59,5.35-7.31,0-6.19-5.57-8.59-11.89-8.59-5.87,0-12.06,2.08-12.06,8.79,0,4.9,3.28,6.45,5.31,7.1v7.55Z"/>
          <path class="cls-7" d="m183.72,934.16c-2.51,0-5.25,0-7.58.05v-7.08c.7-.1,2.1-.15,3.01-.2-2.62-1.55-3.61-3.85-3.61-7.18,0-5.31,3.23-8.71,9.7-8.71h16.99v7.21h-15.54c-2.88,0-5.26.89-5.26,4.02,0,3.29,1.75,4.65,6.92,4.65h13.88v7.22h-18.5Z"/>
          <path class="cls-7" d="m183.98,945.59c-2.08.55-3.24,2.24-3.24,4.94s.96,3.64,2.54,3.64c1.67,0,2.33-1.12,3.25-4.86,2.09-8.5,4.72-9.89,8.4-9.89s7.9,2.71,7.9,10.58-4.32,10.59-7.85,10.81v-6.87c.96-.23,2.78-.87,2.78-4.27,0-2.39-1.06-3.16-2.23-3.16-1.3,0-1.92.81-2.91,5.04-2.02,8.7-5.01,9.93-8.83,9.93-4.32,0-8.25-3.29-8.25-11.24s3.82-11.19,8.44-11.76v7.09Z"/>
          <path class="cls-7" d="m202.22,963.42v4.02h7.06v7.22h-7.06v5.11h-5.43v-5.11h-12.87c-1.98,0-2.75.6-2.75,2.76,0,.4,0,1.1.08,1.64h-4.97c-.49-1.43-.5-3.4-.5-4.85,0-5.09,2.72-6.77,7.28-6.77h13.72v-4.02h5.43Z"/>
          <path class="cls-7" d="m189.23,1008.01c-7.89,0-13.69-4.72-13.69-12.98s5.77-12.81,13.56-12.81,13.73,4.87,13.73,13.15c0,7.68-5.42,12.64-13.59,12.64Zm-.05-18.46c-5.02,0-7.99,2.16-7.99,5.64s2.98,5.5,7.95,5.5c5.46,0,8.04-2,8.04-5.6,0-3.35-2.48-5.54-7.99-5.54Z"/>
          <path class="cls-7" d="m195.5,1012.96c2.26,0,4.49,0,6.72-.05v6.9c-.63.09-2.09.24-3.11.28,1.94,1.32,3.71,3.42,3.71,7.25s-1.94,5.81-3.97,6.73c2.13,1.53,3.97,3.78,3.97,8.04,0,4.54-2.79,8.27-9.58,8.27h-17.11v-7.04h16.23c2.36,0,4.66-.85,4.66-3.81s-1.98-4.27-5.98-4.27h-14.91v-7.08h15.96c2.7,0,4.89-.67,4.89-3.75s-1.8-4.33-6.28-4.33h-14.57v-7.13h19.36Z"/>
          <path class="cls-7" d="m187.64,1062.59c-3.26,0-6.45,1.64-6.45,5.23,0,3.01,1.21,3.87,2.78,4.55v7.23c-3.19-.93-8.43-3.77-8.43-11.97s6.42-12.32,13.27-12.32c8.18,0,14.02,4.2,14.02,12.58,0,8.96-6.48,12-12.99,12-.88,0-1.46,0-2.2-.09v-17.21Zm4.43,10.07c3.04-.05,5.59-1.26,5.59-4.78s-2.39-4.85-5.59-5.14v9.92Z"/>
          <path class="cls-7" d="m195.15,1084.96c2.59,0,4.89,0,7.07-.05v7.08c-.58.09-3.17.19-4.58.19,2.98,1.15,5.16,3.93,5.18,8.37h-6.89c.14-5.24-1.27-8.37-8.42-8.37h-11.37v-7.22h19.01Z"/>
        </g>
      </g>
      <g class="cls-18">
        <g>
          <path class="cls-7" d="m323.68,832.86v-16.61h-8.83v18.33l-6.16-.89v-24.72h34.74v24.63h-6.16v-17.34h-7.44v16.61h-6.16Z"/>
          <path class="cls-7" d="m328.2,839.04c2.22,0,4.64,0,6.57-.05v6.99c-.67.15-2.48.24-3.32.28,1.64.89,3.93,3,3.93,7.57,0,5.24-3.54,8.64-10.09,8.64h-16.59v-7.22h15.79c2.93,0,5.06-.98,5.06-4.16s-1.71-4.82-6.31-4.82h-14.53v-7.22h19.51Z"/>
          <path class="cls-7" d="m311.87,892.6c-8.37,0-13.67-3.09-13.67-12.97s5.32-11.4,8.26-11.65v7.36c-1.79.51-3.01,1.83-3.01,4.61,0,4.69,2.86,5.57,7.97,5.57h1.25c-2.25-1.36-3.66-3.52-3.66-7.35,0-6.87,5.63-10.78,12.64-10.78,8.15,0,13.73,4.88,13.73,11.4,0,4.47-2.11,6.34-3.33,6.73.71.05,2.29.23,2.72.28v6.85c-2.33-.04-4.98-.06-7.48-.06h-15.42Zm10.1-17.79c-4.49,0-7.14,2.24-7.14,5.44,0,4.35,2.98,5.51,7.36,5.51s7.4-.77,7.4-5.36c0-3.13-2.42-5.59-7.63-5.59Z"/>
          <path class="cls-7" d="m315.43,920.17c-2.48,0-6.11.2-6.74.35v-6.9c.52-.2,1.89-.35,2.55-.36-1.46-.95-3.15-2.72-3.15-7.33,0-6.29,4.13-8.94,8.18-8.94,5.94,0,8.68,4.77,8.68,12.42v3.72h1.59c1.85,0,3.68-.67,3.68-4.02,0-3.05-1.29-3.71-3.18-4.05v-6.87c4.63.39,8.38,3.26,8.34,11.19-.04,6.99-2.77,10.79-8.98,10.79h-10.96Zm5.13-7.04v-2.94c0-4.35-1.33-5.96-3.84-5.96-1.89,0-3.48,1.16-3.48,3.75,0,4.59,3.19,5.15,6.64,5.15h.69Z"/>
          <path class="cls-7" d="m311.87,950.44c-8.37,0-13.67-3.09-13.67-12.97s5.32-11.4,8.26-11.65v7.36c-1.79.51-3.01,1.83-3.01,4.61,0,4.69,2.86,5.57,7.97,5.57h1.25c-2.25-1.36-3.66-3.52-3.66-7.35,0-6.87,5.63-10.78,12.64-10.78,8.15,0,13.73,4.88,13.73,11.4,0,4.47-2.11,6.34-3.33,6.73.71.05,2.29.23,2.72.28v6.85c-2.33-.04-4.98-.06-7.48-.06h-15.42Zm10.1-17.79c-4.49,0-7.14,2.24-7.14,5.44,0,4.35,2.98,5.51,7.36,5.51s7.4-.77,7.4-5.36c0-3.13-2.42-5.59-7.63-5.59Z"/>
          <path class="cls-7" d="m320.19,962.78c-3.26,0-6.45,1.64-6.45,5.23,0,3.01,1.21,3.87,2.78,4.55v7.23c-3.19-.93-8.43-3.77-8.43-11.97s6.42-12.32,13.27-12.32c8.18,0,14.02,4.2,14.02,12.58,0,8.96-6.48,12-12.99,12-.88,0-1.46,0-2.2-.09v-17.21Zm4.43,10.07c3.04-.05,5.59-1.26,5.59-4.78s-2.39-4.85-5.59-5.14v9.92Z"/>
          <path class="cls-7" d="m328.05,985.15c2.26,0,4.49,0,6.72-.05v6.9c-.63.09-2.09.24-3.11.28,1.94,1.32,3.71,3.42,3.71,7.25s-1.94,5.81-3.97,6.73c2.13,1.53,3.97,3.78,3.97,8.04,0,4.54-2.79,8.27-9.58,8.27h-17.11v-7.04h16.23c2.36,0,4.66-.85,4.66-3.81s-1.98-4.27-5.98-4.27h-14.91v-7.08h15.96c2.7,0,4.89-.67,4.89-3.75s-1.8-4.33-6.28-4.33h-14.57v-7.13h19.36Z"/>
          <path class="cls-7" d="m320.19,1034.78c-3.26,0-6.45,1.64-6.45,5.23,0,3.01,1.21,3.87,2.78,4.55v7.23c-3.19-.93-8.43-3.77-8.43-11.97s6.42-12.32,13.27-12.32c8.18,0,14.02,4.2,14.02,12.58,0,8.96-6.48,12-12.99,12-.88,0-1.46,0-2.2-.09v-17.21Zm4.43,10.07c3.04-.05,5.59-1.26,5.59-4.78s-2.39-4.85-5.59-5.14v9.92Z"/>
          <path class="cls-7" d="m328.2,1057.19c2.22,0,4.64,0,6.57-.05v6.99c-.67.15-2.48.24-3.32.28,1.64.89,3.93,3,3.93,7.57,0,5.24-3.54,8.64-10.09,8.64h-16.59v-7.22h15.79c2.93,0,5.06-.98,5.06-4.16s-1.71-4.82-6.31-4.82h-14.53v-7.22h19.51Z"/>
          <path class="cls-7" d="m334.77,1083.98v4.02h7.06v7.22h-7.06v5.11h-5.43v-5.11h-12.87c-1.98,0-2.75.6-2.75,2.76,0,.4,0,1.1.08,1.64h-4.97c-.49-1.43-.5-3.4-.5-4.85,0-5.09,2.72-6.77,7.28-6.77h13.72v-4.02h5.43Z"/>
        </g>
      </g>
      <g class="cls-18">
        <g>
          <path class="cls-7" d="m451.31,763.3c-3.49.79-5.02,3.29-5.02,7.32s1.58,5.72,4.13,5.72c2.83,0,4.05-1.67,5.44-7.62,2.22-9.45,5.66-11.79,10.35-11.79,6.05,0,10.17,4.53,10.17,12.75,0,9.22-4.96,12.9-10.04,13.4v-7.57c2.14-.36,4.46-1.54,4.46-6.02,0-3.05-1.26-4.89-3.73-4.89s-3.4,1.48-4.7,7.09c-2.38,10.1-6.14,12.32-11.04,12.32-6.34,0-10.69-4.8-10.69-13.98s4.34-13.46,10.67-14.29v7.57Z"/>
          <path class="cls-7" d="m467.2,793.77c-9,2.69-17.03,5.04-19.44,5.46v.05c2.63.56,8.47,2.09,19.44,5.21v7.19l-26.83-8.76c-7.5-2.49-9.74-4.57-9.74-10.84,0-.64.05-2.13.2-3.38h5.8c-.06.49-.11,1.28-.11,1.87,0,2.65.92,3.99,3.8,4.96l26.88-9.49v7.74Z"/>
          <path class="cls-7" d="m448.96,820.44c-2.08.55-3.24,2.24-3.24,4.94s.96,3.64,2.54,3.64c1.67,0,2.33-1.12,3.25-4.86,2.09-8.5,4.72-9.89,8.4-9.89s7.9,2.71,7.9,10.58-4.32,10.59-7.85,10.81v-6.87c.96-.23,2.78-.87,2.78-4.27,0-2.39-1.06-3.16-2.23-3.16-1.3,0-1.92.81-2.91,5.04-2.02,8.7-5.01,9.93-8.83,9.93-4.32,0-8.25-3.29-8.25-11.24s3.82-11.19,8.44-11.76v7.09Z"/>
          <path class="cls-7" d="m467.2,838.27v4.02h7.06v7.22h-7.06v5.11h-5.43v-5.11h-12.87c-1.98,0-2.75.6-2.75,2.76,0,.4,0,1.1.08,1.64h-4.97c-.49-1.43-.5-3.4-.5-4.85,0-5.09,2.72-6.77,7.28-6.77h13.72v-4.02h5.43Z"/>
          <path class="cls-7" d="m452.62,864.34c-3.26,0-6.45,1.64-6.45,5.23,0,3.01,1.21,3.87,2.78,4.55v7.23c-3.19-.93-8.43-3.77-8.43-11.97s6.42-12.32,13.27-12.32c8.18,0,14.02,4.2,14.02,12.58,0,8.96-6.48,12-12.99,12-.88,0-1.46,0-2.2-.09v-17.21Zm4.43,10.07c3.04-.05,5.59-1.26,5.59-4.78s-2.39-4.85-5.59-5.14v9.92Z"/>
          <path class="cls-7" d="m460.48,886.71c2.25,0,4.49,0,6.72-.05v6.9c-.63.09-2.09.24-3.11.28,1.94,1.32,3.71,3.42,3.71,7.25s-1.94,5.81-3.97,6.73c2.13,1.53,3.97,3.78,3.97,8.04,0,4.54-2.79,8.27-9.58,8.27h-17.11v-7.04h16.23c2.36,0,4.66-.85,4.66-3.81s-1.98-4.27-5.98-4.27h-14.91v-7.08h15.96c2.7,0,4.89-.67,4.89-3.75s-1.8-4.33-6.28-4.33h-14.57v-7.13h19.36Z"/>
          <path class="cls-7" d="m462.69,976.73l-12.5-9.25c-5.45-4.02-9.57-6.82-9.57-14.46s4.94-11.25,9.68-11.25c5.04,0,7.96,3.38,10.92,9.6,1.24,3.54,3.23,7.01,6.54,7.01,1.88,0,3.62-1.01,3.62-3.28,0-2.02-1.48-3.31-3.74-3.31-2.09,0-3.76,1.74-5.66,3.74l-20.87,21.39v-9.28l18.04-18.38c2.1-2.12,4.73-4.08,7.96-4.08,5.27,0,9.25,3.87,9.25,9.88s-4.05,9.65-8.47,9.65-7.28-3.46-10.23-9.79c-1.81-4.49-4.28-5.79-6.5-5.79s-4.48,1.48-4.48,4.71c0,3.68,1.9,5.16,7.65,9.38l8.36,6.13v7.36Z"/>
          <path class="cls-7" d="m475.86,995.27v13.77c0,10.12-6.66,16.73-16.93,16.73s-17.8-6.42-17.8-17.05v-13.46h34.74Zm-28.67,7.51v5.63c0,6.66,4.95,9.6,11.72,9.6,5.67,0,10.88-2.76,10.88-9.56v-5.68h-22.6Z"/>
          <path class="cls-7" d="m447.86,1052.63c-2.48,0-6.11.2-6.74.35v-6.9c.52-.2,1.89-.35,2.55-.36-1.46-.95-3.15-2.72-3.15-7.33,0-6.29,4.13-8.94,8.18-8.94,5.94,0,8.68,4.77,8.68,12.42v3.72h1.59c1.85,0,3.68-.67,3.68-4.02,0-3.05-1.29-3.71-3.18-4.05v-6.87c4.63.39,8.38,3.26,8.34,11.19-.04,6.99-2.77,10.79-8.98,10.79h-10.96Zm5.13-7.04v-2.94c0-4.35-1.33-5.96-3.84-5.96-1.89,0-3.48,1.16-3.48,3.75,0,4.59,3.19,5.15,6.64,5.15h.68Z"/>
          <path class="cls-7" d="m467.2,1056.12v4.02h7.06v7.22h-7.06v5.11h-5.43v-5.11h-12.87c-1.98,0-2.75.6-2.75,2.76,0,.4,0,1.1.08,1.64h-4.97c-.49-1.43-.5-3.4-.5-4.85,0-5.09,2.72-6.77,7.28-6.77h13.72v-4.02h5.43Z"/>
          <path class="cls-7" d="m447.86,1098.27c-2.48,0-6.11.2-6.74.35v-6.9c.52-.2,1.89-.35,2.55-.36-1.46-.95-3.15-2.72-3.15-7.33,0-6.29,4.13-8.94,8.18-8.94,5.94,0,8.68,4.77,8.68,12.42v3.72h1.59c1.85,0,3.68-.67,3.68-4.02,0-3.05-1.29-3.71-3.18-4.05v-6.87c4.63.39,8.38,3.26,8.34,11.19-.04,6.99-2.77,10.79-8.98,10.79h-10.96Zm5.13-7.04v-2.94c0-4.35-1.33-5.96-3.84-5.96-1.89,0-3.48,1.16-3.48,3.75,0,4.59,3.19,5.15,6.64,5.15h.68Z"/>
        </g>
      </g>
      <g class="cls-18">
        <g>
          <path class="cls-7" d="m608.14,650.36v13.77c0,10.12-6.66,16.73-16.93,16.73s-17.8-6.42-17.8-17.05v-13.46h34.74Zm-28.67,7.51v5.63c0,6.66,4.95,9.6,11.72,9.6,5.67,0,10.88-2.76,10.88-9.56v-5.68h-22.6Z"/>
          <path class="cls-7" d="m584.9,691.98c-3.26,0-6.45,1.64-6.45,5.23,0,3.01,1.21,3.87,2.78,4.55v7.23c-3.19-.93-8.43-3.77-8.43-11.97s6.42-12.32,13.27-12.32c8.18,0,14.02,4.2,14.02,12.58,0,8.96-6.48,12-12.99,12-.88,0-1.46,0-2.2-.09v-17.21Zm4.43,10.07c3.04-.05,5.59-1.26,5.59-4.78s-2.39-4.85-5.59-5.14v9.92Z"/>
          <path class="cls-7" d="m581.83,737.23c-4.34-.9-9.03-3.95-9.03-11.73s5.62-12.29,13.46-12.29,13.83,4.7,13.83,12.64c0,8.79-6.31,11.24-9.26,11.38v-7.05c2.12-.45,3.61-1.65,3.61-4.47,0-3.3-2.89-5.17-7.95-5.17-5.55,0-8.08,1.98-8.08,5.14,0,2.48,1.47,3.81,3.43,4.46v7.09Z"/>
          <path class="cls-7" d="m599.48,741.91v7.22h-26.08v-7.22h26.08Zm10.7,0v7.22h-6.44v-7.22h6.44Z"/>
          <path class="cls-7" d="m581.24,760.69c-2.08.55-3.24,2.24-3.24,4.94s.96,3.64,2.54,3.64c1.67,0,2.33-1.12,3.25-4.86,2.09-8.5,4.72-9.89,8.4-9.89s7.9,2.71,7.9,10.58-4.32,10.59-7.85,10.81v-6.87c.96-.23,2.78-.87,2.78-4.27,0-2.39-1.06-3.16-2.23-3.16-1.3,0-1.92.81-2.91,5.04-2.02,8.7-5.01,9.93-8.83,9.93-4.32,0-8.25-3.29-8.25-11.24s3.82-11.19,8.44-11.76v7.09Z"/>
          <path class="cls-7" d="m599.48,781.36v7.22h-26.08v-7.22h26.08Zm10.7,0v7.22h-6.44v-7.22h6.44Z"/>
          <path class="cls-7" d="m586.49,819.33c-7.89,0-13.69-4.72-13.69-12.98s5.77-12.81,13.56-12.81,13.73,4.87,13.73,13.15c0,7.68-5.42,12.64-13.59,12.64Zm-.05-18.46c-5.02,0-7.99,2.16-7.99,5.64s2.98,5.5,7.95,5.5c5.46,0,8.04-2,8.04-5.6,0-3.35-2.48-5.54-7.99-5.54Z"/>
          <path class="cls-7" d="m592.91,824.33c2.22,0,4.64,0,6.57-.05v6.99c-.67.15-2.48.24-3.32.28,1.64.89,3.93,3,3.93,7.57,0,5.24-3.54,8.64-10.09,8.64h-16.59v-7.22h15.79c2.93,0,5.06-.98,5.06-4.16s-1.71-4.82-6.31-4.82h-14.53v-7.22h19.51Z"/>
          <path class="cls-7" d="m586.43,896.36c5.93,0,12.57.09,16.5.25v-.24c-7.09-1.63-18.66-5.11-29.53-8.44v-6.4c9.5-2.53,22.69-6.12,29.62-7.65v-.23c-4.08.3-11.22.44-17.18.44h-12.44v-6.85h34.74v11.18c-9.08,2.71-20.46,5.74-25.64,6.79v.06c4.57.85,16.74,4.67,25.64,7.56v10.77h-34.74v-7.25h13.03Z"/>
          <path class="cls-7" d="m580.14,931.66c-2.48,0-6.11.2-6.74.35v-6.9c.52-.2,1.89-.35,2.55-.36-1.46-.95-3.15-2.72-3.15-7.33,0-6.29,4.13-8.94,8.18-8.94,5.94,0,8.68,4.77,8.68,12.42v3.72h1.59c1.85,0,3.68-.67,3.68-4.02,0-3.05-1.29-3.71-3.18-4.05v-6.87c4.63.39,8.38,3.26,8.34,11.19-.04,6.99-2.77,10.79-8.98,10.79h-10.96Zm5.13-7.04v-2.94c0-4.35-1.33-5.96-3.84-5.96-1.89,0-3.48,1.16-3.48,3.75,0,4.59,3.19,5.15,6.64,5.15h.68Z"/>
          <path class="cls-7" d="m592.41,938.2c2.59,0,4.89,0,7.07-.05v7.08c-.58.09-3.17.19-4.58.19,2.98,1.15,5.16,3.93,5.18,8.37h-6.89c.13-5.24-1.27-8.37-8.42-8.37h-11.37v-7.22h19Z"/>
          <path class="cls-7" d="m588.48,965.07c2.6,1.92,6.65,5.38,11,8.98v8.28l-9.85-9.09-16.23,9.95v-8.18l11.6-6.6-3.23-3.34h-8.37v-7.22h36.78v7.22h-21.7Z"/>
          <path class="cls-7" d="m584.9,991c-3.26,0-6.45,1.64-6.45,5.23,0,3.01,1.21,3.87,2.78,4.55v7.23c-3.19-.93-8.43-3.77-8.43-11.97s6.42-12.32,13.27-12.32c8.18,0,14.02,4.2,14.02,12.58,0,8.96-6.48,12-12.99,12-.88,0-1.46,0-2.2-.09v-17.21Zm4.43,10.07c3.04-.05,5.59-1.26,5.59-4.78s-2.39-4.85-5.59-5.14v9.92Z"/>
          <path class="cls-7" d="m599.48,1010.73v4.02h7.06v7.22h-7.06v5.11h-5.43v-5.11h-12.87c-1.98,0-2.75.6-2.75,2.76,0,.4,0,1.1.08,1.64h-4.97c-.49-1.43-.5-3.4-.5-4.85,0-5.09,2.72-6.77,7.28-6.77h13.72v-4.02h5.43Z"/>
          <path class="cls-7" d="m599.48,1031.1v7.22h-26.08v-7.22h26.08Zm10.7,0v7.22h-6.44v-7.22h6.44Z"/>
          <path class="cls-7" d="m592.91,1044.85c2.22,0,4.64,0,6.57-.05v6.99c-.67.15-2.48.24-3.32.28,1.64.89,3.93,3,3.93,7.57,0,5.24-3.54,8.64-10.09,8.64h-16.59v-7.22h15.79c2.93,0,5.06-.98,5.06-4.16s-1.71-4.82-6.31-4.82h-14.53v-7.22h19.51Z"/>
          <path class="cls-7" d="m576.58,1098.41c-8.37,0-13.67-3.09-13.67-12.97s5.32-11.4,8.26-11.65v7.36c-1.79.51-3.01,1.83-3.01,4.61,0,4.69,2.86,5.57,7.97,5.57h1.25c-2.25-1.36-3.66-3.52-3.66-7.35,0-6.87,5.63-10.78,12.64-10.78,8.15,0,13.73,4.88,13.73,11.4,0,4.47-2.11,6.34-3.32,6.73.71.05,2.29.23,2.72.28v6.85c-2.33-.04-4.98-.06-7.48-.06h-15.42Zm10.1-17.79c-4.49,0-7.13,2.24-7.13,5.44,0,4.35,2.98,5.51,7.36,5.51s7.4-.77,7.4-5.36c0-3.13-2.42-5.59-7.63-5.59Z"/>
        </g>
      </g>
      <text class="cls-5" transform="translate(54.44 121.86)"><tspan x="0" y="0">以</tspan><tspan x="0" y="49.05">會</tspan><tspan x="0" y="98.11">員</tspan><tspan x="0" y="147.16">資</tspan><tspan x="0" y="196.21">產</tspan><tspan x="0" y="245.27">為</tspan><tspan x="0" y="294.32">核</tspan><tspan x="0" y="343.37">心</tspan><tspan x="0" y="392.43">的</tspan><tspan x="0" y="441.48">商</tspan><tspan x="0" y="490.53">業</tspan><tspan x="0" y="539.59">目</tspan><tspan x="0" y="588.64">標</tspan><tspan x="0" y="637.69">共</tspan><tspan x="0" y="686.75">識</tspan><tspan x="0" y="735.8">凝</tspan><tspan x="0" y="784.85">聚</tspan></text>
      <text class="cls-8" transform="translate(185.32 121.86)"><tspan class="cls-4" x="0" y="0">設</tspan><tspan class="cls-4" x="0" y="49.05">計</tspan><tspan class="cls-4" x="0" y="98.11">會</tspan><tspan class="cls-4" x="0" y="147.16">員</tspan><tspan class="cls-4" x="0" y="196.21">制</tspan><tspan class="cls-4" x="0" y="245.27">誘</tspan><tspan class="cls-12" x="0" y="294.32">因</tspan><tspan class="cls-6" x="5.84" y="331.69">，</tspan><tspan class="cls-6" x="0" y="380.75">搭</tspan><tspan class="cls-6" x="0" y="429.8">建</tspan><tspan class="cls-6" x="0" y="478.85">有</tspan><tspan class="cls-6" x="0" y="527.91">效</tspan><tspan class="cls-6" x="0" y="576.96">會</tspan><tspan class="cls-6" x="0" y="626.01">員</tspan><tspan class="cls-6" x="0" y="675.07">價</tspan><tspan class="cls-6" x="0" y="724.12">值</tspan><tspan class="cls-6" x="0" y="773.17">路</tspan><tspan class="cls-6" x="0" y="822.23">徑</tspan></text>
      <text class="cls-8" transform="translate(316.21 121.86)"><tspan class="cls-4" x="0" y="0">落</tspan><tspan class="cls-4" x="0" y="49.05">實</tspan><tspan class="cls-4" x="0" y="98.11">會</tspan><tspan class="cls-4" x="0" y="147.16">員</tspan><tspan class="cls-12" x="0" y="196.21">制</tspan><tspan class="cls-6" x="5.84" y="233.59">，</tspan><tspan class="cls-6" x="0" y="282.64">持</tspan><tspan class="cls-6" x="0" y="331.69">續</tspan><tspan class="cls-6" x="0" y="380.75">優</tspan><tspan class="cls-6" x="0" y="429.8">化</tspan><tspan class="cls-6" x="0" y="478.85">溝</tspan><tspan class="cls-6" x="0" y="527.91">通</tspan><tspan class="cls-6" x="0" y="576.96">策</tspan><tspan class="cls-6" x="0" y="626.01">略</tspan></text>
      <text class="cls-8" transform="translate(447.09 121.86)"><tspan class="cls-4" x="0" y="0">強</tspan><tspan class="cls-4" x="0" y="49.05">化</tspan><tspan class="cls-4" x="0" y="98.11">數</tspan><tspan class="cls-4" x="0" y="147.16">據</tspan><tspan class="cls-4" x="0" y="196.21">搜</tspan><tspan class="cls-12" x="0" y="245.27">集</tspan><tspan class="cls-4" x="5.84" y="282.64">、</tspan><tspan class="cls-4" x="0" y="331.69">分</tspan><tspan class="cls-12" x="0" y="380.75">析</tspan><tspan class="cls-6" x="5.84" y="418.12">、</tspan><tspan class="cls-6" x="0" y="467.17">管</tspan><tspan class="cls-12" x="0" y="516.23">理</tspan><tspan class="cls-6" x="5.84" y="553.6">，</tspan><tspan class="cls-6" x="0" y="602.66">挖</tspan><tspan class="cls-6" x="0" y="651.71">掘</tspan><tspan class="cls-6" x="0" y="700.76">商</tspan><tspan class="cls-6" x="0" y="749.82">機</tspan></text>
      <text class="cls-5" transform="translate(577.98 121.86)"><tspan x="0" y="0">從</tspan><tspan x="0" y="49.05">數</tspan><tspan x="0" y="98.11">據</tspan><tspan x="0" y="147.16">決</tspan><tspan x="0" y="196.21">策</tspan><tspan x="0" y="245.27">驅</tspan><tspan x="0" y="294.32">動</tspan><tspan x="0" y="343.37">會</tspan><tspan x="0" y="392.43">員</tspan><tspan x="0" y="441.48">資</tspan><tspan x="0" y="490.53">產</tspan><tspan x="0" y="539.59">變</tspan><tspan x="0" y="588.64">現</tspan></text>
    </g>
  </g>
</svg>