<?xml version="1.0" encoding="utf-8"?>
<!-- Generator: Adobe Illustrator 25.2.3, SVG Export Plug-In . SVG Version: 6.00 Build 0)  -->
<svg version="1.1" id="圖層_1" xmlns="http://www.w3.org/2000/svg" xmlns:xlink="http://www.w3.org/1999/xlink" x="0px" y="0px"
	 viewBox="0 0 94.9 112.9" style="enable-background:new 0 0 94.9 112.9;" xml:space="preserve">
<style type="text/css">
	.st0{fill:#C9C9CA;}
	.st1{fill:#FFFFFF;}
</style>
<path class="st0" d="M14.7,101.6h65.4c-2.7-10.8-8.1-24.2-18.9-28c10.6-5.1,17.9-15.9,17.9-28.4c0-17.4-14.2-31.6-31.7-31.6
	S15.7,27.7,15.7,45.2c0,12.5,7.3,23.3,17.9,28.4C22.7,78.7,17.4,91.6,14.7,101.6z"/>
<circle class="st1" cx="25" cy="44.3" r="3.7"/>
<circle class="st1" cx="42.3" cy="44.3" r="3.7"/>
<path d="M64,39.6c-1.4-0.5-2.1-1.9-1.6-3.3c0.5-1.4,1.9-2,3.3-1.5s2.1,1.9,1.6,3.3C66.7,39.4,65.4,40.1,64,39.6z"/>
<path d="M62.2,21.3c1.5-4.2,6.1-6.4,10.3-4.9s6.4,6.1,4.9,10.3c-1.2,3.4-4.6,5.6-8,5.4l-0.9,2.4l-4.9-1.7L66,26l2.8,1
	c1.5,0.5,3.1-0.3,3.7-1.8c0.5-1.5-0.3-3.1-1.7-3.6c-1.5-0.5-3.1,0.2-3.7,1.6l0,0.1l-4.8-1.7L62.2,21.3L62.2,21.3z"/>
</svg>
