<svg xmlns="http://www.w3.org/2000/svg" xmlns:xlink="http://www.w3.org/1999/xlink" width="568.552" height="308.499" viewBox="0 0 568.552 308.499">
  <defs>
    <clipPath id="clip-path">
      <rect id="Rectangle_5" data-name="Rectangle 5" width="568.052" height="38.795" fill="none"/>
    </clipPath>
  </defs>
  <g id="Group_212" data-name="Group 212" transform="translate(-365.411 -176.506)">
    <g id="Group_11" data-name="Group 11" transform="translate(52 -132.494)">
      <path id="Path_27" data-name="Path 27" d="M98.154,51.315a5.694,5.694,0,0,1-4.523-2.129,17.887,17.887,0,0,1-2.972-5.054,45.563,45.563,0,0,1-1.939-6.117,42.229,42.229,0,0,0-1.551-5.187,2.17,2.17,0,0,1-.258-.931q0-.93.775-1c.518-.043.99-.067,1.423-.067a21.14,21.14,0,0,1,11.049,3.392,15.158,15.158,0,0,1,4.2,4.123,9.588,9.588,0,0,1,1.679,5.519,6.9,6.9,0,0,1-2.261,5.454,8.2,8.2,0,0,1-5.622,2m-9.822,32.85c.172-.267.343-.4.518-.4a2.081,2.081,0,0,0,.645-.133,16.868,16.868,0,0,0,6.98-4.589,35.065,35.065,0,0,0,4.974-7.115A61.442,61.442,0,0,0,105.2,63.35q1.614-4.588,3.232-9.11a80.3,80.3,0,0,1,3.618-8.579,27.741,27.741,0,0,1,4.974-7.115,1.477,1.477,0,0,1,1.034-.531c.343,0,.536.2.581.6s.065.688.065.865a39.477,39.477,0,0,1-1.874,12.1q-1.874,5.855-4.136,11.638t-4.135,11.638a39.888,39.888,0,0,0-1.874,12.237,21.527,21.527,0,0,0,.84,5.985q.84,2.926,1.809,5.85t1.811,5.852a21.669,21.669,0,0,1,.84,5.985,11.615,11.615,0,0,1-2.974,8.246,10.26,10.26,0,0,1-7.883,3.193,7.878,7.878,0,0,1-5.3-1.663q-1.939-1.667-1.939-5.254a63.9,63.9,0,0,1,.453-6.983q.45-4.055.516-8.179a42.232,42.232,0,0,0-.581-7.848,9.99,9.99,0,0,0-2.972-5.852A6.518,6.518,0,0,0,89.82,85.3a6.258,6.258,0,0,1-1.488-1.131M93.889,1.838q0-1.329,1.163-1.331a29.881,29.881,0,0,1,6.334.8,30.473,30.473,0,0,1,6.978,2.46,19.271,19.271,0,0,1,5.686,4.188,8.547,8.547,0,0,1,2.327,5.985,8.111,8.111,0,0,1-2.2,5.787,7.32,7.32,0,0,1-5.557,2.327q-1.939,0-4.523-2.46a35.314,35.314,0,0,1-4.846-5.785A45.77,45.77,0,0,1,95.44,7.092a13.929,13.929,0,0,1-1.551-5.254m90.848,5.586c.26-.265.731-.775,1.423-1.529S187.6,4.343,188.42,3.5s1.573-1.574,2.262-2.194S191.845.375,192.1.375s1.013.6,2.262,1.794,2.6,2.55,4.071,4.058,2.777,2.905,3.941,4.188,1.744,2.062,1.744,2.329a.979.979,0,0,1-.323.8,7.1,7.1,0,0,0-.581.531q-1.294,1.067-3.683,3.06T194.5,21.256a48.118,48.118,0,0,1-5.171,3.657,8.5,8.5,0,0,1-3.811,1.529q-1.294,0-1.293-1.2a39.863,39.863,0,0,1,.516-6.385,39.826,39.826,0,0,0,.518-6.383q0-1.862-.97-2.062a12.23,12.23,0,0,0-2.391-.2,12.44,12.44,0,0,0-1.809.133,3.958,3.958,0,0,0-1.681.665.586.586,0,0,1-.065.265.612.612,0,0,0-.063.267V32.561a2.566,2.566,0,0,0,.84,1.8,2.437,2.437,0,0,0,1.744.865H192.1a2.747,2.747,0,0,0,2.132-.931,13.328,13.328,0,0,0,1.551-2.127q.71-1.2,1.293-2.329a3.373,3.373,0,0,1,1.358-1.529,8.585,8.585,0,0,1,1.421,2q1.032,1.729,2,3.79t1.746,3.925a8.882,8.882,0,0,1,.775,2.394,5.055,5.055,0,0,1-.97,3.058,8.719,8.719,0,0,1-2.455,2.261,13.651,13.651,0,0,1-3.165,1.463,10.292,10.292,0,0,1-3.1.533H169.748A3.686,3.686,0,0,1,168,47.19a8.6,8.6,0,0,1-1.809-1.329,11.041,11.041,0,0,1-1.486-1.729,3.083,3.083,0,0,1-.646-1.729V11.28c0-.351-.28-.6-.84-.731a6.378,6.378,0,0,0-1.874-.133,14.83,14.83,0,0,0-2,.267,13.211,13.211,0,0,0-1.358.333l-.516.8a92.413,92.413,0,0,1-2.779,10.906,72.248,72.248,0,0,1-4.329,10.573,66.043,66.043,0,0,1-5.944,9.644,44.12,44.12,0,0,1-7.625,7.979,26.843,26.843,0,0,1-4.976,3.125,12.6,12.6,0,0,1-5.622,1.529,10.362,10.362,0,0,1-1.034-.065.65.65,0,0,1-.645-.733,1.309,1.309,0,0,1,.258-.665,4.331,4.331,0,0,1,.516-.665q3.748-4.52,6.72-8.844a63.146,63.146,0,0,0,5.1-8.846,44.468,44.468,0,0,0,3.232-9.575,53.447,53.447,0,0,0,1.1-11.306c0-.265.02-.641.065-1.129a6.289,6.289,0,0,0-.065-1.529,4.811,4.811,0,0,0-.388-1.331.923.923,0,0,0-.9-.531h-1.423a3.064,3.064,0,0,0-2.714,1.329A11.771,11.771,0,0,0,134.532,15a38.212,38.212,0,0,0-.97,4.256,19.348,19.348,0,0,1-1.228,4.256,8.815,8.815,0,0,1-2.39,3.325,6.343,6.343,0,0,1-4.265,1.329,8.848,8.848,0,0,1-4.718-1.4,4.6,4.6,0,0,1-2.261-4.19,9.218,9.218,0,0,1,1.1-4.523,22,22,0,0,1,2.65-3.79,41.477,41.477,0,0,1,3.36-3.458q1.807-1.662,3.23-3.258a8.589,8.589,0,0,0,.84-1.2q.582-.927,1.163-1.861a18.518,18.518,0,0,1,1.163-1.663c.388-.486.668-.731.841-.731q.775-.132.9.863t.258,2.262a7.889,7.889,0,0,0,.581,2.327,1.933,1.933,0,0,0,2,1.064q11.757,0,23.518-.4t23.52-.4ZM119.09,112.894q3.1-3.458,6.978-8.512t7.56-10.64q3.683-5.587,6.655-11.173a60.855,60.855,0,0,0,4.395-10.108,7.355,7.355,0,0,0,.128-1.6,1.428,1.428,0,0,0-1.421-1.064H120.123l-.388-.4.388-.4h30.24q1.419,0,1.486-2.659a56.186,56.186,0,0,0-.193-5.852,55.288,55.288,0,0,1-.193-5.852q.062-2.661,1.486-2.66a63.539,63.539,0,0,1,8.206.531q4.07.532,8.076,1.331a4.7,4.7,0,0,0,.646.265.522.522,0,0,1,.388.533,5.319,5.319,0,0,1-1.163,1.6,6.141,6.141,0,0,0-1.163,4.123V63.15a17.215,17.215,0,0,0,2.779,9.51,35.009,35.009,0,0,0,6.848,7.781,55.914,55.914,0,0,0,8.787,6.117q4.718,2.664,8.594,4.656l2.326,1.2q1.552.8,3.167,1.6a32.179,32.179,0,0,1,2.972,1.663,22.775,22.775,0,0,1,2,1.4.857.857,0,0,1,.516.8,4.311,4.311,0,0,1-1.421,2.327q-1.424,1.529-3.232,3.325t-3.488,3.458a11.281,11.281,0,0,0-2.2,2.725,8.219,8.219,0,0,0-.711,2.462,2.314,2.314,0,0,1-1.356,1.927l-.9-.267a12,12,0,0,1-1.358-1.661q-.582-.867-1.228-1.8-3.748-5.587-7.883-10.906t-7.883-10.906q-1.037-1.462-1.874-2.86a19.122,19.122,0,0,0-2-2.725c-.173-.177-.366-.353-.581-.533a.964.964,0,0,0-.581-.265c-.345,0-.561.222-.646.665a5.7,5.7,0,0,0-.128.931v33.915q0,1.462-1.939,2.394a19.744,19.744,0,0,1-4.458,1.463q-2.521.53-4.911.8t-3.425.267a1.159,1.159,0,0,1-1.293-1.329V91.879a1.818,1.818,0,0,0-.193-.8.721.721,0,0,0-.711-.4,5.8,5.8,0,0,0-3.3,1.663q-2,1.664-4.588,4.19t-5.557,5.454a78.7,78.7,0,0,1-6.139,5.452,38.615,38.615,0,0,1-6.4,4.19,13.573,13.573,0,0,1-6.2,1.662Zm72.5-55.994q.9.8,2.844,2.527t3.941,3.657q2,1.932,3.683,3.725a13.515,13.515,0,0,1,2.067,2.594l-.388.4H172.978a.578.578,0,0,1-.646-.665q0-.8,1.293-.8c.86,0,1.829.047,2.907.133s2.152.133,3.232.133a3.2,3.2,0,0,0,2.39-.8,14.638,14.638,0,0,0,1.809-2.86q.9-1.794,1.874-3.525a18.056,18.056,0,0,1,2.132-3.058,5.343,5.343,0,0,1,2.714-1.729Z" transform="translate(227 310.791)" fill="#070203" stroke="#000" stroke-linecap="round" stroke-width="1"/>
      <path id="Path_29" data-name="Path 29" d="M114.315,106.637q0,7.184.323,14.165t.323,14.165q0,8.648-.581,17.091a113.272,113.272,0,0,1-2.326,16.425,76.966,76.966,0,0,1-5.169,15.5A68.24,68.24,0,0,1,97.9,198.408q-.647.8-1.939,2.261T93.187,203.6a29.233,29.233,0,0,1-2.909,2.527,4.325,4.325,0,0,1-2.326,1.064c-.175,0-.3-.133-.388-.4a2.239,2.239,0,0,1-.13-.665,21.151,21.151,0,0,1,1.034-6.583q1.164-4.055,2.714-8.579t3.037-8.911a48.8,48.8,0,0,0,2-7.581,155.562,155.562,0,0,0,2.131-21.413q.322-10.775.325-21.548,0-8.776-.195-17.423t-.193-17.423q0-1.2,1.291-1.2a9.11,9.11,0,0,1,4.459,1.263Q106.3,98,108.695,99.456t4.846,2.727a10.875,10.875,0,0,0,5.039,1.263H140.55q1.032,0,1.356-1.4a13.733,13.733,0,0,0,.258-3.458q-.065-2.061-.323-4.456t-.323-4.454a13.654,13.654,0,0,1,.26-3.458q.32-1.4,1.356-1.4.775,0,3.683.267t6.074.665q3.166.4,5.686.8a14.224,14.224,0,0,1,2.65.533c.172.265-.11.821-.841,1.663a7.782,7.782,0,0,0-1.356,1.929,8.836,8.836,0,0,0-.258,1.927q-.132,1.664-.258,3.658t-.26,3.79q-.13,1.8-.128,2.327c0,.711.3,1.064.9,1.064h23.262a4.239,4.239,0,0,0,3.36-1.729,24.657,24.657,0,0,0,2.584-3.856q1.164-2.126,2.2-4.056a4.737,4.737,0,0,1,2.067-2.327,28.935,28.935,0,0,1,2.65,2.127q2,1.729,4.2,3.856t4.135,4.056q1.939,1.932,2.585,2.727a1.6,1.6,0,0,1-1.681,1.064H115.608l-.9.4Zm-5.427,101.081q1.809-.667,3.748-1.329t3.748-1.331q.9-.4,3.488-1.463t5.88-2.527q3.3-1.464,6.848-3.192t6.592-3.325a50.421,50.421,0,0,0,4.976-2.927q1.937-1.327,1.937-1.994a3.815,3.815,0,0,0-.065-.731,6.521,6.521,0,0,0-.193-.731q-.775-.93-2.584-3.392t-3.748-5.187q-1.939-2.726-3.36-5.187a8.8,8.8,0,0,1-1.423-3.392q0-.8.646-.8a6.64,6.64,0,0,1,4.459,1.907q2.131,1.909,4.393,4.145a52.143,52.143,0,0,0,4.718,4.143,8.632,8.632,0,0,0,5.427,1.909,2.106,2.106,0,0,0,1.163-.332c.343-.22.646-.416.9-.595a32.465,32.465,0,0,0,2.65-2.774q2.131-2.374,4.328-5.082t4.006-5.086a10.653,10.653,0,0,0,1.809-2.775.923.923,0,0,0-1.033-1.054H139.258a9.014,9.014,0,0,1-2.2-.461c-1.034-.308-12.289-.285-12.719-.461.343-.087,11.339-.4,11.942-.4H166.4a5.363,5.363,0,0,0,2.2-.931,26.061,26.061,0,0,0,3.165-2.261,28.44,28.44,0,0,0,2.844-2.66q1.227-1.327,1.228-1.994a1.044,1.044,0,0,0-1.163-1.2,39.306,39.306,0,0,0-5.106.333,38.993,38.993,0,0,1-5.1.333q-.9,0-1.291-2a39.72,39.72,0,0,1-.583-4.589q-.192-2.594-.193-4.988v-3.192q0-7.049.065-13.965t.063-13.965q0-1.329,1.551-1.331.9,0,3.49.067t5.362.333a29.866,29.866,0,0,1,4.976.865q2.2.6,2.2,1.529a2.192,2.192,0,0,1-.453,1.2c-.3.446-.538.8-.71,1.064,0,.356-.023.978-.065,1.862s-.065,1.8-.065,2.727v2.592a6.24,6.24,0,0,0,.13,1.6,2.955,2.955,0,0,0,.386.931,1.677,1.677,0,0,1,.26.93,2.2,2.2,0,0,1-.26.931,7.156,7.156,0,0,0-.386.931,30.906,30.906,0,0,0-.518,4.523q-.26,3.591-.386,7.779t-.13,7.914q0,3.726.13,4.788a7.055,7.055,0,0,0,1.809,2.66q1.677,1.864,3.811,3.856t4.2,3.791q2.066,1.794,2.844,2.46l.258.665-.386.531a21.505,21.505,0,0,0-3.167,2,35.459,35.459,0,0,0-2.649,2.527l-8.271,8.512a44.786,44.786,0,0,1-5.3,4.654,6.046,6.046,0,0,0-1.163.931,1.832,1.832,0,0,0-.516,1.331,1.378,1.378,0,0,0,1.033,1.329,11.7,11.7,0,0,0,4.136.4,34.827,34.827,0,0,1,4.265,0q5.942.27,12.017.6a56.509,56.509,0,0,1,11.889,1.927c.26.09.56.2.9.333a.734.734,0,0,1,.518.731,2.2,2.2,0,0,1-.776,1.331,51.671,51.671,0,0,0-4.2,5.119,31.189,31.189,0,0,0-3.167,5.785,15.989,15.989,0,0,0-.84,2.062,16.586,16.586,0,0,1-.84,2.062c-.345.618-.733.93-1.163.93a30.2,30.2,0,0,1-6.72-.865,72.7,72.7,0,0,1-7.561-2.194q-3.811-1.332-7.365-2.927t-6.269-2.925c-.258-.09-.885-.378-1.874-.865s-2-1-3.037-1.529l-2.842-1.463a9.459,9.459,0,0,0-1.423-.666,36.559,36.559,0,0,0-11.566,1.862q-5.622,1.862-11.178,4.056T122.2,206.456a38.874,38.874,0,0,1-11.761,1.8h-1.1a3,3,0,0,1-1.1-.267Zm9.305-81.131h19.962l.388.4-.388.4H117.417l-.258-.265.13-.133Zm-.13,37.241q.515,0,2.132-.067t3.36-.067c1.163,0,18.009.023,18.959.067a6.333,6.333,0,0,1,1.681.2l-1.423.665H118.063l-.388-.4Zm12.535-51.6q0-1.329,1.163-1.331c.518,0,1.636.023,3.36.067s3.49.178,5.3.4a40.762,40.762,0,0,1,4.846.865q2.131.532,2.132,1.463a1.851,1.851,0,0,1-.646,1.4,1.729,1.729,0,0,0-.646,1.264v27.531q0,1.329,1.163,1.329a27.142,27.142,0,0,0,2.715-.2,33.286,33.286,0,0,1,3.618-.2c1.2,0,7.61.067,8.689.2a2.822,2.822,0,0,1,2.132,1q0,.8-1.616,1c-1.078.133-7.548.178-8.882.133s-2.63-.11-3.878-.2a5.694,5.694,0,0,0-2.39.133,4.237,4.237,0,0,0-2.519,2.261q-.582,1.467-1.293,2.992a6.6,6.6,0,0,1-2.2,2.6q-1.487,1.064-5.234,1.063h-1.228c-.561,0-1.121-.02-1.681-.067s-1.1-.11-1.614-.2-.82-.222-.9-.4a3.729,3.729,0,0,1-.195-.465,3.975,3.975,0,0,0-.193-.466Zm13.215,14.363h21l.388.4-.388.4h-21l-.386-.4Zm32.437.4.388-.4c1.981-.353,8.882-1.151,10.175-2.394a23.083,23.083,0,0,0,3.23-3.79q1.292-1.927,2.2-3.458a2.527,2.527,0,0,1,2.067-1.529,7.761,7.761,0,0,1,2.327,1.662q1.937,1.664,4.135,3.723t3.941,3.858a8.76,8.76,0,0,1,1.744,2.061.519.519,0,0,1-.386.533,2.089,2.089,0,0,1-.646.132H176.639Z" transform="translate(373.256 224.675)" fill="#070203" stroke="#000" stroke-linecap="round" stroke-width="1"/>
      <path id="Path_31" data-name="Path 31" d="M5.416,243.224l-5.041-12.9v-.665q.775,0,3.1-.067t4.911-.133q2.584-.065,4.716-.267a7.637,7.637,0,0,0,2.52-.465,10.371,10.371,0,0,0,2.262-3.592q1.357-2.924,2.842-6.983t3.167-8.777q1.679-4.72,3.232-8.977t2.972-7.448a13.59,13.59,0,0,1,2.584-4.256,16.442,16.442,0,0,1,3.167.935q2.646.934,5.557,2.134t5.3,2.337q2.391,1.134,2.52,1.533a2.7,2.7,0,0,1-.711.735c-.386.312-.82.646-1.291,1s-.95.688-1.423,1-.84.556-1.1.733a58.063,58.063,0,0,0-9.5,10.41q-4.07,5.74-8.722,11.074-.39.4-1.423,1.536t-2.132,2.4q-1.1,1.267-1.937,2.335a3.335,3.335,0,0,0-.841,1.468q0,1.2,1.293,1.2a19.294,19.294,0,0,0,4.265-.465,19.373,19.373,0,0,1,4.265-.466q.775,0,2.132.133a18.464,18.464,0,0,0,2.714.067,5.246,5.246,0,0,0,2.327-.6,1.971,1.971,0,0,0,.968-1.887,6.07,6.07,0,0,0-1.228-3.3,5.79,5.79,0,0,1-1.226-2.9q0-1.347,1.163-1.348a10.428,10.428,0,0,1,5.132,1.529A20.894,20.894,0,0,1,46.88,224.2a21.684,21.684,0,0,1,3.648,5.254,12.24,12.24,0,0,1,1.409,5.386,8.908,8.908,0,0,1-1.8,5.72,6.311,6.311,0,0,1-5.257,2.261q-3.336,0-4.424-1.8a9.739,9.739,0,0,1-1.346-3.99q-.257-2.194-.513-4.056a1.894,1.894,0,0,0-2.054-1.862,4.324,4.324,0,0,0-1.089.2c-.471.132-.706.378-.706.731v13.3q0,1.464,2.694,3.192t5.9,4.056a34.84,34.84,0,0,1,5.9,5.454,11.123,11.123,0,0,1,2.694,7.515,13.4,13.4,0,0,1-1.154,5.852q-1.157,2.394-5,2.394a4.931,4.931,0,0,1-3.911-1.529,8.969,8.969,0,0,1-1.924-3.791,28.216,28.216,0,0,1-.771-4.921q-.195-2.659-.383-4.921a16.624,16.624,0,0,0-.706-3.791c-.345-1.018-.941-1.529-1.8-1.529a1.5,1.5,0,0,0-1.154.6,4.277,4.277,0,0,0-.77,1.264V291.5a2.373,2.373,0,0,1-1.744,2.194,19,19,0,0,1-3.943,1.129,30.091,30.091,0,0,1-4.458.466q-2.264.065-3.167.067a1.159,1.159,0,0,1-1.291-1.329V261.446c0-.71-.26-1.064-.776-1.064q-1.294,0-2.714,1.8a29.8,29.8,0,0,0-2.844,4.454q-1.422,2.664-2.842,5.785T7.741,278.2A29.916,29.916,0,0,1,4.9,282.659q-1.422,1.8-2.714,1.8c-.775,0-1.163-.356-1.163-1.064A53.758,53.758,0,0,1,2.314,271.62Q3.6,265.835,4.64,259.849q.387-2.394.581-4.854t.453-4.854a2.229,2.229,0,0,1,.128-.665c.085-.267.215-.4.388-.4a8.944,8.944,0,0,1,3.037.533q1.484.532,2.972,1.129t2.972,1.131a8.951,8.951,0,0,0,3.038.531.865.865,0,0,0,.775-.4,11.974,11.974,0,0,0,.195-2.2q.062-1.794.063-3.99v-6.848a1.16,1.16,0,0,0-1.291-1.331,7.027,7.027,0,0,0-3.36,1q-1.812,1-3.49,2.127t-3.037,2.062a3.243,3.243,0,0,1-2.132.8ZM2.572,194.68a8.371,8.371,0,0,1,2.455.6,30.562,30.562,0,0,0,3.425,1,11.761,11.761,0,0,0,3.165.332,1.788,1.788,0,0,0,1.809-1.263,8.773,8.773,0,0,0,.323-2.2c.043-.93.107-1.706.195-2.327s.258-1.949.516-3.99.6-4.19,1.034-6.45.9-4.3,1.421-6.119,1.034-2.77,1.551-2.859a8.086,8.086,0,0,1,2.907.665q2.391.8,5.234,1.8t5.3,1.994a27.61,27.61,0,0,1,3.1,1.4,6.968,6.968,0,0,1,.646.4c.257.178.386.355.386.531a1.076,1.076,0,0,1-.516.8,10.006,10.006,0,0,1-1.228.8,10.273,10.273,0,0,1-1.421.666,2.76,2.76,0,0,0-.97.531,20.67,20.67,0,0,0-1.939,1.994q-.9,1.067-1.939,2.129-2.714,3.061-5.685,5.985a52.448,52.448,0,0,1-6.332,5.321,3,3,0,0,0-.193,2.792,17.484,17.484,0,0,0,1.614,3.258q1.032,1.664,2,3.325a6.47,6.47,0,0,1,.97,3.26,5.882,5.882,0,0,1-2,4.321,6.155,6.155,0,0,1-4.33,1.929,6,6,0,0,1-1.228-.2,12.226,12.226,0,0,1-1.679-.531,8.39,8.39,0,0,1-1.551-.8,1.936,1.936,0,0,1-.841-.865q-.9-2.659-1.744-5.254t-1.874-5.254q-.647-1.6-1.486-3.192a34.645,34.645,0,0,1-1.486-3.192,1.888,1.888,0,0,1-.13-.8Zm44.843,94.165H73a2.58,2.58,0,0,0,1.423-.8,2.153,2.153,0,0,0,.9-1.464V251.6q0-1.2-2.455-1.463a37.572,37.572,0,0,0-5.556-.133q-3.1.135-6.01.4a21.848,21.848,0,0,1-3.941.133c-1.206-.177-1.854-.553-1.937-1.131s.213-.865.9-.865H96.264l.9-.4q.257-.4,1.356-1.861t2.262-3.06q1.164-1.594,2.067-2.992a9.679,9.679,0,0,0,.906-1.529,23.151,23.151,0,0,0-2.262-10.242,48.834,48.834,0,0,0-5.622-8.911q-.647-.8-1.421-1.8a5.446,5.446,0,0,1-1.034-2.062l.388-.265a62.385,62.385,0,0,1,7.495,1.729,35.62,35.62,0,0,1,7.754,3.258,21.113,21.113,0,0,1,6.074,5.121,11.529,11.529,0,0,1,2.455,7.448,4.594,4.594,0,0,1-1.1,3.125,16.63,16.63,0,0,1-2.392,2.261q-1.292,1-2.39,2a3.055,3.055,0,0,0-1.1,2.327,2.675,2.675,0,0,0,.97,2.062,15.8,15.8,0,0,0,2.132,1.6q1.162.732,2.132,1.463a2.08,2.08,0,0,1,.968,1.663.641.641,0,0,1-.451.6,1.928,1.928,0,0,1-.711.2H92.9a1.159,1.159,0,0,0-1.293,1.329v35.112l.258.665,1.293,1.2.646.267c.258,0,.8-.047,1.616-.133s1.658-.2,2.519-.333,1.636-.288,2.327-.465a3.205,3.205,0,0,0,1.293-.533l7.106-9.842.646-.267A7.819,7.819,0,0,1,111.964,279q2.134,1.732,4.524,3.925t4.33,4.123q1.937,1.927,1.937,2.327a.315.315,0,0,1-.258.333,2.121,2.121,0,0,1-.516.067H47.415l-.516-.4Zm50.658-107.2c.258-.267.8-.951,1.616-2.061s1.722-2.262,2.714-3.458,1.894-2.261,2.714-3.192,1.313-1.4,1.486-1.4a8.321,8.321,0,0,1,2.39,1.531q2,1.529,4.33,3.523t4.33,3.858a26.006,26.006,0,0,1,2.39,2.394l-.388.531q-6.2,0-12.276.466T95.1,184.3q-11.374,0-22.68.133t-22.68.133c-.775,0-1.184-.42-1.228-1.264s.408-1.263,1.358-1.263h47.3Zm-41.094,7.05a26.183,26.183,0,0,1,7.818,2.261,58.387,58.387,0,0,0,7.56,2.927,2.906,2.906,0,0,0,.453.4,1.027,1.027,0,0,1,.323.4c-.087.088-.346.311-.776.665s-.926.755-1.486,1.2-1.1.865-1.616,1.264a11.161,11.161,0,0,0-1.033.865Q66.8,200,64.731,202.128t-4.393,4.123a32.423,32.423,0,0,1-4.718,3.392,8.764,8.764,0,0,1-4.33,1.4.7.7,0,0,1-.775-.8,25.808,25.808,0,0,1,.775-4.256q.775-3.323,1.874-6.983t2.132-6.717q1.034-3.056,1.681-3.59m5.427,51.338q-.387-.53-2.132-4.123t-3.555-7.781q-1.812-4.188-3.3-7.713a21.72,21.72,0,0,1-1.486-4.056c0-.177.13-.31.388-.4a2.13,2.13,0,0,1,.646-.133,15.722,15.722,0,0,1,6.4,1.264,29.711,29.711,0,0,1,6.72,3.723,23,23,0,0,1,5.3,5.387,10.816,10.816,0,0,1,2.132,6.25,8.134,8.134,0,0,1-.968,4.256,6.781,6.781,0,0,1-2.52,2.46,8.289,8.289,0,0,1-3.555,1,20.772,20.772,0,0,1-4.07-.133m30.628-46.15a2.905,2.905,0,0,0,.451.4,1.013,1.013,0,0,1,.323.4c-.087.088-.13.155-.13.2s-.043.113-.128.2q-1.424,1.467-4.265,4.123t-6.074,5.254a70.172,70.172,0,0,1-6.269,4.523,10.072,10.072,0,0,1-4.974,1.927c-.518,0-.821-.087-.906-.267a2.323,2.323,0,0,1-.128-.93,10.92,10.92,0,0,1,.516-2.462q.515-1.794,1.293-4.056t1.744-4.654q.97-2.394,1.939-4.389t1.744-3.325c.518-.885.948-1.329,1.293-1.329a12.609,12.609,0,0,1,2.585.531q1.937.532,4.135,1.264t4.136,1.463q1.937.732,2.714,1.131m-5.557,46.284c-.691,0-1.314-.022-1.874-.067s-1.186-.067-1.874-.067c-.173,0-.433-.353-.776-1.063s-.56-1.153-.645-1.331q-1.424-3.456-2.585-6.917a45.435,45.435,0,0,0-2.842-6.65,16.656,16.656,0,0,0-.97-1.6q-.712-1.062-1.486-2.194T73,218.153a3.71,3.71,0,0,1-.646-1.263.617.617,0,0,1,.388-.665,2.383,2.383,0,0,1,.775-.133,21.976,21.976,0,0,1,6.98,1.263,28.8,28.8,0,0,1,6.978,3.458,20.1,20.1,0,0,1,5.362,5.321,11.9,11.9,0,0,1,2.132,6.85q0,3.858-1.937,5.519a8.3,8.3,0,0,1-5.557,1.663m4.781-30.856a15.146,15.146,0,0,1,.9-4.123q.9-2.794,2.2-5.785t2.584-5.719a37.159,37.159,0,0,1,2.069-3.925q.775-1.062,1.421-1.063a14.167,14.167,0,0,1,3.165.731q2.391.732,4.976,1.729a35.1,35.1,0,0,1,4.588,2.127q2,1.132,2,1.8,0,1.2-3.1,3.658t-7.108,5.054q-4.006,2.594-7.753,4.521t-5.041,1.929a.811.811,0,0,1-.9-.931" transform="translate(604.373 273.047)" fill="#070203" stroke="#000" stroke-linecap="round" stroke-width="1"/>
      <path id="Path_33" data-name="Path 33" d="M47.75,349.836l1.163-1.318.258-.661V336.916a1.6,1.6,0,0,0-.84-1.518,3.6,3.6,0,0,0-1.744-.461,7.893,7.893,0,0,0-3.748,1.046q-1.939,1.045-4.135,2.351t-4.588,2.48a12.865,12.865,0,0,1-5.106,1.306l-.9-.4-.128-.132-.388-.928q0-7.549-.453-15.033t-.451-15.036q0-1.192,1.293-1.193a8.824,8.824,0,0,1,4.07,1.109q2.134,1.109,4.33,2.349T40.9,315.21a10.992,10.992,0,0,0,4.783,1.108H73.337a3.4,3.4,0,0,0,2-1.176q1.224-1.177,2.584-2.549t2.455-2.547q1.1-1.177,1.616-1.176a4.274,4.274,0,0,1,2.455,1.529q1.549,1.529,3.23,2.992a14.241,14.241,0,0,0,3.232,2.2,1.705,1.705,0,0,0,2.454-.865,7.12,7.12,0,0,0,.776-3.192,28.125,28.125,0,0,1,.388-3.487c.083-.273.172-.55.258-.825a2.794,2.794,0,0,0,.128-.828q0-1.512-1.163-1.513H23.842a1.49,1.49,0,0,0-.451.133,1.434,1.434,0,0,1-.453.133q-.647.667-.968,3.725a33.248,33.248,0,0,1-1.423,6.517,18.978,18.978,0,0,1-3.36,6.25q-2.261,2.794-6.913,2.794a7.848,7.848,0,0,1-5.492-2.062,7.093,7.093,0,0,1-2.262-5.519,7.441,7.441,0,0,1,1.358-4.256,20.79,20.79,0,0,1,3.36-3.79,36.883,36.883,0,0,1,4.2-3.258q2.2-1.464,3.748-2.527,1.289-.93,2.455-1.862a18.9,18.9,0,0,1,2.584-1.729,4.068,4.068,0,0,1,1.486,1.463q.84,1.2,1.358,1.862a18.353,18.353,0,0,0,4.393.331q3.878.07,8.531,0t8.852-.132q4.2-.067,5.492-.067l28.817-.4q3.228,0,6.785.067a45.149,45.149,0,0,0,6.655-.333,3.379,3.379,0,0,0,1.551-.665,13.056,13.056,0,0,0,2-1.6,20.8,20.8,0,0,0,1.681-1.8,2.553,2.553,0,0,0,.71-1.529q0-.4-1.549-2.061t-3.49-3.658q-1.939-1.994-3.748-3.79T87.423,284.8l-.9-.4h-.646l-.9.4a56.719,56.719,0,0,1-10.273,7.981,34.123,34.123,0,0,1-11.954,4.788,9.788,9.788,0,0,1-2.262.333,4.972,4.972,0,0,1-2.261-.333l.128-.265q1.422-1.2,2.974-2.262a25.261,25.261,0,0,0,2.972-2.394,49.376,49.376,0,0,0,5.169-5.321,27.206,27.206,0,0,0,3.618-5.652,37.909,37.909,0,0,0,2.326-6.317,54.972,54.972,0,0,0,1.423-7.316,36.352,36.352,0,0,0,.193-4.854,16.75,16.75,0,0,1,.581-4.854c.172-.885.6-1.329,1.293-1.329q.775,0,3.1.133t4.846.4a30.5,30.5,0,0,1,4.523.8c1.334.357,2,.8,2,1.331a3.383,3.383,0,0,1-.386,1.463,71.2,71.2,0,0,0-2.972,8.646,33.247,33.247,0,0,0-1.293,8.911,8.359,8.359,0,0,0,.258,2.327c.172.578.818.865,1.939.865a4.2,4.2,0,0,0,3.423-2.127,24.872,24.872,0,0,0,2.65-5.056,44.991,44.991,0,0,0,1.872-5.784q.71-2.859.97-4.456l.646-.4a16.132,16.132,0,0,1,2.65,1.2q1.744.932,3.618,1.994t3.746,2.129q1.872,1.064,3.038,1.6l.257.531-.257.533q-1.037.4-3.62,1.529t-5.362,2.527q-2.781,1.4-5.041,2.727a8.552,8.552,0,0,0-2.649,1.994,1.045,1.045,0,0,0-.128.4,1.055,1.055,0,0,1-.13.4,3.516,3.516,0,0,0,1.874,2,34.711,34.711,0,0,0,3.618,1.8q2,.867,3.941,1.6a12.562,12.562,0,0,1,2.844,1.4,8.878,8.878,0,0,1,1.679,1.663,3.811,3.811,0,0,1,.646,2.327v9.31l.388.931q.257.267.97,1c.471.488.97,1,1.486,1.529s.97,1.043,1.356,1.529a2.314,2.314,0,0,1,.583,1q0,.8-2.715,2.127t-6.2,2.794q-3.491,1.467-6.72,2.727a28.648,28.648,0,0,0-4.265,1.929,11.455,11.455,0,0,0-2.262,1.727,3.553,3.553,0,0,0-1.1,2.66v13.3q0,1.332-1.809,2.062a17.738,17.738,0,0,1-4.2,1.065,42.937,42.937,0,0,1-4.716.4c-1.551.047-2.629.067-3.232.067A2.69,2.69,0,0,1,76.827,338a3.705,3.705,0,0,1-.776-1.131c-.173-.4-.345-.775-.516-1.131a1.3,1.3,0,0,0-1.034-.665c-.258,0-.733-.02-1.421-.067s-1.4-.067-2.132-.067-1.4.023-2,.067a3.857,3.857,0,0,0-1.163.2,12.992,12.992,0,0,0-1.937,1.529A24.256,24.256,0,0,1,63.9,338.4q-3.618,2.794-6.462,5.321a31.721,31.721,0,0,0-5.427,6.517c-.173.267-.345.531-.516.8a1,1,0,0,1-.9.4H35.861a1.159,1.159,0,0,0-1.293,1.329v15.96a1.159,1.159,0,0,0,1.293,1.329h43.55c.518,0,.776.286.776.865s-.258.865-.776.865H36.9l-3.36,3.192q-1.424,1.2-2.585,2.329a6.977,6.977,0,0,1-1.809,1.4,14.552,14.552,0,0,1-2.132.731,26.965,26.965,0,0,1-3.36.731,13.2,13.2,0,0,1-3.167.133q-1.422-.135-1.421-.931l-.9-35.112a1.159,1.159,0,0,1,1.293-1.329,22.405,22.405,0,0,1,7.043,1.129q3.421,1.132,6.783,2.46t6.785,2.462A22.343,22.343,0,0,0,47.1,350.1Zm-45.1-71.158A6.29,6.29,0,0,1,4.2,274.555a20.435,20.435,0,0,1,4.974-4.389,21.856,21.856,0,0,0,4.976-4.256q.645-.665.9-.665c.688,0,1.118.511,1.293,1.529a15.3,15.3,0,0,1,.258,2.327q0,6.784-2.2,10.175t-4.781,4.19a5.493,5.493,0,0,1-4.781-.6,4.633,4.633,0,0,1-2.2-4.19m3.36,20.881a12.065,12.065,0,0,1,2.584-3.125q2.326-2.326,5.1-5.454t5.364-6.517a18.971,18.971,0,0,0,3.36-6.185,28.272,28.272,0,0,0,1.163-7.115q.127-3.656.388-7.248c.085-.974.13-1.929.13-2.86a16.166,16.166,0,0,1,.258-2.859q.257-1.329,1.291-1.331.777,0,3.1.067t4.718.332A36.028,36.028,0,0,1,37.8,258q1.937.467,1.937,1.263a3.413,3.413,0,0,1-.581,1.2q-.582.934-1.293,2.329a21.719,21.719,0,0,0-1.291,3.192,12.217,12.217,0,0,0-.581,3.791v3.856a14.266,14.266,0,0,0,.516,3.856,3,3,0,0,0,.451,1,2.713,2.713,0,0,0,.841.465,6.927,6.927,0,0,0,1.679.267q1.162-.665,2-3.258t1.616-5.387q.777-2.791,1.423-5.052t1.421-2.262a6.712,6.712,0,0,1,1.939.8q1.549.8,3.23,1.8t3.037,1.862q1.357.867,1.356,1.131,0,1.329-2.067,2.792t-4.523,2.86q-2.456,1.4-4.523,2.594t-2.067,1.994c0,.711.536,1.309,1.616,1.8a37.306,37.306,0,0,1,3.618,1.929,15.71,15.71,0,0,1,3.618,2.992,7.2,7.2,0,0,1,1.616,4.988,6.467,6.467,0,0,1-1.551,4.589,5.714,5.714,0,0,1-4.394,1.662,14.551,14.551,0,0,1-3.037-.267,4.372,4.372,0,0,1-2.39-1.729,10.068,10.068,0,0,1-1.358-3.125q-.712-2.326-1.486-4.788a35.778,35.778,0,0,0-1.679-4.389q-.907-1.927-1.939-1.929a4.391,4.391,0,0,0-2.779,1.662q-1.617,1.664-3.36,3.791t-3.425,4.19a13.081,13.081,0,0,1-2.972,2.859,33,33,0,0,1-3.23,1.729q-2.2,1.067-4.653,2.129T9.82,299.027a11.372,11.372,0,0,1-3.425.8ZM43.1,331.879a1.158,1.158,0,0,0,1.293,1.329H74.63a1.159,1.159,0,0,0,1.293-1.329V319.51a1.161,1.161,0,0,0-1.293-1.331H44.39A1.16,1.16,0,0,0,43.1,319.51ZM81.48,348.77q.387-.4,1.486-1.6c.73-.8,1.486-1.6,2.261-2.394s1.529-1.531,2.262-2.2,1.228-1,1.486-1a19.506,19.506,0,0,1,2.2,1.463q2.066,1.464,4.523,3.325t4.523,3.523q2.066,1.667,2.327,1.929a.98.98,0,0,1-.13,1.064,5.854,5.854,0,0,1-1.034,1.063,15.192,15.192,0,0,0-1.226,1.131,1.7,1.7,0,0,0-.583,1.131v18.621q0,1.462-1.937,2.327a19.9,19.9,0,0,1-4.459,1.329,49.189,49.189,0,0,1-4.974.665q-2.459.2-3.49.2-.775,0-1.228-1.662a22.142,22.142,0,0,1-.646-3.79q-.192-2.131-.193-4.123v-2.66q0-3.593.193-7.183t.193-7.181a1.159,1.159,0,0,0-1.291-1.329q-.907,0-2.974.067t-4.781.065H62.934q-2.519,0-4.33-.065a5.488,5.488,0,0,1-2.2-.333q.257-.4,1.872-.731t4.071-.6q2.454-.267,5.3-.4t5.427-.2q2.584-.065,4.653-.067h2.842ZM68.814,265.112a2.75,2.75,0,0,1,1.034,2.327c.083,1.2.128,2.151.128,2.86a38.767,38.767,0,0,1-.258,4.388,14.275,14.275,0,0,1-1.034,4.058,6.95,6.95,0,0,1-2.326,2.925,7.107,7.107,0,0,1-4.265,1.131,8.287,8.287,0,0,1-3.683-.731q-1.487-.73-1.486-3.392a6.289,6.289,0,0,1,1.421-3.858,18.415,18.415,0,0,1,3.3-3.325q1.874-1.462,3.683-3.058a7.5,7.5,0,0,0,1.358-1.529,7.59,7.59,0,0,1,1.358-1.529,1.032,1.032,0,0,1,.775-.267" transform="translate(753.82 187.567)" fill="#070203" stroke="#000" stroke-linecap="round" stroke-width="1"/>
      <g id="Group_9" data-name="Group 9" transform="translate(324.054 443.6)">
        <path id="Path_35" data-name="Path 35" d="M13.571,44a2.439,2.439,0,0,0-2,.067c-.821.312-1.681.686-2.585,1.129s-1.809.888-2.714,1.331a5.555,5.555,0,0,1-2.39.665c-.6,0-.9-.22-.9-.665a.9.9,0,0,1,.193-.533,4.905,4.905,0,0,1,.453-.531A27.6,27.6,0,0,1,9.5,40.875a62.373,62.373,0,0,0,6.269-4.19A94.638,94.638,0,0,0,32.18,20.193,157.468,157.468,0,0,0,45.1,1.306a1.783,1.783,0,0,0,.386-.6c.085-.22.3-.333.646-.333a6.287,6.287,0,0,1,1.1.2c.558.133,1.163.288,1.809.465s1.269.356,1.874.533,1.033.312,1.291.4q4.006,1.067,7.819,2.394a46.282,46.282,0,0,0,7.948,2l.386.531-.386.665a21.683,21.683,0,0,0-5.622,2.727A32.843,32.843,0,0,0,57.9,14.008q-2.069,2.064-4.071,4.256a41.435,41.435,0,0,1-4.458,4.188q-.907.67-3.232,2.2t-5.362,3.458q-3.038,1.929-6.332,3.99t-6.01,3.858q-2.714,1.794-4.523,3.192t-1.809,1.8q0,.532,1.1,1.2a14.641,14.641,0,0,0,2.519,1.2q1.422.532,2.779.93a8.063,8.063,0,0,0,1.874.4h52.6A11.392,11.392,0,0,1,84.519,43.4a22.427,22.427,0,0,0,2-1.6,16.623,16.623,0,0,0,1.744-1.794,2.791,2.791,0,0,0,.776-1.729,10.608,10.608,0,0,0-1.939-2,30.378,30.378,0,0,0-2.844-2.062l-3.1-1.994a20.724,20.724,0,0,1-2.454-1.8,41.615,41.615,0,0,1-3.425-3.258q-2.264-2.326-4.524-4.988A54.793,54.793,0,0,1,66.815,17a8.092,8.092,0,0,1-1.681-3.856q0-.4.646-.4a3.833,3.833,0,0,1,1.421.4c.6.265,1.228.578,1.874.931s1.271.71,1.874,1.063a12.221,12.221,0,0,0,1.551.8,86.707,86.707,0,0,0,12.276,4.923,108.055,108.055,0,0,0,12.8,3.192q2.841.532,5.621,1t5.622.866a24.584,24.584,0,0,0,3.23.332,11.422,11.422,0,0,1,3.232.6,2.406,2.406,0,0,1,1.034.8l-.26.533a18.069,18.069,0,0,0-3.425,3.392,31.144,31.144,0,0,0-2.39,3.657q-1.034,1.864-2.067,3.791t-2.326,4.056a9.364,9.364,0,0,1-2.779,2.925,15.429,15.429,0,0,0-3.037,2.66,5.528,5.528,0,0,0-.195,1.729q-.065,1.6-.128,3.99t0,5.187q.062,2.794.065,5.387v7.115q0,1.2-1.681,2a24.222,24.222,0,0,1-3.811,1.4,29.3,29.3,0,0,1-4.2.865,26.375,26.375,0,0,1-2.972.267,2.242,2.242,0,0,1-1.551-.466,4.357,4.357,0,0,1-.84-1,5.821,5.821,0,0,0-.776-1,2.008,2.008,0,0,0-1.486-.466,2.763,2.763,0,0,0-1.356.4,1.288,1.288,0,0,0-.711,1.2,4.063,4.063,0,0,0,1.358,2.394,31.493,31.493,0,0,0,3.23,2.993,45.341,45.341,0,0,0,3.683,2.725q1.809,1.2,2.585,1.729a.544.544,0,0,0,.128.4l.258.267q.127.532-.581,1.263a2.083,2.083,0,0,0-.711,1.4v31.523q0,1.062-1.872,1.862a28.954,28.954,0,0,1-4.266,1.4,47.22,47.22,0,0,1-4.716.931,27.95,27.95,0,0,1-3.1.331q-2.069,0-2.455-1.129a7.559,7.559,0,0,1-.388-2.46,22.038,22.038,0,0,0-.128-2.462c-.087-.753-.691-1.129-1.809-1.129q-7.626,0-15.121.465t-15.119.466a1.47,1.47,0,0,0-1.034.531A27.152,27.152,0,0,1,33.085,124a21.058,21.058,0,0,1-8.659,1.529,1.159,1.159,0,0,1-1.291-1.329V80.84a1.355,1.355,0,0,0-1.423-1.463,24.814,24.814,0,0,0-3.165-.067,23.972,23.972,0,0,1-3.167-.065c-.95-.088-1.421-.533-1.421-1.331V44.931ZM27.786,69.935a1.159,1.159,0,0,0,1.293,1.329h19a1.16,1.16,0,0,0,1.293-1.329V48.654a1.161,1.161,0,0,0-1.293-1.329h-19a1.159,1.159,0,0,0-1.293,1.329ZM72.112,82.3,77.8,76.585c.172-.177.213-.665.128-1.464s-.431-1.2-1.034-1.2H29.6a1.573,1.573,0,0,0-1.291.665,2.323,2.323,0,0,0-.518,1.463,3.408,3.408,0,0,0,1.486,2.66,15.011,15.011,0,0,0,3.49,2.062,28.216,28.216,0,0,0,4.006,1.4,13.124,13.124,0,0,0,3.167.531H71.208Zm-39.285-28.6V51.779q0-1,1.293-1a6.947,6.947,0,0,1,3.553,1.129,17.879,17.879,0,0,1,3.553,2.86A18.224,18.224,0,0,1,44,58.431a7.439,7.439,0,0,1,1.1,3.657,4.975,4.975,0,0,1-1.874,4.056,6.3,6.3,0,0,1-4.071,1.531,4.628,4.628,0,0,1-3.748-1.531,9.385,9.385,0,0,1-1.872-3.723,19.873,19.873,0,0,1-.646-4.589q-.067-2.394-.065-4.123m6.59,61.314.13.133.9.4H72.242a1.16,1.16,0,0,0,1.291-1.331V86.694a1.16,1.16,0,0,0-1.291-1.331H40.321a1.159,1.159,0,0,0-1.291,1.331V98.131a2.1,2.1,0,0,0,.386,1.131,2.766,2.766,0,0,1,.388,1.529,3.788,3.788,0,0,1-.323,1.063,9.513,9.513,0,0,0-.451,1.331,37.668,37.668,0,0,0-.13,5.452q.127,2.794.13,5.454Zm19-81q1.809-2,3.425-4.056a24.8,24.8,0,0,0,2.779-4.456l.775-.4.776.267q.775.8,2.2,2.129t2.974,2.725q1.549,1.4,2.842,2.727a22.138,22.138,0,0,1,1.681,1.862l-.258.531-.9.4H40.58a.666.666,0,0,1,0-1.331h16.93ZM63.195,69.4a1.677,1.677,0,0,0,.711,1.264,2.152,2.152,0,0,0,1.358.6q1.289,0,2.132-3.258t1.486-7.181q.645-3.923,1.293-7.183t1.679-3.258a6.945,6.945,0,0,1,2.52.533q1.357.532,2.779,1.129t2.842,1.064a9.461,9.461,0,0,0,2.974.465,1.66,1.66,0,0,0,1.551-1,4.57,4.57,0,0,0,.516-2.127,6.927,6.927,0,0,0-.323-2.127c-.217-.666-.5-1-.84-1H72.242a1.905,1.905,0,0,0-1.034.332,2.093,2.093,0,0,1-1.163.333,6.339,6.339,0,0,1-1.744-.333,19.118,19.118,0,0,0-2.262-.531,6.29,6.29,0,0,0-2-.067q-.842.135-.841,1.2Zm21.453-9.708a3.1,3.1,0,0,0-.711-1.529q-.712-1-1.228-1T79.995,59.1q-2.2,1.929-4.651,4.256t-4.459,4.454q-2,2.129-2,2.527a.811.811,0,0,0,.9.931H83.355a1.159,1.159,0,0,0,1.293-1.329Z" transform="translate(-2.975 -0.375)" fill="#070203" stroke="#000" stroke-linecap="round" stroke-width="1"/>
        <path id="Path_37" data-name="Path 37" d="M24.741,61.346l-1.421-.665a7.454,7.454,0,0,1,2.067-.2c1.293-.043,8.173-.067,10.11-.067h6.269q3.358,0,6.4.067t5.3.067H66.9a.59.59,0,0,1,.26.067.537.537,0,0,0,.258.067l-1.551.665Z" transform="translate(10.174 39.602)" fill="#070203" stroke="#000" stroke-linecap="round" stroke-width="1"/>
      </g>
      <g id="Group_10" data-name="Group 10" transform="translate(465.65 445.266)">
        <path id="Path_39" data-name="Path 39" d="M59.782,191.719a.773.773,0,0,1-.258.531,24.664,24.664,0,0,1-4.976,2.329q-3.943,1.529-9.434,3.323T33.29,201.494q-6.334,1.8-11.954,3.325t-9.95,2.46a34.586,34.586,0,0,1-5.88.931c-.775,0-1.228-.09-1.358-.265a.463.463,0,0,1,.065-.6,3.049,3.049,0,0,1,.776-.665,4.618,4.618,0,0,0,.775-.6q1.422-.932,2.909-1.729a23.238,23.238,0,0,0,2.907-1.862,121.66,121.66,0,0,0,16.542-12.236q.515-.53,1.874-1.862t2.844-2.727q1.484-1.4,2.777-2.527c.861-.751,1.464-1.129,1.809-1.129a8.891,8.891,0,0,1,2.069.665q1.677.667,4.135,1.663t5.169,2.127q2.714,1.132,5.041,2.262t4.006,1.927a10.158,10.158,0,0,1,1.937,1.064m19.9-98.154,7.108-7.315a1,1,0,0,0,.388-.133.97.97,0,0,1,.386-.133,21.763,21.763,0,0,1,2.327,1.6q2.194,1.6,4.781,3.525t4.846,3.723a18.839,18.839,0,0,1,2.52,2.2.392.392,0,0,1,.128.265.385.385,0,0,0,.13.267,2.255,2.255,0,0,1-.97.931q-.712.4-1.486.8t-1.421.8a1.121,1.121,0,0,0-.646.931v14.9a1.039,1.039,0,0,1-.646,1.064,12.371,12.371,0,0,1-1.358.465,4.33,4.33,0,0,0-1.356.665,1.756,1.756,0,0,0-.646,1.531,5.063,5.063,0,0,0,1.616,3.723,19.485,19.485,0,0,0,3.876,2.925q2.259,1.332,4.523,2.594a12.964,12.964,0,0,1,3.425,2.594l.258.665a1.624,1.624,0,0,1-.711,1.064q-.58.4-1.228.8a13.258,13.258,0,0,0-1.163.8,1.16,1.16,0,0,0-.516.931v42.427a2.625,2.625,0,0,1-1.939,2.594,19.964,19.964,0,0,1-4.33,1.064q-2.391.332-4.458.731t-2.455,1.729a.909.909,0,0,0,.258.665,14.1,14.1,0,0,0,6.139,3.99q3.811,1.332,7.366,2.727a20.769,20.769,0,0,1,6.139,3.658q2.584,2.261,2.584,6.915a8.249,8.249,0,0,1-2,5.785,7.228,7.228,0,0,1-5.622,2.2,11.118,11.118,0,0,1-3.36-1.6q-2.714-1.6-6.46-4.123t-8.078-5.521q-4.33-2.991-8.013-5.719t-6.332-4.788a16.955,16.955,0,0,1-3.167-2.86,1.168,1.168,0,0,1,.711-.665,3.5,3.5,0,0,1,.97-.133H85.369c.26,0,.495-.353.711-1.063a7.825,7.825,0,0,0,.323-2.262,6.564,6.564,0,0,0-.388-2.261,1.509,1.509,0,0,0-1.549-1.064H39.622a29.065,29.065,0,0,0-6.978.8,3.1,3.1,0,0,0-1.486,1.529,11.909,11.909,0,0,1-2.39,2.794A15.457,15.457,0,0,1,24.115,186a22.384,22.384,0,0,1-8.141,1.2,1.158,1.158,0,0,1-1.293-1.329V124.021q0-.93.516-1.2a4.522,4.522,0,0,1,1.228-.4,4.393,4.393,0,0,0,1.228-.4c.343-.177.518-.576.518-1.2V88.777q0-1.2,1.291-1.2a8.34,8.34,0,0,1,3.683,1q2,1,4.136,2.194t4.393,2.194a11.243,11.243,0,0,0,4.588,1H78.779Zm5.169,34.579,5.3-5.452.386-.931a8.769,8.769,0,0,0-.128-1.331q-.13-.8-.776-.8H82.4l-.9-.4-.9-.931-.9-.4H36.65a8.985,8.985,0,0,0-2.649.863q-2.006.867-4.2,2t-3.941,2.261q-1.744,1.132-1.744,1.531c0,.443.343.886,1.034,1.329a17.1,17.1,0,0,0,2.39,1.263,22.024,22.024,0,0,0,2.714,1,8.062,8.062,0,0,0,1.874.4H83.948Zm-53.76,46.95a1.158,1.158,0,0,0,1.293,1.329H84.853a1.159,1.159,0,0,0,1.293-1.329v-42.56a1.16,1.16,0,0,0-1.293-1.329H32.386a1.159,1.159,0,0,0-1.293,1.329ZM36.65,96.623a1.16,1.16,0,0,0-1.293,1.329v15.96a1.16,1.16,0,0,0,1.293,1.331H79.684a1.16,1.16,0,0,0,1.293-1.331V97.952a1.161,1.161,0,0,0-1.293-1.329Z" transform="translate(-4.065 -85.983)" fill="#070203" stroke="#000" stroke-linecap="round" stroke-width="1"/>
        <path id="Path_41" data-name="Path 41" d="M71.362,121.911a.515.515,0,0,1-.388.133H22.385a.508.508,0,0,1-.388-.133.639.639,0,0,1,.451-.6,1.912,1.912,0,0,1,.711-.2H70.2a1.913,1.913,0,0,1,.71.2.641.641,0,0,1,.453.6" transform="translate(7.477 -62.592)" fill="#070203" stroke="#000" stroke-linecap="round" stroke-width="1"/>
        <path id="Path_43" data-name="Path 43" d="M71.362,131.492a.515.515,0,0,1-.388.133H22.385a.508.508,0,0,1-.388-.133.639.639,0,0,1,.451-.6,1.912,1.912,0,0,1,.711-.2H70.2a1.913,1.913,0,0,1,.71.2.641.641,0,0,1,.453.6" transform="translate(7.477 -56.213)" fill="#070203" stroke="#000" stroke-linecap="round" stroke-width="1"/>
      </g>
    </g>
    <g id="Group_13" data-name="Group 13" transform="translate(365.911 446.209)">
      <g id="Group_12" data-name="Group 12" transform="translate(0 0)" clip-path="url(#clip-path)">
        <path id="Path_44" data-name="Path 44" d="M10.966,9.512c.824-1.154,1.113-1.484,1.978-2.555A30.892,30.892,0,0,1,15.79,9.8a.493.493,0,0,1,.165.33c0,.165-.165.247-.371.247H10.43v6.556c.868-.371.868-.371,2.929-1.319l.206.371A21.2,21.2,0,0,1,10.43,18.87v6.143c0,4.371,0,4.371.041,8.74-.041,1.813-.33,2.6-1.4,3.338a7.769,7.769,0,0,1-4.041,1.239c-.371,0-.453-.124-.495-.742C4.286,35.4,3.545,34.745,0,33.506l.041-.536c3.462.289,3.5.289,5.4.33h.08c.414,0,.536-.124.536-.536V21.8A28.694,28.694,0,0,1,3.215,23.53c-.121,1.4-.289,1.813-.659,1.813-.453,0-.577-.33-2.267-5.649a32.2,32.2,0,0,0,5.77-1.443V10.378H2.968a15.929,15.929,0,0,0-2.226.206L.495,9.224a9.184,9.184,0,0,0,2.555.289H6.059v-4.2A36.328,36.328,0,0,0,5.772.36Q7.751.545,8.74.607c2.72.247,3.506.453,3.506.948,0,.412-.371.618-1.816,1.072V9.512ZM31.786,34.578c1.278-1.525,1.69-2.02,2.926-3.421,1.813,1.525,2.393,2.02,4.124,3.709.165.167.206.247.206.33,0,.167-.165.247-.412.247H20.2v1.775c0,.948-.453,1.113-2.926,1.113-1.236,0-1.443-.124-1.443-.907q.062-6.8.124-21.027a36.437,36.437,0,0,1-4.124,4.66l-.371-.373a46.626,46.626,0,0,0,5.031-11.5A49.517,49.517,0,0,0,18.554.36c1.319.289,2.429.536,3.091.659,2.8.618,3.421.824,3.421,1.236s-.495.659-1.813.866a53.938,53.938,0,0,1-2.885,6.267h5.07A37.572,37.572,0,0,0,27.951.731c5.154,1.236,6.02,1.525,6.02,2.02,0,.453-.534.659-1.9.783C29.849,6.215,28.61,7.7,28.322,7.987c-.451.495-.742.783-1.4,1.4h4.614c1.239-1.484,1.612-1.9,2.764-3.215A44.424,44.424,0,0,1,38.26,9.595a.848.848,0,0,1,.206.371c0,.206-.165.289-.538.289H29.6V16.81h1.731c1.072-1.319,1.4-1.731,2.514-2.968,1.649,1.319,2.146,1.772,3.709,3.215.167.165.208.247.208.371,0,.165-.165.247-.414.247H29.6v7.38h1.69c1.2-1.319,1.566-1.731,2.679-3.009a40.526,40.526,0,0,1,3.753,3.3c.165.165.2.247.2.33,0,.165-.163.247-.41.247H29.6v8.658ZM25.354,10.254H20.2V16.81h5.154Zm0,7.421H20.2v7.38h5.154Zm0,8.245H20.2v8.658h5.154Z" transform="translate(0 0.463)" fill="#070203"/>
        <path id="Path_45" data-name="Path 45" d="M20.217,17.451a17.936,17.936,0,0,0,2.267.289h2.8c.9-1.03,1.193-1.36,2.223-2.473,1.525,1.03,1.981,1.36,3.464,2.473.25.291.371.453.371.621,0,.371-.495.74-1.484,1.2v9.853a4.857,4.857,0,0,0,2.393,2.679c1.77.866,4.616,1.278,8.946,1.278,4.987,0,12.9-.371,18.222-.866v.453a4.478,4.478,0,0,0-2.6,3.794c-.039.577-.082.618-.41.659-.495.082-5.527.165-10.226.165a50.166,50.166,0,0,1-8.658-.412c-4.577-.742-6.512-2.391-8.616-7.462a53.285,53.285,0,0,1-4.33,5.605c-.453.538-.659.785-.948,1.156.044.453.082.742.082.866,0,.618-.247,1.03-.577,1.03-.247,0-.453-.165-.659-.536-.289-.453-1.607-3.217-2.6-5.278a24.826,24.826,0,0,0,5.566-2.8V18.605H22.484a8.327,8.327,0,0,0-1.978.247ZM21.866,1.125c6.1,2.514,8.7,4.495,8.7,6.679,0,1.813-1.731,3.959-3.174,3.959a.981.981,0,0,1-.948-.621,15.323,15.323,0,0,1-.621-1.9,21.782,21.782,0,0,0-4.245-7.833ZM50.478,14.854c1.113-1.278,1.484-1.69,2.72-3.011.783.7,1.36,1.2,1.775,1.61.451.412,1.113.948,2.017,1.731.124.124.206.206.206.289,0,.124-.206.247-.41.247h-8.41v5.649h2.184c1.03-1.28,1.36-1.69,2.516-2.97,1.77,1.4,2.306,1.857,4.08,3.3.121.124.165.206.165.289,0,.165-.165.247-.414.247H48.376v6.432h2.679c1.154-1.4,1.525-1.857,2.8-3.382l4.33,3.67a.812.812,0,0,1,.165.33c0,.165-.165.247-.412.247h-19v1.319c-.044.412-.208.577-.662.7a13.357,13.357,0,0,1-2.6.206c-1.03,0-1.236-.165-1.28-.824.082-3.421.082-3.5.126-8.864V12.876a44.884,44.884,0,0,1-3.835,3.3l-.33-.289a37.25,37.25,0,0,0,4.577-8.163A31.063,31.063,0,0,0,37.244.342c5.113,1.113,6.514,1.566,6.514,2.02,0,.371-.742.7-1.978.948a39.64,39.64,0,0,1-3.215,4.866l.371.247h5.111A25.461,25.461,0,0,0,46.19.837c1.278.247,2.269.453,2.885.618,2.6.495,3.712.948,3.712,1.4,0,.369-.453.577-1.813.781-.744.659-.744.659-2.473,2.31a30.386,30.386,0,0,1-2.8,2.473H51.22l2.638-3.091c1.813,1.4,2.391,1.855,4.247,3.338.165.124.247.247.247.33,0,.165-.208.289-.5.289h-9.48v5.566ZM44.17,9.288H38.936v5.566H44.17Zm0,6.432H38.936v5.649H44.17ZM38.936,28.666H44.17V22.234H38.936Z" transform="translate(25.647 0.44)" fill="#070203"/>
        <path id="Path_46" data-name="Path 46" d="M57.263,24.118c.659-.866.866-1.154,1.525-1.978.991.948,1.28,1.278,2.187,2.267a.832.832,0,0,1,.163.33c0,.165-.163.247-.453.247H56.521v4.083h.659c.534-.659,1.074-1.319,1.525-1.9A16.439,16.439,0,0,1,60.975,29.4a.615.615,0,0,1,.206.33c0,.124-.167.206-.5.206H56.521v4.41h.7c.659-.948.863-1.236,1.566-2.1,1.113,1.033,1.236,1.154,2.434,2.31a19.273,19.273,0,0,0,3.506-4.33,9.523,9.523,0,0,1-1.488.082c-1.113,0-1.319-.124-1.319-.7.082-6.679.124-7.256.124-9.564,0-8.784-.041-10.556-.163-12.905,1.9.907,2.432,1.236,4.245,2.226H66.7A25.444,25.444,0,0,0,67.53,4H64.19a9.711,9.711,0,0,0-2.228.25l-.247-1.4a10.015,10.015,0,0,0,2.475.286h8.2c1.2-1.4,1.566-1.813,2.8-3.132,1.857,1.4,2.434,1.813,4.206,3.338.163.167.245.289.245.414S79.4,4,79.112,4H72.437c-.373.538-.373.538-1.033,1.527a31.906,31.906,0,0,1-3.093,3.833h4.621a22.51,22.51,0,0,1,2.182-2.267c1.362.948,1.772,1.236,3.1,2.226.325.289.492.453.492.659,0,.33-.291.536-1.36,1.2v4.577c0,4.124.041,8.74.206,13.194a.8.8,0,0,1-.165.618c-.291.33-1.2.495-2.681.495-1.239,0-1.4-.082-1.4-.659v-.742H66.086v.824c-.039.495-.245.618-1.033.7,4.495,2.184,4.866,2.391,4.866,2.8,0,.33-.327.453-1.152.453a5.606,5.606,0,0,1-.744-.041,28.05,28.05,0,0,1-5.482,3.176,33.308,33.308,0,0,1-6.02,2.226l-.165-.412a32.546,32.546,0,0,0,4.163-3.174H50.666v1.649c-.041.742-.453.907-2.393.907-1.03,0-1.275-.124-1.275-.659v-.124c.163-6.061.163-6.061.163-8.245V24.283c-.534.536-.737.7-1.4,1.278l-.08-.082A29.6,29.6,0,0,1,40.4,37.6l-.414-.247a38.94,38.94,0,0,0,2.4-10.43C42.751,23.335,43,17.73,43,11.71c0-2.846-.039-4.041-.206-6.679a48.7,48.7,0,0,1,4.657,2.308h7.836c.9-.948,1.193-1.2,2.1-2.1,1.319.95,1.731,1.239,2.968,2.187q.371.247.371.495c0,.33-.206.495-1.154,1.03,0,2.393,0,2.723.041,4.7,0,.783-.536.989-2.432.989-1.4,0-1.566-.082-1.566-.659v-.495h-8.7a73.919,73.919,0,0,1-1.076,11.172A34.964,34.964,0,0,0,49.35,14.595c.987.289,1.852.495,2.347.618,1.855.453,2.393.659,2.393.948,0,.33-.373.453-1.651.659A28.851,28.851,0,0,1,50.914,19.5h2.269a21.59,21.59,0,0,0,1.688-4.41c.827.247,1.486.412,1.9.495,1.568.371,2.063.577,2.063.866,0,.371-.456.536-1.566.659-.414.332-.742.621-.948.783A17.084,17.084,0,0,1,54.376,19.5h2.846c.577-.618,1.113-1.278,1.69-1.937l2.226,2.226a.921.921,0,0,1,.165.373c0,.124-.165.206-.41.206H56.521v3.751ZM41.558,2.761a11.287,11.287,0,0,0,2.883.371H54.788c1.115-1.278,1.484-1.649,2.6-2.844,1.649,1.278,2.143,1.69,3.751,3.132.124.167.206.247.206.332,0,.124-.206.245-.41.245H44.441a11.393,11.393,0,0,0-2.64.289ZM55.615,8.2h-8.66c0,2.432,0,3.176-.037,4.412h8.7ZM53.263,20.367h-2.6v3.751h2.6Zm-2.6,8.7h2.6v-4.08h-2.6Zm2.6.866h-2.6v4.41h2.6ZM73.3,10.224H66.086v4.907H73.3ZM66.086,21.15H73.3V16H66.086Zm0,6.638H73.3V22.016H66.086Zm4.163,2.679c4.371.824,6.061,1.36,7.629,2.432a2.566,2.566,0,0,1,1.278,2.31c0,1.566-1.072,3.215-2.1,3.215-.577,0-.659-.082-1.607-1.731a21.068,21.068,0,0,0-5.36-5.855Z" transform="translate(51.573 -0.001)" fill="#070203"/>
        <path id="Path_47" data-name="Path 47" d="M83.972,11.167c.866-.989,1.115-1.278,2.063-2.226,2.432,1.731,2.432,1.731,3.091,2.267a21.557,21.557,0,0,0,1.692-4.492H66.534a5.912,5.912,0,0,1,.041.74,8.812,8.812,0,0,1-.948,4.454,3.63,3.63,0,0,1-2.968,2.143c-1.236,0-2.267-1.36-2.267-3.05,0-.948.163-1.236,1.358-1.978,2.64-1.649,3.464-3.093,3.547-5.9l.618-.082a13.58,13.58,0,0,1,.577,2.8h9.976V3.21A19.294,19.294,0,0,0,76.263.325c5.9.453,6.762.618,6.762,1.236,0,.495-.577.783-1.813,1.03V5.848H90.53c1.193-1.278,1.193-1.278,2.512-2.679,2.1,1.525,2.764,2.02,4.907,3.586.33.371.414.456.414.621,0,.33-.288.536-.744.659-.165,0-.165,0-1.4.082a3.866,3.866,0,0,0-.907.082,50.679,50.679,0,0,1-5.484,3.545l.453.371c.33.289.456.453.456.618,0,.495-.414.579-2.352.7a31.833,31.833,0,0,1-6.141,5.731A45.318,45.318,0,0,0,98.485,21.72v.5a4.14,4.14,0,0,0-2.473,2.226,7.654,7.654,0,0,0-.618,1.649c-.124.412-.289.577-.618.577a33.1,33.1,0,0,1-5.237-1.36c.577.495.7.577,1.4,1.2.371.289.495.453.495.7,0,.332-.371.577-1.236.866v2.516c0,2.308.041,3.915.082,6.391a1.01,1.01,0,0,1,.041.33c0,.822-.618.989-3.338.989-.948,0-1.2-.206-1.2-.989V35.78H71.851v1.4c-.082.948-.577,1.2-2.677,1.2-1.568,0-1.939-.165-1.939-.948v-.165c.082-1.813.206-5.319.206-7.174V26.133a46.747,46.747,0,0,1-7.133,1.443l-.165-.412a59.031,59.031,0,0,0,16.9-8.534,19.672,19.672,0,0,1-3.833-4.495,29.591,29.591,0,0,1-11.833,7.174l-.206-.33a40.457,40.457,0,0,0,7.916-7.462,22.3,22.3,0,0,0,3.959-6.391c2.228.456,3.3.662,4.412.948a3.406,3.406,0,0,0,.7.126c.744.165,1.074.371,1.074.659,0,.453-.659.7-2.187.907-.534.7-.74.948-1.111,1.4ZM85.5,26.05c.866-.783.866-.783,1.692-1.525a30.518,30.518,0,0,1-7.339-3.712,39.494,39.494,0,0,1-8.987,4.206c.453.371.7.536,1.319,1.03ZM71.851,34.914H85.786v-8H71.851Zm3.382-22.882c-.618.7-.866.95-1.443,1.527a19.445,19.445,0,0,0,4.825,3.874,29.089,29.089,0,0,0,5.111-5.4Z" transform="translate(77.57 0.418)" fill="#070203"/>
        <path id="Path_48" data-name="Path 48" d="M93.038,10.862c-.781.453-.781.453-1.525.866.247.289.495.577.907,1.113a1.392,1.392,0,0,1,.165.412c0,.206-.206.33-.495.33H88.3V25.828c1.649-.453,2.761-.783,5.028-1.607l.206.33a54.75,54.75,0,0,1-10.677,7.215,3.042,3.042,0,0,0-.082.495c-.082.907-.247,1.278-.577,1.278-.495,0-.907-.907-2.473-5.814,1.813-.289,2.718-.453,4.369-.824V13.582H82.32a12.235,12.235,0,0,0-2.308.206l-.208-1.36a9.34,9.34,0,0,0,2.31.289h1.978V4.389a14.831,14.831,0,0,0-.247-3.05,32.7,32.7,0,0,1,5.649.7.572.572,0,0,1,.495.577c0,.453-.33.659-1.69,1.03v9.07h.245c.744-.989.991-1.319,1.775-2.267.412.412.577.577.824.866A30.024,30.024,0,0,0,97,.924c4.451,1.527,5.525,2.063,5.525,2.64,0,.371-.332.577-.824.577-.25,0-.621-.041-.991-.082a23.16,23.16,0,0,1-4.451,4.536h16.367a15.76,15.76,0,0,1-3.794-5.443h-3.709a11.484,11.484,0,0,0-1.937.165l-.289-1.278a7.851,7.851,0,0,0,2.226.247h2.6c.781-.907,1.069-1.2,1.852-1.981.948.579,1.2.785,2.145,1.445.33.206.453.33.453.536,0,.371-.453.618-2.1,1.154a9.761,9.761,0,0,0,4.9,2.723,16.539,16.539,0,0,0,3.712.534h.781V7.07a2.587,2.587,0,0,0-1.275,1.03,10.611,10.611,0,0,0-1.074,2.638c-.08.247-.163.33-.33.33a2.314,2.314,0,0,1-.7-.247v3.174c.039,1.9.039,1.9.039,3.341.041,1.443.041,1.566.082,3.009a.988.988,0,0,1-.247.783,5.827,5.827,0,0,1-2.679.453c-1.113,0-1.278-.082-1.319-.618V20.3H97.121V20.8c0,.495-.167.618-1.033.783a30.094,30.094,0,0,1,3.67,2.022h9.688c.991-.948,1.28-1.239,2.31-2.146,1.443.989,1.855,1.278,3.132,2.267.456.332.659.538.659.744,0,.33-.33.618-1.319,1.154v6.391c0,.577,0,.7.082,4.987-.041.495-.124.744-.371.907a7.089,7.089,0,0,1-2.8.414c-1.072,0-1.4-.167-1.443-.7V36.175H99.264v1.03c-.039.989-.536,1.2-3.091,1.2-1.154,0-1.443-.208-1.443-1.074.121-3.174.165-4.9.165-9.606,0-2.432-.044-4.534-.126-5.525V21.7h-.495c-.987,0-1.358-.247-1.358-.948v-.124c.08-2.143.121-5.2.121-6.72Zm9.358-1.4H97.118v9.976H102.4Zm-4.74,1.113a17.064,17.064,0,0,1,2.267,1.69c1.4,1.278,2.02,2.226,2.02,3.256,0,1.362-1.154,2.97-2.143,2.97-.495,0-.7-.453-.863-1.855a17.348,17.348,0,0,0-1.568-5.772ZM109.7,24.467H99.264V29.29H109.7ZM99.264,35.309H109.7V30.158H99.264Zm12.7-25.849h-5.649v9.976h5.649v-6.8a1.441,1.441,0,0,1-.5.124,27.984,27.984,0,0,1-4.41,5.855l-.371-.206a34.627,34.627,0,0,0,1.486-7.957c1.525.495,1.525.495,3.792,1.278Z" transform="translate(102.823 0.394)" fill="#070203"/>
        <path id="Path_49" data-name="Path 49" d="M117.435,20.5c1.2,3.052,2.269,4.454,5.152,6.8a27,27,0,0,0,5.072-6.267c6.1,2.8,6.1,2.8,6.1,3.217,0,.33-.371.536-.948.536-.247,0-.742-.044-1.651-.124l-3.421,1.607a43.58,43.58,0,0,1-4.163,1.772,18.445,18.445,0,0,0,4.7,2.391,33.073,33.073,0,0,0,9.686,2.184v.5a5.565,5.565,0,0,0-3.089,2.8,11.684,11.684,0,0,0-.577,1.484c-.082.412-.208.495-.5.495a24.45,24.45,0,0,1-4.536-1.855,26.276,26.276,0,0,1-7.955-6.226c-4.495,2.558-8.248,4.083-17.235,7.133-.121,1.2-.371,1.772-.824,1.772q-.247,0-.495-.371c-.33-.618-.33-.618-1.733-5.976a38.457,38.457,0,0,0,6.434-.618V20.5h-4.083a13.411,13.411,0,0,0-3.05.371l-.412-1.649a15.2,15.2,0,0,0,3.462.412h4.083V8.054c0-2.187-.082-5.072-.247-7.256a44.132,44.132,0,0,1,5.443,2.638h13.521C127.494,1.95,127.947,1.5,129.31.054c2.1,1.527,2.761,2.063,4.946,3.753a.356.356,0,0,1,.124.247c0,.124-.163.247-.371.247H112.034V8.673h12.658c1.236-1.321,1.607-1.692,2.846-2.929,1.9,1.36,2.432,1.813,4.245,3.3.082.121.124.163.124.2,0,.167-.167.289-.371.289h-19.5v4.495h12.41c1.319-1.4,1.731-1.813,3.009-3.132a50.334,50.334,0,0,1,4.412,3.545c.082.082.124.124.124.206,0,.165-.165.247-.371.247H112.034v4.742h17.727c1.4-1.525,1.857-2.02,3.3-3.506,2.061,1.607,2.681,2.1,4.781,3.877a.362.362,0,0,1,.124.206c0,.165-.163.289-.41.289Zm-5.4,0V31.1c3.835-.577,5.443-.863,7.011-1.236,1.525-.371,1.525-.371,1.9-.453-2.1-2.555-3.176-4.7-4.373-8.9Z" transform="translate(128.865 0.069)" fill="#070203"/>
        <path id="Path_50" data-name="Path 50" d="M121.386,9.939a34.48,34.48,0,0,1,8.078,2.72c2.434,1.2,3.547,2.681,3.547,4.866,0,1.981-1.154,3.835-2.349,3.835-.288,0-.577-.208-.948-.659-.124-.167-.124-.167-2.1-3.423a23.943,23.943,0,0,0-6.391-6.968Z" transform="translate(156.345 12.818)" fill="#070203"/>
        <path id="Path_51" data-name="Path 51" d="M160.323,33.092a24.778,24.778,0,0,0,2.968.165,82.042,82.042,0,0,0,9.235-.659l.044.456a4.723,4.723,0,0,0-2.516,3.751c-.082.7-.247.783-1.4.783h-1.566a39.058,39.058,0,0,1-8.369-.948c-3.258-.989-5.814-3.464-7.71-7.545-1.775,4-4.165,6.556-8.616,9.4l-.291-.371a21.206,21.206,0,0,0,4.25-6.844,31.268,31.268,0,0,0,2.058-9.152v-.866c1.28.247,2.187.453,2.8.536,2.391.453,3.009.659,3.009,1.113,0,.33-.412.577-1.484.866a33.782,33.782,0,0,1-1.36,4.454,9.523,9.523,0,0,0,4.74,4.08V19.321H148.49a11.6,11.6,0,0,0-2.432.25l-.247-1.319a37.176,37.176,0,0,1-3.132,2.143V28.97c0,1.36,0,2.391.041,4.492v.371c0,1.981-.538,3.052-2.02,3.835a7.315,7.315,0,0,1-3.217.824c-.453,0-.618-.165-.662-.659-.163-2.267-.7-2.764-4.119-3.874v-.536c2.017.08,2.761.08,5.111.121.495,0,.618-.163.618-.659V22.909a15.811,15.811,0,0,1-1.4.783,8.807,8.807,0,0,1-1.236.7c-.082,1.154-.291,1.692-.7,1.692s-.618-.538-2.228-5.649a23.672,23.672,0,0,0,5.566-1.156V10.54H136a9.309,9.309,0,0,0-2.31.247l-.245-1.443A10.836,10.836,0,0,0,136,9.677h2.432V5.306a37.644,37.644,0,0,0-.288-5.031c5.937.577,6.143.618,6.143,1.2,0,.33-.33.577-1.607,1.072V9.677h.659a29.608,29.608,0,0,1,2.184-2.8c1.319,1.319,1.731,1.731,2.885,3.05a.927.927,0,0,1,.165.373c0,.163-.165.245-.495.245h-5.4v7.545a41.6,41.6,0,0,0,4.822-1.649l.167.412c-.044.041-.621.495-1.775,1.321a10.7,10.7,0,0,0,2.723.289H164.9c1.239-1.4,1.651-1.816,2.887-3.135,1.813,1.4,2.349,1.855,4.08,3.38.165.167.208.247.208.33,0,.206-.165.289-.453.289h-11.3v6.061h3.835c1.236-1.4,1.607-1.855,2.8-3.174,1.857,1.4,2.393,1.855,4.085,3.3.163.2.245.327.245.451,0,.167-.206.289-.534.289H160.323Zm-7.339-17.727a.645.645,0,0,1-.165.536,5.036,5.036,0,0,1-2.514.412c-1.362,0-1.61-.165-1.61-.907.126-3.091.126-3.915.126-7.009,0-4.577-.043-6.432-.126-7.957a23.332,23.332,0,0,1,4.577,2.184h9.567c.948-1.072,1.275-1.4,2.267-2.391A38.113,38.113,0,0,1,168.28,2.38c.412.33.577.534.577.74,0,.33-.247.579-1.36,1.2.039,5.276.082,8.781.124,10.595,0,.453-.041.618-.288.742a6.594,6.594,0,0,1-2.761.412c-1.115,0-1.321-.082-1.321-.7v-.742H152.985ZM163.25,3.49H152.985V8.067H163.25ZM152.985,13.757H163.25V8.935H152.985Z" transform="translate(171.153 0.301)" fill="#070203"/>
        <path id="Path_52" data-name="Path 52" d="M154.061,9.819A50.207,50.207,0,0,0,164.2,4.667a25.6,25.6,0,0,0,4.948-4c5.111,3.091,5.525,3.38,5.525,3.833,0,.289-.371.538-.785.538-.206,0-.9-.126-1.525-.208a37.208,37.208,0,0,1-4.783,2.063c0,1.484,0,2.679-.039,3.421-.044,3.918-.044,4.495-.167,6.638h8.66c-.041-2.8-.041-4.454-.041-5.979V6.646a48.194,48.194,0,0,0-.208-5.484c1.28.124,2.269.247,2.929.33,3.009.33,3.629.495,3.629.989,0,.371-.373.618-1.486,1.03-.039,1.69-.039,2.226-.039,4.165v3.792c0,1.649-.044,2.844-.044,5.484h2.764l2.968-3.627c2.022,1.646,2.638,2.184,4.66,3.874.08.165.163.247.163.33,0,.165-.2.289-.371.289H180.775V21.9c0,6.226.044,9.317.206,14.76,0,.495-.124.7-.412.824a17.311,17.311,0,0,1-3.835.33c-.659,0-.866-.165-.9-.742l.245-17.4V17.817h-8.781c-.41,5.772-1.481,9.564-3.545,12.575a18.571,18.571,0,0,1-6.679,5.9,40.149,40.149,0,0,1-3.712,1.649l-.289-.412c3.918-2.8,5.814-4.825,7.174-7.874,1.4-2.97,2.1-6.6,2.393-11.833h-5.072a40.191,40.191,0,0,0-4.328.247l-.289-1.484a31.52,31.52,0,0,0,4.616.371h5.113c.082-2.143.124-4.454.124-6.844V8.459a55.611,55.611,0,0,1-8.575,1.855Z" transform="translate(197.265 0.859)" fill="#070203"/>
        <path id="Path_53" data-name="Path 53" d="M184.214,37.489a.988.988,0,0,1-.25.783,5.682,5.682,0,0,1-2.8.453c-1.154,0-1.4-.165-1.443-.824.121-4.863.121-5.152.121-6.185,0-3.874-.039-6.514-.08-7.668a14.242,14.242,0,0,1-1.649.126c-.865,0-1.154-.208-1.2-.909.044-1.566.082-6.143.082-7.339,0-.289,0-1.236-.039-2.844-1.525.618-2.228.866-4.165,1.484l-.247-.412A51.55,51.55,0,0,0,182.771,6.61,23.294,23.294,0,0,0,188.088.054c6.308,1.236,6.6,1.319,6.6,1.813,0,.371-.332.538-1.69.744a19.747,19.747,0,0,0,7.916,4.451A42.063,42.063,0,0,0,211.629,9v.33a4.958,4.958,0,0,0-2.1,2.143,6.9,6.9,0,0,0-.662,1.607c-.08.371-.206.495-.495.495-.2,0-.2,0-1.9-.577.206.165.288.289.288.453,0,.206-.245.453-.742.783-.041,1.072-.041,1.772-.041,2.391,0,1.36.041,2.228.167,6.061v.165a.737.737,0,0,1-.538.824,11.774,11.774,0,0,1-2.885.33c-.618,0-.824-.124-.989-.618v-.659H181.244v.659c-.082.33-.206.371-.536.495a40.814,40.814,0,0,1,3.833,1.61h14.1a26.071,26.071,0,0,1,2.145-2.1c1.443.907,1.9,1.154,3.256,2.1.453.289.659.495.659.74,0,.33-.163.456-1.4,1.2,0,3.545,0,3.545.247,9.976a.759.759,0,0,1-.577.866,17.6,17.6,0,0,1-3.05.33c-.659,0-.909-.165-.992-.659V36.459H184.214Zm-2.723-24.7H201.4c.662-.7.866-.907,1.362-1.4-5.193-2.761-7.462-4.616-10.389-8.534a46.925,46.925,0,0,1-12.493,8.907Zm7.792.866h-8.042v8.2h8.042Zm-6.349.824c3.093,1.236,4.7,2.6,4.7,3.874s-1.319,2.846-2.39,2.846c-.495,0-.621-.247-.866-1.69a11.022,11.022,0,0,0-1.775-4.783Zm16,11.875H184.211v3.915H198.93Zm-14.716,9.235h14.719V31.14H184.214Zm7.545-26.346c1.319-1.525,1.319-1.525,2.267-2.6,1.69,1.2,2.184,1.607,3.792,2.844a1.14,1.14,0,0,1,.247.414c0,.121-.121.2-.371.2H187.3a10.682,10.682,0,0,0-2.022.167l-.289-1.362a9.087,9.087,0,0,0,2.31.33Zm1.525,12.617h8.451v-8.2h-8.451Zm1.2-.742a24.975,24.975,0,0,0,2.184-6.638c3.835,1.278,4.369,1.525,4.369,1.978,0,.414-.451.618-1.4.659a24.043,24.043,0,0,1-4.863,4.289Z" transform="translate(222.541 0.069)" fill="#070203"/>
        <path id="Path_54" data-name="Path 54" d="M192.448,38.043a34.894,34.894,0,0,0,7.918-4.534,13.813,13.813,0,0,0,3.256-3.011c1.2.371,2.1.659,2.679.824,3.05.907,3.506,1.113,3.506,1.525s-.538.618-1.937.618l-.25-.041c-4.657,2.681-7.916,3.794-14.966,5.072Zm26.8-35.622c.948-1.03,1.278-1.36,2.267-2.349,1.566,1.072,2.022,1.4,3.464,2.475.371.289.492.492.492.659,0,.33-.2.492-1.4,1.154,0,2.72,0,3.38.124,5.647,0,.618-.206.785-.991.948a39.2,39.2,0,0,1,3.215,2.269c.332.247.456.412.456.577,0,.371-.371.7-1.36,1.278,0,7.833,0,8.328.165,14.554-.041,1.03-.742,1.319-3.423,1.319-.948,0-1.236-.165-1.278-.742V29.55h-18.8v.618a.683.683,0,0,1-.373.618,6.584,6.584,0,0,1-2.638.371c-1.4,0-1.69-.165-1.69-.907.208-6.349.208-7.256.208-10.553,0-4.165-.043-6.556-.208-9.031a46.094,46.094,0,0,1,5.276,2.352h17.853c.907-.948,1.115-1.154,2.02-1.978a12.673,12.673,0,0,1-1.731.124c-1.072,0-1.319-.124-1.36-.659V9.6H203.828v.618c-.041.824-.7,1.069-2.844,1.069-1.4,0-1.69-.121-1.733-.863.043-2.187.043-3.382.043-5.154a34.475,34.475,0,0,0-.208-5.154,46.927,46.927,0,0,1,5.237,2.308Zm1.731,11.463h-18.8V18.09h18.8Zm-18.8,9.358h18.8V18.953h-18.8Zm0,5.443h18.8V24.108h-18.8ZM203.828,8.73h15.705V3.289H203.828Zm10.8,22.3a74.136,74.136,0,0,1,10.02,1.484c2.267.536,3.421,1.855,3.421,3.918,0,1.278-.577,2.267-1.319,2.267-.453,0-.621-.082-2.145-1.278a40.088,40.088,0,0,0-10.139-5.937Z" transform="translate(248.211 0.092)" fill="#070203"/>
        <path id="Path_55" data-name="Path 55" d="M210.84,21.57a60.531,60.531,0,0,0,5.2-13.029A46.877,46.877,0,0,0,217.808.214c5.731,1.319,6.35,1.525,6.35,1.9,0,.25-.247.456-.659.621a12.938,12.938,0,0,0,2.72.369h16.905C244.4,1.821,244.4,1.821,246.088.09c1.692,1.4,2.228,1.857,3.959,3.464a.377.377,0,0,1,.126.206c0,.124-.167.206-.456.206h-9.193V7.676h3.009c.991-.989,1.319-1.278,2.31-2.226,1.36.948,1.731,1.236,3.011,2.267.286.206.371.289.371.495,0,.289-.208.495-1.28,1.074,0,1.937,0,1.937.124,5.811-.041.289-.082.371-.33.495a6.761,6.761,0,0,1-2.1.289c-.245,0-.533,0-1.028-.041.74.536,1.154.824,2.308,1.731.33.25.453.412.453.621,0,.371-.165.495-1.443,1.154v4.41c0,4.165.041,4.825.124,7.009,0,.412-.082.618-.247.742A4.7,4.7,0,0,1,243.08,32c-1.193,0-1.4-.082-1.4-.577V30.6H228.856v.7a.569.569,0,0,1-.451.577,20.3,20.3,0,0,1-2.887.247c-.783,0-1.03-.165-1.03-.659v-.124c.082-2.8.124-6.883.124-9.729,0-2.926-.041-4.825-.124-5.855H223.7c-.907,0-1.154-.124-1.278-.618l.041-1.2.041-3.338c0-2.64-.041-4.165-.124-5.072,1.937.824,2.555,1.113,4.575,2.143H229.8V3.967h-3.586a9.58,9.58,0,0,0-2.432.289l-.412-1.486a9.275,9.275,0,0,1-.989.208,45.431,45.431,0,0,1-4.495,9.976c2.434.453,3.05.659,3.05.989,0,.371-.327.618-1.319,1.03V27.631c0,.783.041,4,.041,9.606,0,.412-.041.618-.165.742a6.3,6.3,0,0,1-3.091.453c-1.033,0-1.236-.124-1.236-.7.041-1.36.082-4.7.165-10.059V16.911a46.934,46.934,0,0,1-4.165,4.866Zm9.484,16.408c4.657-2.267,7.133-4.039,9.067-6.6.991.412,1.775.7,2.269.907,2.681,1.074,3.132,1.321,3.132,1.692,0,.412-.412.536-1.525.536h-.618a33.227,33.227,0,0,1-12.161,3.915ZM226.548,14.4v.536c-.039.495-.206.577-1.2.742a42.663,42.663,0,0,1,3.874,1.816h12.2c1.072-.948,1.443-1.28,2.473-2.228V14.4ZM229.8,8.541h-3.256v4.989H229.8Zm11.875,9.814H228.856v3.009h12.823Zm-12.823,7.009h12.823V22.23H228.856Zm0,4.369h12.823V26.228H228.856Zm4.66-22.057h3.3V3.967h-3.3Zm3.3.866h-3.3v4.989h3.3Zm.288,23.376c3.462.371,5.482.618,5.976.7,4.041.659,5.319,1.481,5.319,3.38,0,1.443-.7,2.679-1.525,2.679-.33,0-.659-.165-1.278-.742a28.466,28.466,0,0,0-8.575-5.523Zm6.8-23.376h-3.382v4.989H243.9Z" transform="translate(271.932 0.115)" fill="#070203"/>
        <path id="Path_56" data-name="Path 56" d="M230.852,21.382a52.1,52.1,0,0,0,5.321-11.463A44.543,44.543,0,0,0,238.4.4c5.937,1.072,6.64,1.278,6.64,1.813,0,.412-.371.577-1.816.989a43.675,43.675,0,0,1-4.825,10.02c2.145.371,2.681.536,2.681.948,0,.33-.371.577-1.319.866V28.267c0,.082.041,5.358.041,8.7a1.039,1.039,0,0,1-.33.907,6.057,6.057,0,0,1-2.764.412c-1.2,0-1.443-.165-1.443-.989.082-2.6.082-2.6.206-12.946V17.217a29.737,29.737,0,0,1-4.247,4.454ZM262.187,11.9c.9-1.033,1.193-1.362,2.1-2.352,1.525,1.072,1.978,1.4,3.3,2.473.332.291.412.412.412.579,0,.33-.245.536-1.4,1.154.039,8.451.039,11.666.121,17.48,0,.659-.165.866-.781,1.03a52.343,52.343,0,0,1,4.2,3.215c.124.126.165.208.165.289,0,.126-.124.208-.371.208h-22.8v.989c0,.495-.085.742-.288.866a5.82,5.82,0,0,1-2.6.412c-1.111,0-1.443-.206-1.443-.907.124-8.493.124-8.7.124-14.76,0-6.927-.041-8.616-.206-11.254,4.783.534,5.77.74,5.77,1.319,0,.33-.369.577-1.358.866v21.6H262.97c1.113-1.278,1.319-1.484,2.514-2.761a11.527,11.527,0,0,1-1.649.124c-1.115,0-1.36-.165-1.4-.742V30.575h-8.2v1.443a.885.885,0,0,1-.289.659,5.944,5.944,0,0,1-2.473.371c-1.236,0-1.525-.165-1.566-.824.124-5.111.165-7.71.165-13.356,0-4.7-.041-6.723-.165-9.154a35.269,35.269,0,0,1,3.874,2.187h.453c.288-1.733.456-2.764.7-4.825h-8.287a14.852,14.852,0,0,0-3.011.247l-.289-1.484a16.666,16.666,0,0,0,3.3.371h8.369a42.222,42.222,0,0,0,.371-4.577V.643c1.2.165,2.184.33,2.761.412,2.6.33,3.382.577,3.382,1.03,0,.373-.495.659-1.813.948-.043.453-.208,1.525-.414,3.176h3.918c1.154-1.4,1.525-1.855,2.679-3.217,1.9,1.484,2.434,1.981,4.163,3.464.167.206.25.289.25.371q0,.247-.495.247H259.176c-.371,2.514-.536,3.545-.781,4.825Zm.245.863h-8.2V17.3h8.2Zm-8.2,10.473h8.2v-5.07h-8.2Zm0,6.473h8.2V24.1h-8.2Z" transform="translate(297.742 0.51)" fill="#070203"/>
      </g>
    </g>
  </g>
</svg>
